<svg width="1567" height="773" viewBox="0 0 1567 773" fill="none" xmlns="http://www.w3.org/2000/svg">
<g clip-path="url(#clip0_1_238)">
<rect width="1567" height="773" fill="white"/>
<g clip-path="url(#clip1_1_238)">
<path d="M2847.51 -766.47H-199.491V1704.53H2847.51V-766.47Z" fill="#F1F1F1"/>
<path d="M240.093 187.492C240.093 187.492 218.488 170.555 219.386 174.326C220.344 178.096 220.344 185.637 220.344 185.637C220.344 185.637 229.74 185.637 231.655 188.45C233.51 191.263 237.28 195.033 234.468 195.991C231.655 196.949 242.906 196.949 231.655 196.949C220.404 196.949 217.531 198.804 217.531 198.804C217.531 198.804 213.761 197.846 217.531 202.575C221.301 207.303 224.114 210.116 224.114 210.116L228.842 213.886L234.468 219.512L227.884 223.283L236.323 226.095H243.864L239.136 233.637L242.906 236.45H291.801L299.342 230.824C299.342 230.824 308.738 231.781 311.55 230.824C314.363 229.866 342.611 212.929 342.611 212.929C342.611 212.929 381.152 218.554 384.923 215.741C388.693 212.929 421.609 174.385 421.609 171.513C421.609 168.64 420.651 130.157 420.651 126.386C420.651 122.615 421.609 98.197 421.609 98.197L423.464 85.987H432.86L440.401 79.404L449.797 73.778L459.193 70.008L462.963 56.841L447.941 45.529V34.217L441.358 16.322L436.63 5.96799L421.609 5.01102L397.131 10.637L400.902 -0.675018L385.88 2.13797L379.297 6.866L376.484 -3.48801L356.735 -2.53L344.526 14.407L334.172 20.033L333.215 26.616L347.339 36.013C347.339 36.013 356.735 38.826 348.296 41.639C339.858 44.452 328.547 47.265 328.547 47.265L327.589 53.848L314.423 58.576L308.797 54.806L296.589 60.432L292.818 45.409C292.818 45.409 285.278 43.554 279.652 43.554H263.673L268.401 51.095C268.401 51.095 259.962 50.137 259.005 53.908C258.047 57.679 257.15 60.491 257.15 60.491L259.962 65.22L267.503 67.075C267.503 67.075 274.086 68.93 275.044 72.701C276.001 76.471 277.857 81.14 277.857 81.14C277.857 81.14 266.545 84.91 262.835 87.723C259.065 90.536 253.439 95.264 253.439 95.264L257.209 103.703L259.065 111.244L266.605 108.431H274.146L277.916 118.785L296.708 120.64L297.666 130.037C297.666 130.037 294.853 127.224 291.083 130.037C287.312 132.85 282.644 133.807 282.644 133.807L277.019 132.85L268.58 154.455L261.04 156.311L254.456 159.124C254.456 159.124 260.082 162.894 263.852 162.894C267.623 162.894 287.372 161.937 287.372 161.937L296.768 164.75C296.768 164.75 296.768 171.333 288.33 171.333H268.58L260.142 168.52L251.703 173.248L240.392 187.373L240.093 187.492Z" fill="#00CFFD" fill-opacity="0.05" stroke="#26224C"/>
<path d="M395.275 362.372L400.003 368.955L407.543 370.811L412.271 379.249L416.042 380.207L422.625 367.998C422.625 367.998 429.208 357.644 434.834 357.644C440.459 357.644 442.374 355.788 447.042 355.788C451.71 355.788 480.916 370.811 480.916 370.811L495.04 366.082L495.997 349.145H523.287C526.1 349.145 554.348 356.686 554.348 356.686L568.472 353.873C568.472 353.873 572.242 351.06 581.638 351.06C591.034 351.06 622.094 352.915 622.094 352.915L648.427 350.102C648.427 350.102 658.781 352.915 663.449 353.873C668.177 354.831 692.594 353.873 695.407 352.018C698.22 350.162 725.51 344.477 725.51 337.893C725.51 331.31 726.467 318.143 726.467 318.143L708.573 313.415L687.866 309.644V304.916L703.845 303.061L705.701 295.52L702.888 287.979L717.012 285.166L730.178 275.769L740.531 267.33L747.115 236.268L735.804 215.56C735.804 215.56 728.263 207.122 724.492 207.122C720.722 207.122 704.743 206.164 704.743 206.164L683.138 214.603L680.325 202.394L688.764 186.414C688.764 186.414 692.534 181.685 688.764 177.017C684.994 172.289 679.368 166.663 678.41 162.893C677.453 159.122 661.474 150.683 661.474 150.683C661.474 150.683 662.431 144.1 665.244 144.1C668.057 144.1 671.827 143.142 674.64 145.058C677.453 146.913 685.951 153.496 685.951 150.683V139.372L679.368 128.06L674.64 113.038L657.703 87.662L646.392 84.849L639.809 67.911L626.643 7.70297L595.582 -26.172L581.458 -23.359L573.02 -20.547L560.811 -23.359C560.811 -23.359 552.373 -30.901 555.186 -30.901C557.998 -30.901 569.31 -33.713 569.31 -33.713L590.914 -40.297L599.353 -45.025L597.497 -52.566L591.872 -54.421L610.664 -65.733C610.664 -65.733 628.558 -106.191 632.268 -109.004C636.039 -111.817 643.58 -120.316 643.58 -123.129C643.58 -125.942 639.809 -134.44 639.809 -134.44L611.621 -143.837L583.433 -149.463C583.433 -149.463 573.08 -141.922 566.497 -140.066C559.914 -138.211 546.747 -137.253 546.747 -137.253C546.747 -137.253 542.977 -138.211 546.747 -141.024C550.518 -143.837 554.288 -145.752 554.288 -145.752L562.726 -153.293L564.582 -157.064C564.582 -157.064 559.854 -157.064 559.854 -159.877C559.854 -162.69 561.709 -165.502 565.479 -168.315C569.25 -171.128 577.688 -173.941 577.688 -173.941L593.667 -189.921L601.208 -205.901L598.395 -211.527L594.625 -212.484C594.625 -212.484 590.854 -209.672 584.271 -208.714C577.688 -207.756 556.083 -207.756 556.083 -207.756L545.73 -211.527L539.147 -219.068L531.606 -217.213L529.751 -194.649L519.397 -193.692C519.397 -193.692 516.584 -196.505 515.627 -193.692C514.669 -190.879 512.814 -186.151 512.814 -186.151L515.627 -173.941C515.627 -173.941 518.44 -169.213 515.627 -169.213C512.814 -169.213 494.022 -168.256 494.022 -168.256L492.167 -150.36H484.626L487.439 -145.632L493.065 -137.194V-125.882C493.065 -125.882 494.022 -122.111 490.252 -122.111C486.481 -122.111 485.524 -123.967 482.711 -125.882C479.898 -127.797 475.17 -134.321 475.17 -134.321L469.545 -139.947V-156.884H462.004V-148.445H452.608V-140.904L462.004 -133.363L467.63 -127.737L469.485 -120.196L477.026 -116.426L486.422 -110.8L478.881 -97.633H467.57C467.57 -97.633 465.715 -95.778 467.57 -92.905C469.425 -90.092 476.966 -80.695 476.966 -80.695H487.319L488.277 -74.112L484.507 -59.09L462.902 -3.60898L475.111 -2.65201L486.422 -38.382C486.422 -38.382 486.422 -34.611 493.962 -34.611C501.503 -34.611 504.316 -36.467 504.316 -36.467C506.171 -29.883 503.358 -18.571 503.358 -18.571L500.546 -9.17502L506.171 -2.59201L476.068 42.535L481.694 53.847L487.319 47.263L497.673 55.702C497.673 55.702 501.443 62.285 504.256 58.515C507.069 54.744 503.298 47.203 508.026 47.203C512.754 47.203 524.005 50.974 524.005 50.974C524.005 50.974 527.776 53.787 532.444 52.829C537.172 51.872 548.423 42.475 548.423 42.475L560.632 46.246L557.819 55.642L538.069 69.767L549.381 111.123L572.9 98.913L563.504 117.706L560.692 122.434V141.227L550.338 142.185L548.483 157.207L546.628 167.561L534.419 161.935C534.419 161.935 535.376 160.978 528.793 160.978C522.21 160.978 512.814 161.935 509.044 160.978C505.273 160.02 488.337 148.768 488.337 148.768L482.711 153.496L490.252 164.808C490.252 164.808 494.98 175.162 490.252 175.162C485.524 175.162 481.813 173.307 478.941 177.017C476.128 180.788 472.358 186.414 472.358 186.414L481.754 187.371H494.92L497.733 191.142V200.538L494.92 225.017L435.671 250.393V258.832C435.671 258.832 436.629 260.687 439.442 263.56L442.255 266.373L460.149 267.33L479.898 260.747C479.898 260.747 480.856 265.475 478.941 269.186L477.086 272.956L488.397 280.497C494.98 280.497 497.793 281.455 497.793 281.455L500.605 288.996L511.916 296.537C511.916 296.537 518.5 298.392 522.27 296.537C526.04 294.682 534.479 288.996 534.479 288.996L548.603 279.6L549.56 284.328L542.019 291.869L533.581 306.891C533.581 306.891 538.309 310.662 520.415 306.891C502.52 303.12 493.124 301.265 489.354 301.265H476.188L474.333 309.704C474.333 309.704 479.06 320.058 474.333 320.058H453.626C453.626 320.058 448.898 337.953 445.187 338.851C441.417 339.808 446.145 341.664 434.834 345.434C423.523 349.205 414.127 361.414 414.127 361.414L395.335 362.372H395.275Z" fill="#00CFFD" fill-opacity="0.05" stroke="#26224C"/>
<path d="M1117.21 31.643L1102.78 35.414L1099.67 39.184C1099.67 39.184 1098.42 49.239 1100.27 51.753C1102.13 54.266 1111.58 62.406 1111.58 62.406L1132.29 71.802L1136.66 58.037C1136.66 58.037 1144.2 56.78 1136.66 44.87C1129.12 32.96 1127.26 30.446 1127.26 30.446L1117.21 31.703V31.643Z" fill="#00CFFD" fill-opacity="0.05" stroke="#26224C"/>
<path d="M1168.62 0.941006L1161.07 4.05301V11.594L1153.53 17.878L1139.77 19.734C1139.77 19.734 1141.03 27.275 1142.88 27.873C1144.74 28.472 1152.94 32.242 1152.94 32.242L1154.19 48.521L1166.76 54.805L1177.41 63.603L1186.81 69.888C1186.81 69.888 1194.95 72.401 1194.95 69.289C1194.95 66.177 1191.18 56.122 1191.18 56.122L1201.23 50.496C1201.23 50.496 1205.6 49.898 1205.6 46.127C1205.6 42.357 1203.75 39.245 1203.75 39.245L1198.12 33.619L1199.98 24.222L1206.26 18.596L1204.4 -3.96701C1204.4 -3.96701 1196.26 -4.56499 1194.35 -5.82199C1192.43 -7.07899 1181.78 -9.59301 1181.78 -7.07901C1181.78 -4.56501 1180.53 10.457 1180.53 12.971C1180.53 15.484 1183.64 22.367 1180.53 22.367C1177.41 22.367 1172.98 22.367 1172.98 19.255C1172.98 16.143 1173.58 21.768 1172.98 16.143C1172.39 10.517 1168.62 1.12002 1168.62 1.12002V0.941006Z" fill="#00CFFD" fill-opacity="0.05" stroke="#26224C"/>
<path d="M1554.81 -1015.43L1562.35 -998.49L1556.72 -983.468L1554.87 -960.905C1554.87 -960.905 1553.01 -945.883 1566.18 -940.197C1579.35 -934.571 1615.07 -900.696 1615.07 -900.696L1609.45 -846.173L1663.97 -778.483V-744.608L1680.91 -731.441C1697.84 -718.274 1712.86 -688.17 1712.86 -688.17V-667.462L1741.05 -644.899C1741.05 -644.899 1761.76 -622.335 1767.38 -622.335C1773.01 -622.335 1784.32 -586.605 1784.32 -586.605L1723.76 -421.719C1731 -428.063 1738.12 -434.288 1740.15 -434.288C1743.92 -434.288 1749.55 -434.288 1752.36 -426.747C1755.18 -419.205 1755.18 -416.393 1758.95 -413.58C1762.72 -410.767 1757.09 -410.767 1762.72 -410.767H1798.45C1801.26 -410.767 1810.65 -403.226 1810.65 -403.226C1805.93 -399.455 1777.74 -391.016 1777.74 -391.016L1751.41 -379.705L1742.01 -365.58L1732.61 -357.141L1734.47 -346.788L1754.22 -343.974V-334.578L1739.2 -317.641L1731.66 -276.285L1767.38 -234.928L1763.61 -210.45L1776.78 -199.138V-170.949L1788.09 -167.179L1801.26 -165.323C1801.26 -165.323 1795.63 -165.323 1801.26 -144.615L1806.88 -123.907L1825.68 -116.366L1838.84 -121.992L1846.38 -120.137L1855.78 -114.511L1861.4 -125.823C1861.4 -125.823 1865.17 -131.448 1870.8 -125.823C1876.43 -120.197 1885.82 -110.8 1885.82 -110.8L1904.61 -125.823L1930.95 -122.052L1942.26 -116.426L1932.86 -97.6329L1940.4 -84.4659L1942.26 -69.444L1966.73 -60.048L1976.13 -37.4839L1993.07 -31.8579L2002.46 -18.6919L2011.86 -7.37988L2021.25 -5.5249L2032.57 -13.0659C2032.57 -13.0659 2051.36 -11.2099 2051.36 -3.66895V15.123L2034.42 22.665L2019.4 28.29L2023.17 60.25L2045.73 99.751C2045.73 99.751 2068.29 114.773 2070.21 105.377C2072.06 95.98 2072.06 82.813 2072.06 82.813L2092.77 80.958L2096.54 71.562L2109.71 65.936L2126.65 56.5391L2147.35 62.165L2151.12 69.7061C2151.12 69.7061 2160.52 105.437 2162.43 111.062C2164.29 116.688 2168.06 124.229 2168.06 124.229L2196.25 120.459L2215.04 124.229C2215.04 124.229 2226.35 137.396 2228.21 143.022C2230.06 148.648 2235.75 154.334 2235.75 154.334L2301.58 158.104L2312.89 146.793L2339.22 156.189L2359.93 150.563L2378.72 146.793H2410.68L2423.84 133.626H2468.97L2474.59 144.937L2472.74 163.73L2463.34 180.668L2484.05 223.939C2484.05 223.939 2482.2 231.48 2482.2 237.106C2482.2 242.732 2465.26 254.043 2465.26 259.669C2465.26 265.295 2457.72 278.462 2457.72 278.462C2457.72 278.462 2440.78 297.255 2440.78 302.941V331.728L2446.41 329.274L2480.28 310.482L2485.01 298.272L2497.22 294.502L2500.99 297.315C2500.99 297.315 2503.8 299.17 2503.8 302.941C2503.8 306.711 2507.57 302.941 2503.8 306.711C2500.03 310.482 2506.61 308.566 2500.03 310.482C2493.45 312.337 2476.51 339.628 2476.51 339.628L2479.32 349.025C2469.93 350.88 2474.59 349.982 2465.2 351.838L2455.8 353.693L2450.18 360.276L2452.99 367.818L2462.39 376.256L2469.93 377.214L2476.51 375.359L2488.72 378.172L2498.11 380.984V384.755L2490.57 389.483H2475.55L2468.97 398.88L2472.74 403.608L2473.7 412.046L2471.84 452.502C2471.84 452.502 2469.03 456.272 2461.49 457.232C2453.95 458.192 2442.7 461.962 2442.7 461.962C2437.97 464.772 2434.26 466.692 2434.26 469.502L2438.99 472.312C2438.99 472.312 2443.71 474.172 2440.84 477.942L2438.03 481.712L2440.84 487.342L2447.42 488.292H2477.53L2485.97 497.692L2498.17 500.502C2498.17 500.502 2500.99 496.732 2505.72 496.732C2510.44 496.732 2518.88 497.692 2518.88 497.692C2518.88 497.692 2516.07 499.542 2519.84 501.462C2523.61 503.322 2530.19 505.232 2533.01 505.232C2535.82 505.232 2544.32 502.422 2548.03 502.422C2551.74 502.422 2557.42 500.562 2564.96 502.422C2572.5 504.272 2600.57 523.192 2600.57 523.192L2600.69 -1159.37H2048.9L2071.53 -1141.53L2055.25 -1123.99L2075.3 -1081.38L2060.87 -1071.99L2049.56 -1062.59H2040.17L2008.21 -1060.73C1998.81 -1064.5 1996.9 -1072.05 1996.9 -1072.05L1995.04 -1087.07C1995.04 -1087.07 1981.88 -1087.07 1995.04 -1102.09L2008.21 -1117.11L1968.71 -1154.76L1946.15 -1141.59L1934.84 -1126.57L1902.88 -1122.8L1914.19 -1115.26L1934.9 -1113.4L1951.83 -1077.67L1970.62 -1045.71L1980.02 -1041.94L1998.81 -1040.09L2010.12 -1026.92L2025.14 -996.815L2027 -985.503V-966.71L2017.6 -964.855L2000.67 -974.251V-983.648L1955.54 -985.503L1959.31 -977.962V-964.795C1959.31 -964.795 1963.08 -961.025 1963.08 -953.483C1963.08 -945.942 1953.69 -930.92 1953.69 -930.92L1942.38 -906.442L1927.36 -874.482L1942.38 -859.46L1978.11 -853.834L1989.42 -838.812L2000.73 -823.789C2000.73 -823.789 1983.79 -818.163 1978.17 -818.163C1972.54 -818.163 1917.96 -812.538 1917.96 -812.538L1867.15 -829.475L1865.29 -818.163C1865.29 -818.163 1862.78 -813.794 1865.29 -808.767C1870.92 -797.455 1893.48 -782.433 1893.48 -782.433L1912.27 -788.059H1934.84L1940.46 -763.58C1940.46 -763.58 1942.32 -750.414 1936.69 -746.643C1931.07 -742.872 1942.32 -733.476 1923.52 -733.476H1880.26L1874.63 -754.184H1857.69L1844.53 -752.329L1818.19 -791.83L1795.63 -806.852L1799.4 -838.812L1784.38 -851.978L1752.42 -853.834C1752.42 -853.834 1729.86 -857.604 1722.32 -863.23C1714.78 -868.856 1694.13 -889.564 1694.13 -889.564C1694.13 -889.564 1682.82 -902.731 1690.36 -902.731H1728.01C1728.01 -902.731 1716.69 -897.105 1728.01 -891.419C1739.32 -885.794 1756.19 -874.482 1763.73 -878.252C1771.27 -882.023 1780.67 -887.649 1791.92 -887.649H1837.05L1887.86 -893.275L1925.5 -925.234L1931.13 -1000.46L1906.65 -1019.26L1887.86 -1041.82L1837.05 -1039.97L1795.69 -1041.82L1756.19 -1066.3H1688.51L1665.94 -1054.99L1624.59 -1051.22C1624.59 -1051.22 1617.05 -1054.99 1617.05 -1060.61C1617.05 -1066.24 1618.9 -1077.55 1618.9 -1077.55H1592.57V-1068.15C1592.57 -1068.15 1600.11 -1054.99 1592.57 -1054.99H1575.64V-1034.28L1554.93 -1015.49L1554.81 -1015.43Z" fill="#00CFFD" fill-opacity="0.05" stroke="#26224C"/>
<path d="M1438.22 -724.796C1438.22 -728.567 1422.25 -731.38 1442.95 -734.193C1463.66 -737.006 1453.31 -739.819 1463.66 -737.006C1474.01 -734.193 1478.68 -734.193 1478.68 -734.193C1478.68 -734.193 1483.83 -732.756 1487.6 -734.313L1468.33 -761.424V-793.384C1468.33 -793.384 1459.89 -809.364 1457.02 -812.177C1454.2 -814.99 1451.39 -822.531 1451.39 -822.531L1448.58 -846.052L1441.99 -847.907L1435.41 -891.179L1414.7 -899.617L1365.81 -918.41L1361.08 -929.722L1351.69 -938.16L1329.12 -935.348L1332.89 -920.325L1340.43 -907.158L1342.29 -888.366L1336.66 -884.595L1312.19 -888.366C1312.19 -888.366 1299.98 -893.991 1298.06 -888.366C1296.21 -882.74 1293.34 -874.241 1293.34 -874.241V-855.448C1293.34 -855.448 1296.15 -850.72 1293.34 -849.822C1290.52 -848.865 1278.31 -848.865 1278.31 -848.865L1260.42 -843.239L1246.3 -806.551C1246.3 -806.551 1252.88 -786.801 1253.84 -783.03C1254.79 -779.26 1254.79 -775.489 1254.79 -772.676C1254.79 -769.863 1248.21 -756.696 1248.21 -756.696L1232.23 -741.674L1231.27 -730.362L1237.86 -723.779C1237.86 -723.779 1240.67 -717.196 1237.86 -716.238C1235.04 -715.28 1227.5 -712.467 1227.5 -712.467L1208.71 -704.926L1220.92 -654.114L1200.21 -610.843L1208.65 -594.863C1208.65 -594.863 1217.09 -593.008 1218.05 -587.322C1219.01 -581.696 1217.09 -561.946 1217.09 -561.946H1178.55L1164.43 -555.362L1157.84 -543.153L1155.03 -520.589L1150.3 -495.213L1165.32 -417.169L1159.7 -404.96L1184.17 -388.98V-375.813L1178.55 -351.334H1167.24L1173.82 -335.355C1173.82 -335.355 1181.36 -321.23 1183.22 -318.417C1185.07 -315.604 1172.86 -277.959 1172.86 -277.959C1172.86 -277.959 1166.28 -274.188 1165.32 -271.375C1164.37 -268.562 1158.74 -256.353 1158.74 -256.353L1160.59 -234.747L1166.22 -220.623L1154.01 -204.643L1146.47 -211.226L1137.08 -214.039C1138.03 -210.269 1140.85 -200.872 1140.85 -200.872L1145.57 -165.142H1159.7L1174.72 -166.997L1166.28 -124.684L1169.09 -117.143L1182.26 -110.559L1180.4 -101.163V-95.537L1191.72 -87.996C1191.72 -87.996 1199.26 -67.288 1201.11 -63.517C1202.97 -59.747 1219.01 -51.308 1219.01 -51.308V-39.996C1219.01 -35.268 1213.38 -24.017 1213.38 -24.017C1213.38 -24.017 1200.21 -24.017 1200.21 -20.246C1200.21 -16.476 1203.03 -9.89203 1203.03 -9.89203C1203.03 -9.89203 1213.38 -4.266 1215.24 -1.453C1217.09 1.36 1234.98 14.527 1234.98 17.34C1234.98 20.152 1219.96 29.5489 1227.44 32.3619C1234.98 35.1749 1269.76 37.09 1269.76 37.09C1269.76 37.09 1282.92 33.319 1282.92 29.549C1282.92 25.778 1284.78 25.778 1282.92 20.152C1281.07 14.527 1276.34 6.02795 1276.34 6.02795L1278.19 -4.32605L1287.59 -9.95203L1293.22 -19.348L1295.07 -25.932L1306.38 -31.558H1333.67C1333.67 -31.558 1342.11 -14.62 1342.11 -22.161C1342.11 -29.702 1350.55 -61.662 1352.46 -65.433C1354.32 -69.203 1361.86 -101.163 1360.9 -105.891C1359.94 -110.619 1356.17 -127.497 1356.17 -127.497C1356.17 -127.497 1353.36 -160.414 1353.36 -163.227C1353.36 -166.04 1352.4 -197.102 1352.4 -197.102L1351.45 -207.456L1373.05 -221.58L1381.49 -231.934L1389.03 -229.121C1389.03 -229.121 1391.84 -230.977 1395.61 -234.747L1405.97 -245.101L1408.78 -249.829V-259.226L1394.66 -260.183C1394.66 -260.183 1389.03 -255.455 1385.26 -253.6C1381.49 -251.745 1374.91 -250.787 1371.14 -249.829C1367.37 -248.872 1363.6 -248.872 1363.6 -248.872L1356.05 -257.311L1349.47 -258.268L1325.95 -261.081H1316.56C1316.56 -261.081 1314.7 -268.622 1319.37 -268.622H1364.49C1364.49 -268.622 1373.89 -282.747 1376.7 -282.747C1379.51 -282.747 1380.47 -279.934 1380.47 -279.934L1383.29 -266.767L1413.39 -286.517L1417.16 -295.914L1408.72 -314.707L1393.7 -318.477L1386.16 -325.06L1380.53 -331.644L1359.83 -341.04L1345.7 -345.769L1341.93 -353.31L1337.2 -410.705V-425.728L1336.25 -431.354L1341.87 -438.895L1337.14 -446.436C1337.14 -446.436 1336.19 -446.436 1332.42 -452.062C1328.64 -457.687 1326.79 -456.79 1326.79 -460.5C1326.79 -464.211 1329.6 -475.522 1329.6 -475.522H1339.96L1350.31 -476.48L1352.16 -513.168L1366.29 -517.896L1369.1 -523.522L1371.91 -538.544L1390.71 -541.357C1390.71 -541.357 1402.02 -581.816 1406.69 -584.629C1411.41 -587.442 1426.43 -592.17 1429.25 -600.608C1432.06 -609.047 1433.98 -616.588 1433.98 -616.588L1435.83 -640.109C1435.83 -640.109 1418.89 -647.65 1418.89 -650.463C1418.89 -653.276 1420.75 -663.63 1420.75 -663.63L1425.48 -680.568L1426.43 -692.777L1436.79 -702.173C1436.79 -702.173 1446.18 -703.131 1445.23 -706.901C1444.27 -710.672 1437.69 -721.026 1437.69 -724.796H1438.22Z" fill="#00CFFD" fill-opacity="0.05" stroke="#26224C"/>
<path d="M1689.65 71.803L1697.19 68.691L1708.5 69.289L1719.81 69.888L1740.51 33.499C1740.51 33.499 1745.54 35.354 1748.06 37.27C1750.57 39.125 1756.85 45.409 1756.85 45.409C1756.85 45.409 1765.65 30.985 1765.65 29.13C1765.65 27.275 1755 26.616 1755 26.616L1754.4 -9.11398L1780.13 -42.33V-49.213L1774.51 -51.727L1769.48 -54.839L1767.63 -69.263L1753.2 -81.831L1739.44 -93.741L1730.64 -100.624L1723.1 -95.597L1709.93 -96.195L1693 -114.988L1674.8 -94.28C1674.8 -94.28 1652.84 -85.482 1650.98 -85.482C1649.13 -85.482 1643.44 -94.878 1643.44 -94.878L1571.33 -78.599L1548.47 -46.699C1550.86 -42.091 1556.9 -30.121 1556.9 -27.847C1556.9 -25.034 1557.86 -8.09598 1557.86 -8.09598L1564.45 -0.555023V0.402008H1568.81C1568.81 0.402008 1593.89 9.19998 1595.75 9.79898C1597.6 10.397 1622.08 10.397 1622.08 10.397C1622.08 10.397 1628.36 7.88298 1630.88 9.79898C1633.39 11.654 1635.9 19.853 1635.9 19.853C1635.9 19.853 1634.05 25.479 1633.39 27.394C1632.79 29.25 1632.13 38.048 1632.13 38.048L1640.93 44.93C1640.93 44.93 1647.81 51.813 1651.58 52.471C1655.35 53.07 1672.89 59.354 1672.89 59.354C1672.89 59.354 1675.4 67.494 1678.75 73.06L1689.76 71.923L1689.65 71.803Z" fill="#00CFFD" fill-opacity="0.05" stroke="#26224C"/>
<path d="M1651.4 52.351C1647.63 51.753 1640.75 44.81 1640.75 44.81L1631.95 37.927C1631.95 37.927 1632.55 29.129 1633.21 27.274C1633.81 25.419 1635.72 19.733 1635.72 19.733C1635.72 19.733 1633.21 11.594 1630.69 9.67801C1628.18 7.82301 1621.9 10.277 1621.9 10.277C1621.9 10.277 1597.42 10.277 1595.56 9.67801C1593.71 9.08001 1568.63 0.282013 1568.63 0.282013H1564.26L1565.16 24.76H1558.58C1535.96 24.76 1525.66 22.905 1525.66 22.905L1522.85 28.531L1516.27 33.259L1519.08 47.384L1526.62 53.009C1525.36 57.378 1519.98 65.937 1516.51 71.144L1525.36 75.573L1606.88 68.69L1635.72 61.149C1635.72 61.149 1647.81 57.558 1654.57 53.189C1653.2 52.77 1652.06 52.471 1651.4 52.351Z" fill="#E6EFF2" fill-opacity="0.05" stroke="#26224C"/>
<path d="M447.942 34.157L441.359 16.322L436.631 5.96799L421.609 5.00998L404.912 8.84097L401.261 13.449L376.185 23.504L369.902 38.526L363.618 49.838L371.158 69.887L377.382 71.144L391.207 69.887L415.026 83.713L422.986 89.338L423.464 85.867H432.92L440.401 79.284L449.797 73.658L459.253 69.887L462.963 56.72L447.942 45.469V34.157Z" fill="#E6EFF2" fill-opacity="0.05" stroke="#26224C"/>
<path d="M1726.93 246.743L1721.3 226.992L1712.86 222.264L1707.24 192.818C1707.24 192.818 1699.1 192.22 1697.18 191.561C1695.33 190.963 1692.16 184.679 1692.16 184.679C1692.16 184.679 1694.01 173.367 1694.01 171.512C1694.01 169.656 1714.06 154.574 1714.06 154.574L1704.67 122.615L1687.73 105.079L1673.96 79.343L1677.73 73.059L1678.63 72.939C1675.28 67.373 1672.77 59.234 1672.77 59.234C1672.77 59.234 1655.23 52.95 1651.46 52.351C1647.69 51.753 1640.81 44.81 1640.81 44.81L1632.01 37.927C1632.01 37.927 1632.61 29.129 1633.27 27.274C1633.87 25.419 1635.78 19.733 1635.78 19.733C1635.78 19.733 1633.27 11.594 1630.75 9.67801C1628.24 7.82301 1621.96 10.277 1621.96 10.277C1621.96 10.277 1597.48 10.277 1595.62 9.67801C1593.77 9.08001 1568.69 0.282013 1568.69 0.282013H1564.32L1565.22 24.76H1558.64C1536.02 24.76 1525.72 22.905 1525.72 22.905L1522.91 28.531L1516.33 33.259L1519.14 47.384L1526.68 53.009C1524.83 59.593 1513.51 75.573 1513.51 75.573C1513.51 75.573 1505.08 84.969 1502.2 84.969C1499.33 84.969 1493.77 84.012 1493.77 84.012C1493.77 84.012 1500.35 81.199 1489.99 81.199C1479.64 81.199 1471.2 81.199 1467.43 80.241C1463.66 79.283 1457.08 75.513 1457.08 75.513L1458.04 67.074L1463.66 59.533L1464.62 55.763L1460.85 54.805L1437.33 52.95L1413.81 58.576L1384.66 80.181C1384.66 80.181 1336.73 124.41 1328.23 124.41C1319.73 124.41 1308.48 134.764 1308.48 134.764L1306.62 149.786C1306.62 149.786 1305.67 158.225 1300.04 156.37C1297.83 155.652 1294.83 154.574 1292.02 153.617L1293.22 166.185L1303.39 182.285L1302.55 193.297L1291.54 205.147V213.646L1305.97 222.983L1317.82 229.745L1322.06 255.182C1322.06 255.182 1324.58 268.767 1325.48 271.281C1326.31 273.795 1327.15 289.954 1327.15 289.954L1339 302.642L1344.09 308.567L1338.16 345.854L1345.76 346.692L1346.6 340.767L1356.78 339.929L1362.7 353.515L1411 356.926V361.175C1411 361.175 1400.82 365.425 1404.23 368.776C1407.65 372.188 1421.17 383.2 1421.17 383.2C1421.17 383.2 1425.42 391.699 1428.77 390.801C1432.18 389.963 1440.62 392.477 1440.62 386.552C1440.62 380.627 1438.95 377.215 1438.95 377.215L1430.45 367.041L1440.62 366.203L1450.8 368.716L1458.4 378.053L1465.16 375.539L1474.49 378.053L1476.17 385.654C1476.17 385.654 1469.41 391.579 1481.26 392.417C1493.11 393.255 1483.77 395.828 1493.11 393.255L1502.44 390.741L1513.45 392.417L1521.95 393.255L1524.47 405.943L1539.73 422.88L1551.58 423.718L1560.08 408.457L1577.85 418.631L1581.26 431.319H1591.44L1607.53 414.382L1658.4 408.457L1678.75 403.369L1697.66 422.282L1709.03 420.546L1723.16 416.776L1718.43 407.379L1709.03 393.255V377.275L1716.58 350.941L1733.51 324.607L1748.53 315.211C1748.53 315.211 1753.26 308.627 1753.26 305.814C1753.26 303.002 1744.82 269.127 1744.82 269.127L1726.93 246.563V246.743Z" fill="#00CFFD" fill-opacity="0.05" stroke="#26224C"/>
<path d="M1597.6 831.712L1606.51 833.152L1602.74 830.272V825.132L1607.89 821.842L1604.6 811.002L1601.31 800.172L1607.41 799.692L1613.04 801.552L1615.37 801.072L1617.23 797.302L1616.27 786.942L1602.62 774.262L1595.08 771.442L1599.81 757.322L1604.06 751.212C1604.06 751.212 1604.54 746.072 1604.06 744.152C1603.7 742.832 1599.81 737.932 1597.6 735.172L1579.16 746.312L1572.88 734.992L1532.12 731.882L1527.1 738.762L1501.42 734.992L1481.97 731.882H1471.32L1465.69 737.512L1456.3 738.762L1447.5 746.902L1440.62 741.282L1433.08 738.762L1428.05 765.102L1438.7 775.752L1454.38 803.342L1502.68 849.132H1513.33L1525.24 858.522L1540.92 870.432L1540.32 879.832C1540.32 879.832 1539.07 884.862 1545.95 886.712C1552.83 888.572 1558.52 887.312 1564.14 891.082C1569.77 894.852 1578.75 905.802 1578.75 905.802L1591.43 891.682L1588.14 885.102L1588.62 873.792L1594.72 870.492L1594.25 862.952L1583.89 850.262L1579.16 834.762L1583.89 827.702L1597.54 831.472L1597.6 831.712Z" fill="#00CFFD" fill-opacity="0.05" stroke="#26224C"/>
<path d="M1564.26 891.262C1558.64 887.492 1552.95 888.752 1546.07 886.892C1539.19 885.042 1540.44 880.012 1540.44 880.012L1541.04 870.612L1525.36 858.702L1513.45 849.312H1502.8L1454.5 803.522L1438.82 775.932L1428.17 765.282L1433.2 738.942L1440.74 741.462L1447.62 747.082L1456.42 738.942L1465.81 737.692L1471.44 732.062H1482.09L1501.54 735.172L1527.22 738.942L1532.24 732.062L1573 735.172L1579.28 746.482L1597.72 735.352C1596.82 734.272 1596.16 733.502 1596.16 733.502C1596.16 733.502 1592.39 723.142 1594.31 721.772C1596.16 720.332 1601.37 719.432 1601.37 718.002C1601.37 716.562 1602.8 716.142 1601.37 714.702C1599.93 713.272 1587.72 707.642 1587.72 707.642C1587.72 707.642 1582.99 706.212 1582.1 703.392C1581.14 700.582 1574.56 675.622 1574.56 675.622L1561.69 676.222L1552.29 686.872L1513.39 681.852L1508.37 675.562L1486.4 676.822L1448.76 647.372H1441.88L1436.25 657.432L1420.57 663.052L1418.06 691.902L1405.49 696.932L1403.63 715.722L1398.61 721.352H1377.9L1367.85 718.832L1365.99 713.212L1355.94 717.582L1347.8 724.462L1308.24 730.442C1306.86 732.302 1304.95 735.292 1305.78 736.972C1307.04 739.482 1310.81 748.282 1310.81 748.282C1310.81 748.282 1320.21 763.962 1321.46 765.822C1322.72 767.672 1322.72 772.702 1325.23 772.702H1327.75C1327.75 772.702 1335.89 773.962 1337.14 771.442C1338.4 768.932 1339.66 767.072 1339.66 764.562C1339.66 762.052 1341.51 753.252 1341.51 753.252V737.572C1341.51 737.572 1339.66 730.032 1347.8 734.452C1355.94 738.822 1369.76 748.882 1369.76 748.882L1382.93 757.682C1382.93 757.682 1378.56 767.732 1380.41 772.702C1382.27 777.732 1392.98 788.382 1393.58 790.232C1394.18 792.092 1399.86 802.142 1399.86 802.142H1406.15L1409.92 807.772L1404.89 814.652L1403.03 825.312L1410.58 830.332C1410.58 830.332 1421.23 835.962 1423.74 837.222C1426.26 838.472 1439.42 844.762 1439.42 844.762L1441.28 851.642L1445.05 856.012L1451.93 856.612L1463.24 854.092C1463.24 854.092 1477.66 852.842 1481.43 854.092L1485.2 855.352C1485.2 855.352 1509.68 872.292 1513.39 873.552C1517.16 874.802 1527.16 881.092 1527.16 881.092L1535.95 888.632L1537.81 893.652L1546.61 896.172L1556.66 899.942L1570.43 911.252L1579.22 916.282L1580.12 916.402L1578.75 905.922C1578.75 905.922 1569.83 894.972 1564.14 891.202L1564.26 891.262Z" fill="#00CFFD" fill-opacity="0.05" stroke="#26224C"/>
<path d="M1307.82 687.472L1306.57 695.012L1314.94 710.692H1316.56L1319.07 718.242C1319.07 718.242 1320.93 718.832 1319.07 721.352C1317.22 723.862 1309.68 728.892 1309.68 728.892C1309.68 728.892 1309.08 729.552 1308.36 730.502L1347.92 724.522L1356.06 717.642L1366.11 713.272L1367.97 718.892L1378.02 721.412H1398.73L1403.76 715.782L1405.61 696.992L1418.18 691.962L1420.69 663.112L1436.37 657.492L1442 647.432H1448.88V642.412L1433.86 624.872H1421.29V632.412L1423.15 635.522L1415.01 638.042H1406.87L1399.33 645.582L1372.4 644.982L1354.2 663.172L1329.73 661.322L1311.53 660.062L1297.11 680.112L1306.51 683.882L1307.76 687.652L1307.82 687.472Z" fill="#00CFFD" fill-opacity="0.05" stroke="#26224C"/>
<path d="M1734.47 509.122L1723.16 485.602L1700.6 471.482L1680.25 479.322L1670.19 466.152L1651.4 474.952H1627.58L1620.04 473.092C1620.04 473.092 1602.51 508.822 1599.99 507.572C1597.48 506.312 1592.45 506.312 1592.45 506.312L1584.31 500.682L1581.2 502.542L1576.83 520.732L1551.1 523.252L1541.04 539.532L1512.86 547.072L1498.43 550.842L1478.38 535.162L1460.85 534.562L1464.62 560.292H1445.17L1440.8 566.582L1448.94 570.952L1443.31 578.492L1438.29 586.032L1445.17 602.972V609.852L1432.6 614.882L1429.91 624.932H1433.86L1448.88 642.472V647.492L1486.52 676.942L1508.49 675.682L1513.51 681.972L1552.41 686.992L1561.81 676.342L1574.68 675.742L1586.41 659.282L1599.57 655.042L1604.72 647.022L1643.26 651.262C1643.26 651.262 1645.12 647.492 1648.89 644.682C1652.66 641.872 1653.62 640.912 1653.62 640.912L1659.24 636.182L1678.03 631.452L1702.51 553.412L1705.32 536.472L1702.51 528.032L1734.47 509.242V509.122Z" fill="#00CFFD" fill-opacity="0.05" stroke="#26224C"/>
<path d="M1478.32 535.162L1498.37 550.842L1512.79 547.072L1540.98 539.532L1551.04 523.252L1576.77 520.732L1581.14 502.542L1584.25 500.682L1592.39 506.312C1592.39 506.312 1597.42 506.312 1599.93 507.572C1602.44 508.822 1619.98 473.092 1619.98 473.092L1627.52 474.952H1651.34L1670.13 466.152L1680.18 479.322L1700.53 471.482L1696.76 422.581L1708.49 420.785L1697.6 422.461L1678.69 403.549L1658.34 408.636L1607.47 414.561L1591.37 431.498H1581.2L1577.79 418.81L1560.01 408.636L1551.51 423.898L1539.66 423.06L1529.37 411.628H1529.25L1516.98 425.693L1501.24 437.065L1494.66 466.332L1460.55 480.332L1452.71 489.072L1452.29 514.452L1462.82 534.622L1478.2 535.162H1478.32Z" fill="#00CFFD" fill-opacity="0.05" stroke="#26224C"/>
<path d="M1452.89 489.072L1460.73 480.332L1494.84 466.332L1501.42 437.064L1517.16 425.693L1529.43 411.688H1529.55L1524.58 406.122L1522.07 393.434L1513.57 392.596L1502.56 390.92L1493.22 393.434C1483.89 395.948 1493.22 393.434 1481.37 392.596C1469.52 391.758 1476.29 385.833 1476.29 385.833L1474.61 378.232L1465.27 375.718L1458.51 378.232L1450.91 368.895L1440.74 366.382L1430.56 367.22L1439.06 377.394C1439.06 377.394 1440.74 380.806 1440.74 386.731C1440.74 392.656 1432.24 390.142 1428.89 390.98C1425.48 391.818 1421.29 383.379 1421.29 383.379C1421.29 383.379 1407.7 372.367 1404.35 368.955C1400.94 365.544 1411.11 361.354 1411.11 361.354V357.105L1362.82 353.694L1356.89 340.108L1346.72 340.946L1345.88 346.871L1338.28 346.033L1334.99 349.863L1326.37 352.018L1325.29 346.093V341.784L1309.13 344.477L1309.67 348.786C1309.67 348.786 1310.75 350.402 1309.13 352.557C1307.52 354.711 1297.28 361.175 1297.28 361.175C1297.28 361.175 1289.2 361.175 1289.2 362.791C1289.2 364.407 1285.97 369.255 1285.97 369.255L1278.43 374.641H1270.89C1270.89 374.641 1268.2 377.334 1267.12 378.95C1266.04 380.566 1260.12 383.798 1260.12 383.798L1251.5 385.953C1251.5 385.953 1252.58 392.416 1250.42 392.416H1233.73C1233.73 392.416 1229.42 397.264 1228.88 398.88C1228.34 400.496 1225.65 406.421 1225.65 406.421L1219.72 402.651L1215.41 400.496L1213.26 408.037L1222.42 418.271L1228.34 424.197L1233.19 434.431L1231.57 441.433L1241.27 461.902L1254.73 465.672L1267.12 470.522L1274.12 483.982L1290.28 490.452L1306.98 500.682C1306.98 500.682 1317.75 513.612 1319.91 513.612H1351.15L1360.84 490.452L1364.61 482.912L1398.54 484.522L1410.93 492.062C1410.93 492.062 1417.93 490.992 1423.32 489.912C1428.71 488.832 1432.48 488.292 1434.63 488.292C1436.37 488.292 1446.54 490.692 1453.07 492.182V489.312L1452.89 489.072Z" fill="#00CFFD" fill-opacity="0.05" stroke="#26224C"/>
<path d="M1464.56 560.232L1460.79 534.502H1463L1452.47 514.452L1452.83 492.012C1446.31 490.512 1436.07 488.122 1434.4 488.122C1432.24 488.122 1428.47 488.652 1423.08 489.732C1417.7 490.812 1410.7 491.892 1410.7 491.892L1398.31 484.352L1364.37 482.732L1360.6 490.272L1350.91 513.432H1319.67C1317.51 513.432 1306.74 500.502 1306.74 500.502L1303.09 498.232L1298.96 520.432L1290.52 517.622L1286.75 515.772L1279.21 518.582L1280.17 533.602L1262.28 540.192L1257.55 551.502L1273.53 567.482L1281.97 579.692L1271.61 588.122L1256.59 578.732H1235.88L1229.3 589.082L1206.74 599.442L1171.97 606.982L1168.2 597.582L1139.05 596.622L1137.2 608.832C1137.2 608.832 1126.84 603.212 1124.03 600.392C1121.22 597.582 1117.45 591.962 1117.45 591.962L1101.47 594.772L1103.32 606.982L1105.18 622.002C1105.18 622.002 1103.32 625.772 1104.22 628.582C1105.18 631.402 1114.57 639.892 1114.57 639.892L1131.51 644.622L1144.68 639.002L1150.3 646.542L1168.2 651.272L1178.55 644.682C1178.55 644.682 1185.13 633.372 1187.95 633.372H1206.74L1231.22 622.062V631.462L1240.61 643.672L1256.59 654.982L1311.47 660.002L1329.66 661.262L1354.14 663.122L1372.33 644.922L1399.27 645.522L1406.81 637.982H1414.95L1423.08 635.472L1421.23 632.352V624.812H1429.79L1432.48 614.762L1445.05 609.732V602.852L1438.17 585.912L1443.19 578.372L1448.82 570.832L1440.68 566.462L1445.05 560.172H1464.5L1464.56 560.232Z" fill="#00CFFD" fill-opacity="0.05" stroke="#26224C"/>
<path d="M1603.1 1069.31L1596.22 1063.03L1569.89 1046.75C1569.89 1046.75 1554.87 1036.1 1552.35 1035.44C1549.84 1034.84 1513.45 1024.13 1513.45 1024.13L1476.47 1010.36L1461.45 1001.56L1455.82 994.682L1463.96 986.542C1463.96 986.542 1467.73 983.432 1467.73 980.922C1467.73 978.402 1465.22 970.862 1465.22 970.862L1443.25 968.352H1423.8L1416.26 969.602C1416.26 969.602 1411.89 970.862 1409.98 970.862C1408.06 970.862 1391.19 963.322 1391.19 963.322L1356.71 936.992L1332.9 883.722L1315.96 861.162L1250.13 823.512C1250.13 823.512 1246.36 795.322 1247.02 792.152C1247.61 789.042 1246.42 778.982 1249.53 778.982H1255.15L1255.75 772.702L1255.15 766.422L1242.59 745.712L1248.87 736.312L1253.9 733.202L1255.15 740.082H1259.52C1259.52 740.082 1259.52 738.232 1265.15 734.462C1270.77 730.692 1279.57 725.062 1279.57 725.062L1287.71 716.922V713.152H1296.51L1303.39 714.412L1305.9 710.642H1314.94L1306.56 694.952L1307.82 687.412L1306.56 683.642L1297.17 679.872L1311.59 659.822L1256.71 654.802L1240.73 643.482L1231.34 631.272V621.882L1206.86 633.192H1188.07C1185.25 633.192 1178.67 644.502 1178.67 644.502L1168.32 651.082L1150.42 646.362L1148.33 656.112L1151.86 662.822C1151.86 662.822 1149.76 665.992 1147.25 667.062C1144.8 668.142 1139.47 670.242 1139.47 670.242V662.102L1134.56 665.992L1129.66 670.242L1134.92 681.552L1136.36 687.892L1133.55 689.632L1129.3 688.192L1126.12 682.212L1118.34 681.132L1109.19 686.042L1098.24 686.402V675.082H1089.8L1087.7 688.852L1080.28 703.332L1081.36 711.112L1082.44 715.362C1082.44 715.362 1075.37 719.972 1073.64 718.182C1071.9 716.442 1066.22 707.582 1066.22 707.582C1066.22 707.582 1066.58 701.602 1065.14 700.882C1063.7 700.162 1052.46 693.462 1052.46 693.462L1050.36 677.242L1038.75 681.132L1034.5 689.572L1036.24 698.732L1023.91 712.852H1014.75L1008.41 712.132L997.815 716.022L977.348 713.932L970.286 726.622L985.128 755.162L978.425 765.762L959.394 767.852L959.753 773.482L975.971 794.662L976.33 811.242L971.423 822.202L985.906 835.602L1014.81 835.242V844.762L1009.61 862.832C1010.56 862.712 1011.52 862.652 1012.3 862.652C1018.88 862.652 1028.28 858.882 1028.28 858.882L1043.3 848.532L1042.34 835.362L1053.65 831.592C1053.65 831.592 1062.09 816.572 1065.86 816.572C1069.63 816.572 1070.59 815.612 1077.17 816.572C1083.75 817.532 1093.15 821.302 1093.15 821.302L1111.94 835.422L1126.96 839.192L1136.36 841.052L1146.71 856.072V871.092L1158.02 887.072L1164.61 905.872L1169.33 924.662C1169.33 924.662 1186.27 936.872 1187.23 939.682C1188.19 942.492 1186.27 955.662 1191.96 955.662C1197.64 955.662 1206.98 956.622 1206.98 956.622L1282.21 1014.01C1282.21 1014.01 1296.33 1026.22 1303.81 1026.22C1311.29 1026.22 1327.33 1019.64 1336.73 1024.37C1346.12 1029.1 1362.1 1045.08 1362.1 1045.08L1374.31 1053.51C1374.31 1053.51 1381.85 1051.66 1379.94 1062.91L1378.08 1074.22C1378.08 1074.22 1386.52 1076.08 1390.29 1074.22C1394.06 1072.37 1402.5 1063.87 1402.5 1063.87L1414.71 1073.26L1417.52 1078.89L1414.71 1088.29L1415.01 1095.47L1433.2 1106.78L1446.37 1103.67L1457.68 1109.29L1467.07 1124.97L1484.01 1147.54L1492.81 1180.16V1195.18L1486.52 1196.44L1478.98 1200.8L1478.38 1220.26L1468.33 1227.14L1470.18 1242.16L1475.81 1248.44L1488.98 1249.7L1492.75 1234.02L1509.03 1217.08C1509.03 1217.08 1519.68 1214.57 1518.42 1207.69C1517.16 1200.8 1512.8 1187.64 1512.8 1187.64L1518.42 1176.98L1527.82 1171.36L1537.21 1170.1H1542.84L1545.35 1168.84L1543.5 1161.3L1541.64 1153.76L1541.04 1145.62V1140.6L1524.76 1129.28L1508.49 1123.66C1508.49 1123.66 1505.97 1118.63 1505.97 1111.75C1505.97 1104.87 1507.83 1094.81 1507.83 1094.81L1518.48 1067.22L1530.39 1060.94H1544.81L1537.27 1064.71V1068.48H1539.79L1548.58 1069.08L1563.61 1069.67L1574.92 1070.93C1574.92 1070.93 1579.29 1072.79 1580.54 1077.81C1581.8 1082.84 1580.54 1084.1 1581.8 1086.61C1583.06 1089.12 1581.8 1092.9 1583.65 1093.49C1585.51 1094.09 1592.45 1101.03 1595.56 1102.29C1598.68 1103.55 1604.36 1106.66 1604.36 1106.66C1604.36 1106.66 1609.39 1112.29 1609.39 1106.66C1609.39 1101.03 1609.99 1085.95 1609.99 1085.95L1603.1 1069.02V1069.31Z" fill="#00CFFD" fill-opacity="0.05" stroke="#26224C"/>
<path d="M1092.13 85.867C1091.17 81.139 1091.17 73.657 1091.17 73.657L1081.78 64.261L1085.55 57.677L1089.32 53.907C1089.32 53.907 1088.36 54.865 1089.32 44.511C1090.28 34.157 1089.32 31.344 1089.32 31.344C1089.32 31.344 1105.3 14.406 1107.21 8.78C1109.07 3.154 1110.98 -7.19999 1110.98 -10.012C1110.98 -12.825 1116.61 -15.638 1119.42 -15.638C1122.24 -15.638 1130.73 -4.32699 1130.73 -10.012C1130.73 -15.698 1132.59 -28.805 1132.59 -28.805L1133.55 -34.431L1123.19 -40.057L1114.75 -46.64L1110.03 -58.85L1112.84 -66.391L1119.42 -74.83L1117.57 -85.184L1119.42 -103.079L1124.15 -115.288L1125.11 -120.914H1114.75C1114.75 -120.914 1118.52 -114.33 1114.75 -112.475C1110.98 -110.62 1122.29 -111.518 1110.98 -110.62C1099.67 -109.662 1098.78 -108.764 1095.96 -107.807C1093.15 -106.849 1089.38 -103.079 1089.38 -103.079L1085.61 -94.64L1070.59 -73.932C1070.59 -73.932 1062.15 -71.119 1054.61 -71.119H1041.44L1038.63 -67.348C1035.82 -63.578 1029.24 -44.785 1029.24 -44.785V-25.992L1024.51 1.29898V17.279C1024.51 17.279 1022.65 27.633 1022.65 30.446C1022.65 33.259 1037.67 41.757 1037.67 41.757C1043.3 44.57 1047.07 50.196 1047.07 50.196L1046.23 77.967L1060.83 81.857L1086.57 86.884H1093.81L1092.19 85.927L1092.13 85.867Z" fill="#00CFFD" fill-opacity="0.05" stroke="#26224C"/>
<path d="M1290.1 490.272L1273.95 483.812L1266.94 470.342L1254.55 465.492L1241.09 461.722L1231.39 441.254L1233.01 434.252L1228.16 424.017L1222.24 418.092L1213.08 407.858L1215.24 400.317L1219.54 402.472L1225.47 406.242C1225.47 406.242 1228.16 400.317 1228.7 398.701C1229.24 397.085 1233.55 392.237 1233.55 392.237H1250.25C1252.4 392.237 1251.32 385.773 1251.32 385.773L1259.94 383.619C1259.94 383.619 1265.87 380.387 1266.94 378.771C1268.02 377.155 1270.71 374.462 1270.71 374.462H1278.25L1285.79 369.075C1285.79 369.075 1289.03 364.227 1289.03 362.612C1289.03 360.996 1297.11 360.996 1297.11 360.996C1297.11 360.996 1307.34 354.532 1308.96 352.377C1310.57 350.223 1309.49 348.607 1309.49 348.607L1308.96 344.298L1325.11 341.604V345.914L1326.19 351.839L1334.81 349.684L1338.1 345.854L1344.03 308.567L1338.94 302.642L1327.09 289.954C1327.09 289.954 1326.25 273.855 1325.41 271.281C1324.58 268.767 1322 255.181 1322 255.181L1317.75 229.745L1305.9 222.982L1291.48 213.646V205.147L1302.49 193.297L1303.33 182.285L1293.16 166.185L1291.96 153.617C1287.71 152.12 1283.94 150.744 1283.94 150.744C1283.94 150.744 1275.5 145.118 1274.54 142.305C1273.59 139.492 1278.31 137.577 1267 130.993C1255.69 124.41 1251.02 123.452 1251.02 123.452L1226.55 118.724L1219.01 107.413V103.642L1212.42 108.37L1201.11 123.393C1201.11 123.393 1184.17 123.392 1182.32 126.205C1180.46 129.018 1176.69 135.602 1176.69 135.602L1167.3 145.956L1153.17 144.998C1153.17 144.998 1141.86 141.228 1141.86 138.415C1141.86 135.602 1144.68 128.061 1144.68 128.061L1146.53 116.749V109.208C1146.53 109.208 1139.95 111.063 1137.14 111.063C1134.32 111.063 1128.7 112.021 1128.7 112.021H1107.99C1107.99 112.021 1104.22 112.021 1104.22 108.25C1104.22 104.48 1103.26 92.271 1103.26 92.271L1093.57 86.645H1086.33L1060.59 81.617L1045.99 77.727L1045.87 81.976L1060 105.497L1063.76 111.123L1053.41 119.562L1060.95 124.29L1064.72 129.916L1062.87 134.644L1059.1 136.5L1062.87 140.27C1062.87 140.27 1061.91 139.312 1070.41 143.083L1078.84 146.854L1088.24 152.479L1096.68 169.417H1081.66L1076.93 163.791L1065.62 159.063C1065.62 159.063 1072.2 157.208 1061.85 157.208C1051.5 157.208 1052.45 152.479 1051.5 157.208L1050.54 161.936L1044.91 176.06C1044.91 176.06 1033.6 166.664 1033.6 176.06C1033.6 185.457 1024.21 185.457 1024.21 185.457L1022.35 169.477L1008.23 166.664L993.205 169.477C993.205 169.477 987.58 174.205 987.58 177.018C987.58 179.831 979.141 177.975 987.58 184.559C996.018 191.142 998.891 192.998 998.891 192.998L986.443 199.581L986.682 200.18L986.084 207.721L991.709 214.005L982.912 239.082C982.912 239.082 965.975 237.227 966.633 241.596C967.232 245.965 970.404 251.65 970.404 251.65L984.169 254.164L977.885 272.957L968.489 284.268L967.89 291.809L935.274 293.066L940.301 311.859L949.098 327.54L942.814 341.305L933.418 360.098C933.418 360.098 938.446 361.355 938.446 363.868V373.265C938.446 373.265 934.675 380.147 937.847 381.404C940.959 382.661 940.361 392.058 940.361 392.058C940.361 392.058 942.874 398.94 944.729 399.599C946.585 400.197 953.527 404.626 953.527 404.626L951.672 408.397L939.762 419.05L944.789 435.329L955.442 442.212L942.276 463.522C942.276 463.522 959.212 484.222 961.726 484.822C964.24 485.422 1031.93 499.252 1031.93 499.252L1011.88 530.612V565.742C1011.88 568.852 1007.51 586.452 1007.51 586.452V592.732C1007.51 592.732 1012.54 594.592 1014.39 595.252C1016.25 595.842 1025.04 596.502 1026.96 596.502C1028.87 596.502 1055.15 597.102 1055.15 597.102L1052.04 586.452L1055.81 582.682L1075.25 585.192C1075.25 585.192 1095.96 598.362 1099.73 600.212C1100.39 600.572 1101.41 601.172 1102.72 601.952L1101.59 594.592L1117.57 591.772C1117.57 591.772 1121.34 597.402 1124.15 600.212C1126.96 603.032 1137.31 608.652 1137.31 608.652L1139.17 596.442L1168.32 597.402L1172.09 606.802L1206.86 599.262L1229.42 588.902L1236 578.552H1256.71L1271.73 587.942L1282.08 579.502L1273.65 567.302L1257.67 551.322L1262.39 540.002L1280.29 533.422L1279.33 518.402L1286.87 515.592L1290.64 517.442L1299.08 520.252L1303.21 498.052L1290.22 490.092L1290.1 490.272Z" fill="#00CFFD" fill-opacity="0.05" stroke="#26224C"/>
<path d="M1150.42 646.422L1144.8 638.872L1131.63 644.502L1114.7 639.772C1114.7 639.772 1105.3 631.332 1104.34 628.462C1103.38 625.652 1105.3 621.882 1105.3 621.882L1103.44 606.862L1102.67 602.012C1101.35 601.232 1100.33 600.632 1099.67 600.272C1095.9 598.422 1075.2 585.252 1075.2 585.252L1055.75 582.742L1051.98 586.512L1055.09 597.162C1055.09 597.162 1028.76 596.562 1026.9 596.562C1025.05 596.562 1016.25 595.962 1014.34 595.302C1012.48 594.712 1007.45 592.792 1007.45 592.792L1001.17 600.932L1000.57 608.472L981.778 600.332L979.264 604.102L982.376 610.982L961.071 639.172L935.337 669.282L925.282 696.212L937.85 696.812L940.962 681.132L967.295 675.502L972.322 692.442L976.092 711.892L978.127 714.052L997.697 716.082L1008.29 712.192L1014.63 712.912H1023.79L1036.12 698.782L1034.38 689.632L1038.63 681.192L1050.24 677.302L1052.34 693.522C1052.34 693.522 1063.65 700.222 1065.02 700.942C1066.46 701.662 1066.1 707.642 1066.1 707.642C1066.1 707.642 1071.73 716.442 1073.52 718.242C1075.26 719.972 1082.32 715.422 1082.32 715.422L1081.24 711.172L1080.16 703.392L1087.59 688.912L1089.68 675.142H1098.12V686.462L1109.07 686.102L1118.23 681.192L1126.01 682.272L1129.18 688.252L1133.43 689.692L1136.24 687.952L1134.8 681.612L1129.54 670.302L1134.45 666.052L1139.35 662.162V670.302C1139.35 670.302 1144.62 668.202 1147.13 667.122C1149.59 666.052 1151.74 662.872 1151.74 662.872L1148.21 656.172L1150.3 646.422H1150.42Z" fill="#00CFFD" fill-opacity="0.05" stroke="#26224C"/>
<path d="M938.566 363.988C938.566 361.474 933.539 360.217 933.539 360.217L942.935 341.425L949.218 327.659L940.421 311.978L935.394 293.186L968.01 291.929L968.609 284.388L978.005 273.076L984.289 254.283L970.524 251.77C970.524 251.77 967.412 246.144 966.754 241.715C966.155 237.346 983.032 239.201 983.032 239.201L991.829 214.124L986.204 207.84L986.802 200.299L986.563 199.701L999.011 193.117L983.032 201.556L972.678 187.431L951.971 189.287L936.95 190.244H932.222L907.804 207.122V216.518L914.388 222.144L921.928 223.102L923.783 226.872L921.928 245.665L920.971 250.393L896.493 263.56L891.765 249.436L895.536 237.226L900.264 235.371C900.264 235.371 896.493 232.558 896.493 227.83C896.493 223.102 894.638 218.433 894.638 218.433H884.285L879.557 234.413L876.744 254.164L872.974 266.373C872.974 266.373 866.39 282.353 861.662 283.31C856.935 284.268 849.454 285.166 849.454 285.166L853.224 289.894L865.433 298.333C865.433 298.333 868.246 299.29 868.246 302.103C868.246 304.916 866.39 308.687 862.62 309.644C858.85 310.602 845.683 316.228 845.683 316.228L835.33 311.5L829.704 305.874C829.704 305.874 824.976 301.146 822.164 304.916C819.351 308.687 819.351 311.5 819.351 311.5L825.934 314.313L833.475 317.126L842.871 319.938H848.496L860.705 322.751V326.522C860.705 329.335 863.518 331.25 860.705 332.148L857.892 333.105L852.266 331.25C852.266 331.25 852.267 325.624 845.683 325.624H820.308C820.308 325.624 821.206 327.42 814.922 325.684L816.239 327.48L826.891 338.791L846.342 343.16L868.904 341.305V328.138L888.953 326.881L895.237 333.165L912.772 333.764L917.799 338.133L926.596 346.272L921.569 366.98L928.452 371.349L938.506 371.708V363.808L938.566 363.988Z" fill="#00CFFD" fill-opacity="0.05" stroke="#26224C"/>
<path d="M955.445 442.331L944.792 435.449L939.765 419.17L951.674 408.516L953.53 404.746C953.53 404.746 946.647 400.377 944.732 399.718C942.877 399.12 940.363 392.178 940.363 392.178C940.363 392.178 940.962 382.781 937.85 381.524C934.738 380.267 938.448 373.385 938.448 373.385V371.888L928.394 371.529L921.512 367.16L926.539 346.452L917.741 338.313L912.714 333.944L895.179 333.345L888.895 327.061L868.846 328.318V341.485L846.284 343.34L826.834 338.971L816.181 327.66L814.864 325.864C814.864 325.864 814.685 325.864 814.625 325.804C808.042 323.949 785.48 339.929 781.709 340.826C780.752 341.066 778.896 341.844 776.562 342.801L784.821 365.903L799.843 368.417L806.725 387.21L844.369 399.12L852.508 426.052L863.161 428.566L881.354 417.255L882.611 435.449C882.611 435.449 898.291 448.612 903.917 450.472C909.542 452.322 909.542 458.012 924.624 458.612C929.95 458.852 937.491 458.972 944.972 459.092L955.325 442.331H955.445Z" fill="#00CFFD" fill-opacity="0.05" stroke="#26224C"/>
<path d="M1000.63 608.472L1001.23 600.932L1007.51 592.792V586.512C1007.51 586.512 1011.88 568.972 1011.88 565.802V530.672L1031.93 499.312C1031.93 499.312 964.243 485.542 961.73 484.882C959.216 484.282 942.279 463.582 942.279 463.582L945.092 459.032C937.611 458.912 930.071 458.792 924.744 458.552C909.723 457.952 909.723 452.272 904.037 450.412C898.352 448.552 882.732 435.39 882.732 435.39L881.475 417.195L863.282 428.507L852.629 425.993L844.49 399.061L806.846 387.151L799.964 368.358L784.942 365.844L776.683 342.742C769.681 345.795 758.55 351.061 756.455 351.061C753.642 351.061 739.518 352.917 739.518 352.917L730.122 403.729L665.248 441.375L661.478 448.912L650.167 454.542L600.314 448.912L593.731 431.978L589.003 424.437L573.024 422.582L561.713 427.31L572.067 459.272C572.067 459.272 586.191 497.812 573.024 497.812C559.858 497.812 510.963 500.622 510.963 500.622L495.941 476.152L456.443 477.102H435.736C435.736 477.102 431.965 481.832 426.34 485.542C420.714 489.312 415.029 496.852 415.029 496.852L436.633 508.162L424.424 516.602L495.882 557.062L527.84 588.122L525.027 620.082L566.381 663.362L574.82 716.982L563.509 760.252L516.469 861.822L524.01 874.032L535.321 874.982L537.176 886.302L612.404 919.212H638.736L645.319 915.442L660.341 916.402L698.882 933.342C698.882 933.342 695.112 942.732 700.737 944.652C706.363 946.502 718.632 950.272 718.632 950.272L739.339 945.552L750.65 956.862L777.461 951.472C773.93 947.702 769.502 942.552 769.502 940.822C769.502 938.012 774.229 922.032 774.229 922.032L769.502 912.632L785.481 887.252C785.481 887.252 791.106 891.982 796.792 889.112C802.477 886.242 824.082 868.402 824.082 868.402C824.082 868.402 846.644 879.712 849.457 880.612C852.27 881.512 856.998 887.192 856.998 887.192L874.892 874.982L883.33 878.752L880.517 884.382L877.705 888.152L884.288 890.012C884.288 890.012 889.913 893.782 890.871 896.592C891.828 899.402 902.182 907.902 902.182 907.902L927.557 908.862L952.034 906.052L956.762 895.692L973.699 880.672C973.699 880.672 979.325 884.442 983.095 879.712C986.865 874.982 992.491 867.502 992.491 867.502C992.491 867.502 1002.61 863.912 1009.55 863.012L1014.75 844.942V835.422L985.848 835.782L971.365 822.382L976.272 811.422L975.913 794.842L959.695 773.662L959.336 768.032L978.367 765.942L985.07 755.342L970.228 726.802L977.29 714.112L997.757 716.202L978.188 714.172L976.153 712.012L972.382 692.562L967.355 675.622L941.023 681.252L937.911 696.932L925.343 696.332L935.397 669.402L961.131 639.302L982.437 611.112L979.325 604.222L981.838 600.452L1000.63 608.592V608.472Z" fill="#00CFFD" fill-opacity="0.05" stroke="#26224C"/>
<path d="M1226.44 234.142L1221.46 237.417V244.267L1226.44 250.62V234.142Z" fill="#26224C"/>
<path d="M1226.44 258.563L1207.3 234.142L1205.08 235.605V261.141L1210.06 257.867V245.22L1222.51 261.141H1227.96L1231.89 258.563H1226.44Z" fill="#26224C"/>
<path d="M1210.06 245.221V257.867L1205.08 261.142H1210.53L1215.51 257.867V252.186L1210.06 245.221Z" fill="#00CFFD"/>
<path d="M1226.44 250.62V234.142H1231.89V258.563H1226.44L1207.3 234.142H1213.52L1226.44 250.62Z" fill="#00CFFD"/>
<path d="M948.391 227.794L946.036 229.523V233.14L948.391 236.495V227.794Z" fill="#26224C"/>
<path d="M948.391 240.69L939.34 227.794L938.291 228.566V242.051L940.645 240.322V233.644L946.533 242.051H949.108L950.966 240.69H948.391Z" fill="#26224C"/>
<path d="M940.645 233.644V240.322L938.291 242.051H940.867L943.221 240.322V237.322L940.645 233.644Z" fill="#00CFFD"/>
<path d="M948.392 236.495V227.794H950.967V240.69H948.392L939.34 227.794H942.284L948.392 236.495Z" fill="#00CFFD"/>
<path d="M921.837 275.161L919.483 276.89V280.507L921.837 283.862V275.161Z" fill="#26224C"/>
<path d="M921.837 288.057L912.786 275.16L911.737 275.933V289.418L914.092 287.689V281.011L919.979 289.418H922.554L924.413 288.057H921.837Z" fill="#26224C"/>
<path d="M914.092 281.011V287.689L911.737 289.418H914.313L916.667 287.689V284.689L914.092 281.011Z" fill="#00CFFD"/>
<path d="M921.838 283.862V275.161H924.413V288.057H921.838L912.787 275.161H915.73L921.838 283.862Z" fill="#00CFFD"/>
<path d="M1127.82 159.142L1123.22 162.521V169.59L1127.82 176.146V159.142Z" fill="#26224C"/>
<path d="M1127.82 184.343L1110.13 159.142L1108.08 160.652V187.003L1112.68 183.624V170.574L1124.19 187.003H1129.22L1132.85 184.343H1127.82Z" fill="#26224C"/>
<path d="M1112.68 170.573V183.623L1108.08 187.002H1113.11L1117.71 183.623V177.761L1112.68 170.573Z" fill="#00CFFD"/>
<path d="M1127.82 176.146V159.142H1132.85V184.342H1127.82L1110.13 159.142H1115.88L1127.82 176.146Z" fill="#00CFFD"/>
<path d="M1123.25 123.88L1121.58 125.107V127.676L1123.25 130.058V123.88Z" fill="#26224C"/>
<path d="M1123.25 133.036L1116.82 123.88L1116.08 124.428V134.003L1117.75 132.775V128.033L1121.93 134.003H1123.76L1125.08 133.036H1123.25Z" fill="#26224C"/>
<path d="M1117.75 128.033V132.775L1116.08 134.003H1117.91L1119.58 132.775V130.645L1117.75 128.033Z" fill="#00CFFD"/>
<path d="M1123.25 130.058V123.88H1125.08V133.036H1123.25L1116.82 123.88H1118.91L1123.25 130.058Z" fill="#00CFFD"/>
<path d="M840.066 552.402L835.465 555.782V562.852L840.066 569.402V552.402Z" fill="#26224C"/>
<path d="M840.064 577.602L822.377 552.402L820.328 553.912V580.262L824.929 576.882V563.832L836.434 580.262H841.466L845.098 577.602H840.064Z" fill="#26224C"/>
<path d="M824.929 563.832V576.882L820.328 580.262H825.361L829.962 576.882V571.022L824.929 563.832Z" fill="#00CFFD"/>
<path d="M840.064 569.402V552.402H845.097V577.602H840.064L822.377 552.402H828.129L840.064 569.402Z" fill="#00CFFD"/>
<path d="M1083.05 261.226L1080.69 262.955V266.573L1083.05 269.928V261.226Z" fill="#26224C"/>
<path d="M1083.05 274.122L1074 261.226L1072.95 261.999V275.484L1075.3 273.754V267.076L1081.19 275.484H1083.77L1085.62 274.122H1083.05Z" fill="#26224C"/>
<path d="M1075.3 267.076V273.754L1072.95 275.484H1075.52L1077.88 273.754V270.754L1075.3 267.076Z" fill="#00CFFD"/>
<path d="M1083.05 269.928V261.226H1085.63V274.122H1083.05L1074 261.226H1076.94L1083.05 269.928Z" fill="#00CFFD"/>
<path d="M1024.03 271.676L1020.6 274.198V279.474L1024.03 284.367V271.676Z" fill="#26224C"/>
<path d="M1024.03 290.484L1010.83 271.676L1009.3 272.803V292.469L1012.74 289.947V280.208L1021.32 292.469H1025.08L1027.79 290.484H1024.03Z" fill="#26224C"/>
<path d="M1012.74 280.207V289.946L1009.3 292.468H1013.06L1016.49 289.946V285.571L1012.74 280.207Z" fill="#00CFFD"/>
<path d="M1024.03 284.367V271.676H1027.79V290.484H1024.03L1010.83 271.676H1015.13L1024.03 284.367Z" fill="#00CFFD"/>
<path d="M1016.57 342.277L1009.7 347.321V357.874L1016.57 367.66V342.277Z" fill="#26224C"/>
<path d="M1016.57 379.896L990.164 342.277L987.105 344.531V383.867L993.974 378.822V359.342L1011.15 383.867H1018.66L1024.08 379.896H1016.57Z" fill="#26224C"/>
<path d="M993.974 359.342V378.822L987.105 383.867H994.619L1001.49 378.822V370.071L993.974 359.342Z" fill="#00CFFD"/>
<path d="M1016.57 367.66V342.277H1024.08V379.896H1016.57L990.165 342.277H998.752L1016.57 367.66Z" fill="#00CFFD"/>
<path d="M1215.59 493.142L1210.58 496.822V504.532L1215.59 511.682V493.142Z" fill="#26224C"/>
<path d="M1215.59 520.612L1196.31 493.142L1194.08 494.792V523.512L1199.1 519.832V505.602L1211.64 523.512H1217.12L1221.08 520.612H1215.59Z" fill="#26224C"/>
<path d="M1199.1 505.602V519.822L1194.08 523.512H1199.57L1204.58 519.822V513.432L1199.1 505.602Z" fill="#00CFFD"/>
<path d="M1215.59 511.682V493.142H1221.08V520.612H1215.59L1196.31 493.142H1202.58L1215.59 511.682Z" fill="#00CFFD"/>
<path d="M1151.5 293.82L1149.14 295.549V299.167L1151.5 302.522V293.82Z" fill="#26224C"/>
<path d="M1151.49 306.716L1142.44 293.82L1141.39 294.593V308.078L1143.75 306.348V299.67L1149.64 308.078H1152.21L1154.07 306.716H1151.49Z" fill="#26224C"/>
<path d="M1143.75 299.67V306.348L1141.39 308.077H1143.97L1146.33 306.348V303.348L1143.75 299.67Z" fill="#00CFFD"/>
<path d="M1151.5 302.522V293.82H1154.07V306.716H1151.5L1142.44 293.82H1145.39L1151.5 302.522Z" fill="#00CFFD"/>
<path d="M1227 352.195L1224.64 353.924V357.542L1227 360.897V352.195Z" fill="#26224C"/>
<path d="M1227 365.091L1217.95 352.195L1216.9 352.968V366.452L1219.25 364.723V358.045L1225.14 366.452H1227.72L1229.57 365.091H1227Z" fill="#26224C"/>
<path d="M1219.25 358.046V364.724L1216.9 366.453H1219.47L1221.83 364.724V361.724L1219.25 358.046Z" fill="#00CFFD"/>
<path d="M1227 360.897V352.195H1229.58V365.091H1227L1217.95 352.195H1220.89L1227 360.897Z" fill="#00CFFD"/>
<path d="M1081.16 502.662L1078.81 504.392V508.012L1081.16 511.372V502.662Z" fill="#26224C"/>
<path d="M1081.16 515.562L1072.11 502.662L1071.06 503.442V516.922L1073.42 515.192V508.512L1079.3 516.922H1081.88L1083.74 515.562H1081.16Z" fill="#26224C"/>
<path d="M1073.42 508.512V515.192L1071.06 516.922H1073.64L1075.99 515.192V512.192L1073.42 508.512Z" fill="#00CFFD"/>
<path d="M1081.16 511.372V502.662H1083.74V515.562H1081.16L1072.11 502.662H1075.05L1081.16 511.372Z" fill="#00CFFD"/>
<path d="M1056.36 630.772L1052.46 633.632V639.622L1056.36 645.172V630.772Z" fill="#26224C"/>
<path d="M1056.36 652.112L1041.38 630.772L1039.64 632.052V654.362L1043.54 651.502V640.452L1053.28 654.362H1057.55L1060.62 652.112H1056.36Z" fill="#26224C"/>
<path d="M1043.54 640.452V651.502L1039.64 654.362H1043.9L1047.8 651.502V646.542L1043.54 640.452Z" fill="#00CFFD"/>
<path d="M1056.36 645.172V630.772H1060.62V652.112H1056.36L1041.38 630.772H1046.25L1056.36 645.172Z" fill="#00CFFD"/>
<path d="M1006.53 656.972L1004.17 658.702V662.312L1006.53 665.672V656.972Z" fill="#26224C"/>
<path d="M1006.53 669.862L997.474 656.972L996.425 657.742V671.222L998.78 669.492V662.822L1004.67 671.222H1007.24L1009.1 669.862H1006.53Z" fill="#26224C"/>
<path d="M998.78 662.822V669.492L996.425 671.222H999.001L1001.36 669.492V666.492L998.78 662.822Z" fill="#00CFFD"/>
<path d="M1006.53 665.672V656.972H1009.1V669.862H1006.53L997.475 656.972H1000.42L1006.53 665.672Z" fill="#00CFFD"/>
<path d="M1191.18 461.142L1188.83 462.872V466.492L1191.18 469.842V461.142Z" fill="#26224C"/>
<path d="M1191.18 474.042L1182.13 461.142L1181.08 461.912V475.402L1183.43 473.672V466.992L1189.32 475.402H1191.9L1193.76 474.042H1191.18Z" fill="#26224C"/>
<path d="M1183.43 466.992V473.672L1181.08 475.402H1183.66L1186.01 473.672V470.672L1183.43 466.992Z" fill="#00CFFD"/>
<path d="M1191.18 469.842V461.142H1193.76V474.042H1191.18L1182.13 461.142H1185.07L1191.18 469.842Z" fill="#00CFFD"/>
<path d="M1308.73 552.922L1305.44 555.342V560.412L1308.73 565.102V552.922Z" fill="#26224C"/>
<path d="M1308.73 570.972L1296.06 552.922L1294.6 554.002V572.882L1297.89 570.462V561.112L1306.13 572.882H1309.74L1312.34 570.972H1308.73Z" fill="#26224C"/>
<path d="M1297.89 561.112V570.462L1294.6 572.882H1298.2L1301.5 570.462V566.262L1297.89 561.112Z" fill="#00CFFD"/>
<path d="M1308.74 565.102V552.922H1312.34V570.972H1308.74L1296.06 552.922H1300.19L1308.74 565.102Z" fill="#00CFFD"/>
<path d="M1373.26 609.602L1370.91 611.332V614.952L1373.26 618.302V609.602Z" fill="#26224C"/>
<path d="M1373.26 622.502L1364.21 609.602L1363.16 610.372V623.862L1365.51 622.132V615.452L1371.4 623.862H1373.98L1375.84 622.502H1373.26Z" fill="#26224C"/>
<path d="M1365.51 615.452V622.132L1363.16 623.862H1365.74L1368.09 622.132V619.132L1365.51 615.452Z" fill="#00CFFD"/>
<path d="M1373.26 618.302V609.602H1375.84V622.502H1373.26L1364.21 609.602H1367.15L1373.26 618.302Z" fill="#00CFFD"/>
<path d="M1417.3 529.742L1412.98 532.912V539.542L1417.3 545.692V529.742Z" fill="#26224C"/>
<path d="M1417.3 553.372L1400.71 529.742L1398.79 531.162V555.872L1403.1 552.702V540.462L1413.89 555.872H1418.61L1422.02 553.372H1417.3Z" fill="#26224C"/>
<path d="M1403.1 540.462V552.702L1398.79 555.872H1403.51L1407.82 552.702V547.202L1403.1 540.462Z" fill="#00CFFD"/>
<path d="M1417.3 545.692V529.742H1422.02V553.372H1417.3L1400.71 529.742H1406.11L1417.3 545.692Z" fill="#00CFFD"/>
<path d="M1096.4 447.142L1090.84 451.232V459.782L1096.4 467.712V447.142Z" fill="#26224C"/>
<path d="M1096.4 477.632L1075 447.142L1072.52 448.972V480.852L1078.09 476.762V460.972L1092.01 480.852H1098.1L1102.49 477.632H1096.4Z" fill="#26224C"/>
<path d="M1078.09 460.972V476.762L1072.52 480.842H1078.61L1084.18 476.762V469.662L1078.09 460.972Z" fill="#00CFFD"/>
<path d="M1096.4 467.712V447.142H1102.49V477.632H1096.4L1075 447.142H1081.96L1096.4 467.712Z" fill="#00CFFD"/>
</g>
</g>
<defs>
<clipPath id="clip0_1_238">
<rect width="1567" height="773" fill="white"/>
</clipPath>
<clipPath id="clip1_1_238">
<rect width="1920" height="1080" fill="white" transform="translate(0 -307)"/>
</clipPath>
</defs>
</svg>
