<?xml version="1.0" standalone="no"?>
<!DOCTYPE svg PUBLIC "-//W3C//DTD SVG 20010904//EN"
 "http://www.w3.org/TR/2001/REC-SVG-20010904/DTD/svg10.dtd">
<svg version="1.0" xmlns="http://www.w3.org/2000/svg"
 width="627.000000pt" height="627.000000pt" viewBox="0 0 627.000000 627.000000"
 preserveAspectRatio="xMidYMid meet">
<metadata>
Created by potrace 1.11, written by Peter Selinger 2001-2013
</metadata>
<g transform="translate(0.000000,627.000000) scale(0.100000,-0.100000)"
fill="#000000" stroke="none">
<path d="M694 6187 c-60 -45 -158 -117 -217 -160 -59 -43 -112 -84 -119 -91
-11 -10 -13 -594 -13 -2972 l0 -2959 568 -1 568 -1 158 116 c87 64 170 125
185 136 15 11 51 37 79 58 29 21 63 47 77 57 106 79 251 185 280 206 19 13 62
44 95 69 33 25 81 59 107 77 26 17 48 39 50 47 2 9 4 303 3 654 0 350 3 637 6
637 4 0 32 -37 63 -82 32 -46 95 -137 142 -203 46 -66 92 -131 102 -145 9 -14
102 -146 206 -295 290 -413 313 -446 350 -500 19 -27 145 -207 280 -400 135
-192 251 -358 258 -369 7 -10 21 -28 30 -41 l17 -22 563 0 c492 -1 566 1 588
15 14 8 75 52 135 97 61 44 234 172 386 283 l276 202 0 2835 0 2835 -564 0
-564 0 -47 -32 c-26 -17 -49 -35 -52 -38 -3 -4 -30 -24 -60 -45 -82 -57 -314
-228 -320 -236 -3 -3 -23 -18 -45 -32 -36 -23 -417 -303 -487 -358 l-28 -21
-2 -791 -3 -790 -63 92 c-68 99 -266 380 -279 396 -4 6 -20 28 -35 50 -27 41
-626 896 -650 927 -7 10 -148 211 -313 447 l-300 430 -650 0 -650 1 -111 -83z"/>
</g>
</svg>
