<?xml version="1.0" encoding="UTF-8"?>
<!DOCTYPE svg PUBLIC "-//W3C//DTD SVG 1.1//EN" "http://www.w3.org/Graphics/SVG/1.1/DTD/svg11.dtd">
<svg version="1.1" xmlns="http://www.w3.org/2000/svg" xmlns:xlink="http://www.w3.org/1999/xlink" x="0" y="0" width="60" height="60" viewBox="0, 0, 60, 60">
  <g id="Purple" display="none">
    <g>
      <path d="M0.295,0.5 L60.295,0.5 L60.295,60.5 L0.295,60.5 L0.295,0.5 z" fill="#8A3FFC"/>
      <path d="M0.295,0.5 L60.295,0.5 L60.295,60.5 L0.295,60.5 L0.295,0.5 z" fill-opacity="0" stroke="#000000" stroke-width="1"/>
    </g>
    <text transform="matrix(1, 0, 0, 1, 29.795, 30)">
      <tspan x="-20.223" y="3.833" font-family="HelveticaNeue" font-size="14" fill="#FFFFFF">Purple</tspan>
    </text>
  </g>
  <g id="Green" display="none">
    <g>
      <path d="M0.295,0.5 L60.295,0.5 L60.295,60.5 L0.295,60.5 L0.295,0.5 z" fill="#35BA34"/>
      <path d="M0.295,0.5 L60.295,0.5 L60.295,60.5 L0.295,60.5 L0.295,0.5 z" fill-opacity="0" stroke="#000000" stroke-width="1"/>
    </g>
    <text transform="matrix(1, 0, 0, 1, 29.795, 30)">
      <tspan x="-18.928" y="3.833" font-family="HelveticaNeue" font-size="14" fill="#000000">Green</tspan>
    </text>
  </g>
  <g id="Yellow" display="none">
    <g>
      <path d="M0.295,0.5 L60.295,0.5 L60.295,60.5 L0.295,60.5 L0.295,0.5 z" fill="#F1C21B"/>
      <path d="M0.295,0.5 L60.295,0.5 L60.295,60.5 L0.295,60.5 L0.295,0.5 z" fill-opacity="0" stroke="#000000" stroke-width="1"/>
    </g>
    <text transform="matrix(1, 0, 0, 1, 29.795, 29.333)">
      <tspan x="-19.95" y="4.5" font-family="HelveticaNeue" font-size="14" fill="#000000">Yellow</tspan>
    </text>
  </g>
  <g id="Transparent_Underline" display="none">
    <g>
      <path d="M0.295,0.5 L60.295,0.5 L60.295,60.5 L0.295,60.5 L0.295,0.5 z" fill="#FFFFFF"/>
      <path d="M0.295,0.5 L60.295,0.5 L60.295,60.5 L0.295,60.5 L0.295,0.5 z" fill-opacity="0" stroke="#000000" stroke-width="1"/>
    </g>
    <text transform="matrix(1, 0, 0, 1, 30, 30)">
      <tspan x="-26.305" y="2.5" font-family="HelveticaNeue" font-size="10" fill="#000000">Transparent</tspan>
    </text>
    <path d="M4.207,38 L56.384,38" fill-opacity="0" stroke="#00CFFD" stroke-width="1"/>
  </g>
  <g id="Transparent_Underline_Kopieren">
    <g>
      <path d="M0.295,0.5 L60.295,0.5 L60.295,60.5 L0.295,60.5 L0.295,0.5 z" fill="#FFFFFF"/>
      <path d="M0.295,0.5 L60.295,0.5 L60.295,60.5 L0.295,60.5 L0.295,0.5 z" fill-opacity="0" stroke="#000000" stroke-width="1"/>
    </g>
    <text transform="matrix(1, 0, 0, 1, 29.795, 31.5)">
      <tspan x="-14.824" y="5" font-family="HelveticaNeue" font-size="16" fill="#000000">Link</tspan>
    </text>
    <path d="M15.407,39.79 L45.184,39.81" fill-opacity="0" stroke="#000000" stroke-width="1"/>
  </g>
</svg>
