<svg xmlns="http://www.w3.org/2000/svg" width="9" height="9">
    <g fill="#fff" opacity=".1">
        <path fill-opacity=".1" d="M7 1h1v1H7zM0 4h1v1H0zm4 1h1v1H4z"/>
        <path fill-opacity=".2" d="M8 4h1v1H8z"/>
        <path fill-opacity=".3" d="M6 8h1v1H6zm0-8h1v1H6zM2 3h1v1H2zm3 0h1v1H5zM1 6h1v1H1z"/>
        <path fill-opacity=".4" d="M0 0h1v1H0zm4 0h1v1H4zm2 2h1v1H6zm1 4h1v1H7zM0 7h1v1H0z"/>
        <path fill-opacity=".5" d="M6 6h1v1H6zm0-1h1v1H6zM3 0h1v1H3zm4 4h1v1H7z"/>
        <path fill-opacity=".6" d="M8 2h1v1H8zM6 3h1v1H6zM4 6h1v1H4zM1 8h1v1H1z"/>
        <path fill-opacity=".7" d="M3 8h1v1H3zM1 2h1v1H1zm3 5h1v1H4z"/>
        <path fill-opacity=".8" d="M5 6h1v1H5zm1-2h1v1H6zM3 5h1v1H3z"/>
        <path fill-opacity=".9" d="M7 2h1v1H7zM0 1h1v1H0zm3 0h1v1H3zm2 0h1v1H5zM0 2h1v1H0zm8 1h1v1H8zm0 2h1v1H8zM7 7h1v1H7zM1 7h1v1H1z"/>
        <path d="M3 3h1v1H3z"/>
    </g>
</svg>