<?xml version="1.0" encoding="utf-8"?>
<!DOCTYPE svg PUBLIC "-//W3C//DTD SVG 1.1//EN" "http://www.w3.org/Graphics/SVG/1.1/DTD/svg11.dtd">
<svg version="1.1" id="Ebene_1" xmlns="http://www.w3.org/2000/svg" xmlns:xlink="http://www.w3.org/1999/xlink" x="0px" y="0px"
	 width="100%" height="100%" viewBox="0 0 82.602 22.94" enable-background="new 0 0 82.602 22.94" xml:space="preserve">
		<path fill="#FF8700" d="M17.133,15.81c-0.34,0.1-0.611,0.134-0.967,0.134c-2.913,0-7.191-10.179-7.191-13.566
			c0-1.248,0.296-1.665,0.714-2.021C6.123,0.773,1.843,2.081,0.476,3.744C0.18,4.161,0,4.814,0,5.646
			c0,5.29,5.647,17.294,9.629,17.294C11.471,22.94,14.577,19.909,17.133,15.81L17.133,15.81z"/>
		<path fill="#FF8700" d="M15.274,0c3.685,0,7.37,0.595,7.37,2.674c0,4.22-2.674,9.332-4.041,9.332
			c-2.437,0-5.468-6.775-5.468-10.164C13.135,0.298,13.73,0,15.274,0z"/>

	<path fill="#FFFFFF" d="M30.473,7.662v5.758h5.206v1.759h-5.206v7.591h-2.096V5.902h7.902v1.76H30.473z"/>
	<path fill="#FFFFFF" d="M39.172,22.771V5.902h2.098v15.037h5.372v1.832H39.172z"/>
	<path fill="#FFFFFF" d="M52.884,22.939c-3.977,0-5.035-2.892-5.035-8.795c0-5.663,1.059-8.41,5.035-8.41
		c3.975,0,5.035,2.747,5.035,8.41C57.919,20.047,56.859,22.939,52.884,22.939z M52.884,7.494c-2.172,0-2.891,1.47-2.891,6.771
		c0,5.181,0.719,6.916,2.891,6.916c2.168,0,2.893-1.735,2.893-6.916C55.777,8.964,55.052,7.494,52.884,7.494z"/>
	<path fill="#FFFFFF" d="M71.175,22.771h-3.279l-1.613-7.326l-1.76,7.326h-3.131l-0.82-16.869h1.854l0.727,15.543l2.166-8.435h1.977
		l2.191,8.435l0.748-15.543h1.758L71.175,22.771z"/>
</svg>
