<?xml version="1.0" encoding="utf-8"?>
<!DOCTYPE svg PUBLIC "-//W3C//DTD SVG 1.1//EN" "http://www.w3.org/Graphics/SVG/1.1/DTD/svg11.dtd">
<svg version="1.1" id="Ebene_1" xmlns="http://www.w3.org/2000/svg" xmlns:xlink="http://www.w3.org/1999/xlink" x="0px" y="0px"
	 width="100%" height="100%" viewBox="0 0 82.602 22.941" enable-background="new 0 0 82.602 22.941" xml:space="preserve">
	<path fill="#FF8700" d="M17.133,15.81c-0.341,0.1-0.612,0.135-0.967,0.135c-2.913,0-7.191-10.18-7.191-13.567
			c0-1.248,0.296-1.664,0.712-2.021C6.122,0.772,1.843,2.081,0.475,3.745C0.178,4.161,0,4.815,0,5.646
			c0,5.29,5.646,17.295,9.628,17.295C11.471,22.941,14.578,19.91,17.133,15.81L17.133,15.81z"/>
		<path fill="#FF8700" d="M15.274,0c3.685,0,7.37,0.594,7.37,2.674c0,4.22-2.674,9.331-4.042,9.331
			c-2.437,0-5.468-6.774-5.468-10.163C13.135,0.297,13.729,0,15.274,0z"/>

	<path fill="#FFFFFF" d="M34.017,22.771L30.33,7.686v15.085h-1.952V5.903H31.8l3.711,15.085V5.903h1.952v16.868H34.017z"/>
	<path fill="#FFFFFF" d="M41.318,22.771V5.903h7.904v1.759h-5.807v5.519h5.205v1.759h-5.205v6.073h5.807v1.759H41.318z"/>
	<path fill="#FFFFFF" d="M57.031,22.94c-3.977,0-5.035-2.892-5.035-8.796c0-5.663,1.059-8.41,5.035-8.41s5.037,2.747,5.037,8.41
		C62.068,20.048,61.008,22.94,57.031,22.94z M57.031,7.493c-2.168,0-2.891,1.471-2.891,6.771c0,5.182,0.723,6.916,2.891,6.916
		c2.17,0,2.893-1.734,2.893-6.916C59.924,8.963,59.201,7.493,57.031,7.493z"/>
	<path fill="#FFFFFF" d="M67.805,22.94c-0.771,0-1.977-0.145-2.797-0.361v-1.76c0.748,0.193,1.736,0.361,3.037,0.361
		c1.662,0,2.385-0.964,2.385-2.964c0-2.337-0.65-3.012-1.951-3.277c-2.674-0.554-3.688-1.711-3.688-4.554
		c0-3.446,1.977-4.651,4.748-4.651c0.795,0,1.855,0.169,2.555,0.362v1.758c-0.82-0.192-1.953-0.361-2.795-0.361
		c-1.205,0-2.363,0.724-2.363,2.627c0,1.952,0.338,2.506,1.855,2.819c2.314,0.482,3.783,1.494,3.783,5.037
		C72.574,21.976,70.672,22.94,67.805,22.94z"/>
</svg>
