<?xml version="1.0" encoding="utf-8"?>
<!DOCTYPE svg PUBLIC "-//W3C//DTD SVG 1.1//EN" "http://www.w3.org/Graphics/SVG/1.1/DTD/svg11.dtd">
<svg version="1.1" id="Ebene_1" xmlns="http://www.w3.org/2000/svg" xmlns:xlink="http://www.w3.org/1999/xlink" x="0px" y="0px"
	 width="100%" height="100%" viewBox="0 0 82.592 22.941" enable-background="new 0 0 82.592 22.941" xml:space="preserve">
<path fill="#FFFFFF" d="M33.045,7.732v15.039h-2.097V7.732h-3.712V5.9h9.521v1.832H33.045z M44.293,14.938v7.833h-2.169v-7.833
	L37.81,5.9h2.313l3.182,6.821L46.487,5.9h2.193L44.293,14.938z M55.188,16.409h-2.025v6.362h-2.096V5.9c0,0,2.072-0.169,4.072-0.169
	c3.664,0,4.725,2.266,4.725,5.23C59.864,14.626,58.61,16.409,55.188,16.409z M55.428,7.468c-1.326,0-2.266,0.144-2.266,0.144v7.038
	h2.266c1.35,0,2.291-0.892,2.291-3.519C57.719,8.72,57.139,7.468,55.428,7.468z M67.432,22.94c-3.977,0-5.037-2.892-5.037-8.797
	c0-5.664,1.061-8.412,5.037-8.412s5.037,2.748,5.037,8.412C72.469,20.049,71.409,22.94,67.432,22.94z M67.432,7.491
	c-2.168,0-2.893,1.471-2.893,6.772c0,5.183,0.725,6.918,2.893,6.918c2.17,0,2.893-1.735,2.893-6.918
	C70.325,8.962,69.602,7.491,67.432,7.491z M78.52,22.94c-1.182,0-2.941-0.361-3.158-0.41v-1.759c0.578,0.12,2.072,0.37,3.133,0.37
	c1.23,0,2.025-1.045,2.025-2.9c0-2.193-0.361-3.351-2.072-3.351h-1.977v-1.76h1.734c1.953,0,2.049-2,2.049-2.964
	c0-1.905-0.602-2.676-1.807-2.676c-1.061,0-2.268,0.265-2.965,0.409V6.142c0.264-0.049,1.688-0.41,2.916-0.41
	c2.482,0,3.904,1.061,3.904,4.652c0,1.639-0.578,3.085-1.855,3.543c1.469,0.097,2.145,1.711,2.145,4.073
	C82.592,21.591,81.194,22.94,78.52,22.94z"/>

	<path fill="#FF8700" d="M17.134,15.81c-0.341,0.101-0.612,0.135-0.967,0.135c-2.913,0-7.192-10.18-7.192-13.567
		c0-1.248,0.296-1.664,0.713-2.021C6.122,0.772,1.843,2.08,0.475,3.744C0.178,4.16,0,4.814,0,5.646
		c0,5.29,5.646,17.296,9.629,17.296C11.471,22.941,14.579,19.91,17.134,15.81L17.134,15.81z"/>
	<path fill="#FF8700" d="M15.275,0c3.685,0,7.37,0.594,7.37,2.674c0,4.221-2.674,9.332-4.042,9.332
		c-2.437,0-5.468-6.775-5.468-10.164C13.136,0.297,13.73,0,15.275,0z"/>

</svg>
