<svg viewBox="0 0 24 24" fill="none" xmlns="http://www.w3.org/2000/svg"><path d="M18.416 3V4.27007H5.58389V3H18.416ZM17.1459 11.9781H14.562V18.4161H17.1459V11.9781ZM5.67148 19.7299V21H18.5036V19.7299H5.67148ZM4.27002 19.6423H5.54009V4.27007H4.27002V19.6423ZM6.85396 5.54015H17.1021V10.6642H6.85396V5.54015ZM8.12403 6.85401V9.39416H15.7883H15.8321V6.9854V6.81022H15.7883L8.12403 6.85401ZM6.85396 15.8759V18.4161H9.39411V15.8759H6.85396ZM6.85396 14.562H9.39411V11.9781H6.85396V14.562ZM13.2919 11.9781H10.708V14.6058H13.2919V11.9781ZM13.2919 18.4161V15.8759H10.7518V18.4161H13.2919ZM19.7299 4.27007H18.4598V19.6423H19.7299V4.27007Z" fill="currentColor"/></svg>
