<svg viewBox="0 0 24 24" fill="none" xmlns="http://www.w3.org/2000/svg"><path d="M12.6136 14.3V11.9273H14.9864V14.3H12.6136ZM16.2136 17.9409H18.5864V15.5273H16.2136V17.9409ZM18.5864 14.3V11.9273H16.2136V14.3H18.5864ZM6.6 5.87273V7.1H8.97273V5.87273H15.0273V7.1H17.4V5.87273H19.8136V4.68636H17.4V3.5H15.0273V4.68636H8.97273V3.5H6.6V4.68636H4.18636V5.87273H6.6ZM12.6136 17.9409H14.9864V15.5273H12.6136V17.9409ZM11.3864 14.3V11.9273H8.97273V14.3H11.3864ZM19.8136 5.91364V8.32727H4.18636V5.91364H3V19.0864H4.18636V9.47273H19.8136V19.0864H4.18636V20.3136H19.8136V19.1273H21V5.91364H19.8136ZM8.97273 17.9409H11.3864V15.5273H8.97273V17.9409ZM5.37273 17.9409H7.78636V15.5273H5.37273V17.9409ZM7.78636 14.3V11.9273H5.37273V14.3H7.78636Z" fill="currentColor"/></svg>
