<svg xmlns="http://www.w3.org/2000/svg" fill="none" viewBox="0 0 24 24"><path fill="currentColor" fill-rule="evenodd" d="M9.13636 17.7045H7.22727v-1.909h1.90909v1.909Zm1.90914 0H9.13636v-1.909h1.90914v1.909Zm1.909 0h-1.909v-1.909h1.909v1.909Zm1.9091 0h-1.9091v-1.909h1.9091v1.909Zm1.9091 0h-1.9091v-1.909h1.9091v1.909Zm1.9091 0h-1.9091v-1.909h1.9091v1.909Zm1.9091 0h-1.9091v-1.909h1.9091v1.909Zm0-5.7272h-1.9091v-1.9091h1.9091v1.9091Zm-1.9091-1.9091h-1.9091V8.15909h1.9091v1.90911Zm-1.9091 0h-1.9091V8.15909h1.9091v1.90911Zm-1.9091 1.9091h-1.9091v-1.9091h1.9091v1.9091Zm-1.9091 1.9091h-1.909v-1.9091h1.909v1.9091Zm0-3.8182h-1.909V8.15909h1.909v1.90911Zm-1.909-1.90911H9.13636V6.25h1.90914v1.90909Zm-1.90914 0H7.22727V6.25h1.90909v1.90909Zm-1.90909 0H5.31818V6.25h1.90909v1.90909ZM5.31818 10.0682H3.40909V8.15909h1.90909v1.90911Zm-1.90909 1.9091H1.5v-1.9091h1.90909v1.9091Zm0 1.9091H1.5v-1.9091h1.90909v1.9091Zm0 1.9091H1.5v-1.9091h1.90909v1.9091Zm1.90909 1.909H3.40909v-1.909h1.90909v1.909Zm1.90909 0H5.31818v-1.909h1.90909v1.909ZM22.5 13.8864h-1.9091v-1.9091H22.5v1.9091Zm0 1.9091h-1.9091v-1.9091H22.5v1.9091Z" clip-rule="evenodd"/></svg>
