<svg xmlns="http://www.w3.org/2000/svg" fill="none" viewBox="0 0 24 24"><path fill="currentColor" d="M17.0002 3H7.00049v1.99993h9.99971V3Zm0 15.9995H7.00049v1.9999h9.99971v-1.9999ZM7.00042 5.02692H5.00049v1.99993h1.99993V5.02692ZM13.0087 13.007h-1.9999v1.9999h1.9999V13.007Zm-1.9995 2.008H9.00928v1.9999h1.99992V15.015Zm1.9995-5.99986h-1.9999v1.99996h1.9999V9.01514ZM11.0092 7.0152H9.00928v1.99993h1.99992V7.0152Zm3.9995 3.9918h-1.9999v2h1.9999v-2Zm-8.00828 5.9925H5.00049v1.9999h1.99993v-1.9999Zm11.99998 0h-1.9999v1.9999h1.9999v-1.9999Zm0-11.97258h-1.9999v1.99993h1.9999V5.02692Zm2 1.97296h-1.9999V17.0052h1.9999V6.99988Z"/><path fill="currentColor" d="M5.00048 6.99988H3.00055c.0019 3.33512-.0019 6.66452 0 9.99972h1.99993c-.0019-3.3352.0019-6.6646 0-9.99972Z"/></svg>
