<svg xmlns="http://www.w3.org/2000/svg" fill="none" viewBox="0 0 24 24"><path fill="currentColor" d="M17.5535 19.7778H6.44238V22H17.5535v-2.2222Zm-2.2223-4.4445H8.66455v2.2222h6.66665v-2.2222Zm0-4.4444H8.66455v2.2222h6.66665v-2.2222Zm0-4.44444H8.66455v2.22222h6.66665V6.44446ZM17.5535 2H6.44238v2.22222H17.5535V2Z"/><path fill="#000" d="M6.44306 4.2157H4.22082c.00212 5.187-.00211 10.3651 0 15.5521h2.22224c-.00212-5.187.00211-10.3651 0-15.5521Zm13.33154.01001h-2.2222c.0021 5.187-.0021 10.36519 0 15.55219h2.2222c-.0021-5.187.0021-10.36519 0-15.55219Z"/></svg>
