<svg xmlns="http://www.w3.org/2000/svg" fill="none" viewBox="0 0 24 24"><path fill="currentColor" d="M18.911 14.267h1.5707v1.5183H18.911V14.267ZM8.17801 17.3037v1.5706h7.69629v-1.5706H8.17801ZM2 14.2147h1.51832V9.60733H2v4.60737Zm1.51832-4.60737h1.51833V8.08901H3.51832v1.51832Zm1.57069 6.17797v1.5184h3.03664v-1.5184H5.08901Zm-1.57069 0h1.51833V14.267H3.51832v1.5183ZM18.911 8.08901v1.51832h1.5707V8.08901H18.911ZM22 9.60733h-1.5183v4.60737H22V9.60733ZM8.17801 5v1.57068H15.822V5H8.17801ZM15.822 6.57068v1.51833h3.089V6.57068h-3.089Zm-10.73299 0v1.51833h3.03664V6.57068H5.08901Zm9.21469 1.51833v1.51832h1.5183v4.60737h-1.5183v1.5706H9.69634v-1.5706H8.12565V9.60733h1.57069V8.08901h4.60736ZM12.7853 11.178v-.0523h-1.5706v1.5706h1.5706V11.178Zm3.089 4.6073v1.5184h3.0891v-1.5184h-3.0891Z"/></svg>
