<svg xmlns="http://www.w3.org/2000/svg" fill="none" viewBox="0 0 24 24"><path fill="currentColor" d="M12 3.22205c4.9725 0 9 4.0275 9 8.99995-.0005 1.8858-.5923 3.7239-1.6922 5.2556-1.0999 1.5318-2.6524 2.68-4.4391 3.2832-.45.09-.6187-.1913-.6187-.4275 0-.3038.0113-1.2713.0113-2.475 0-.8438-.2813-1.3838-.6075-1.665 2.0024-.225 4.1062-.99 4.1062-4.4438 0-.99-.3487-1.78871-.9225-2.4187.09-.22501.405-1.1475-.09-2.385 0 0-.7537-.2475-2.475.9225-.72-.2025-1.485-.30375-2.25-.30375-.765 0-1.53.10125-2.25.30375-1.72125-1.15875-2.475-.9225-2.475-.9225-.495 1.2375-.18 2.15999-.09 2.385-.57375.62999-.9225 1.44-.9225 2.4187 0 3.4425 2.0925 4.2188 4.095 4.4438-.2587.225-.495.6187-.57375 1.2037-.5175.2363-1.81125.6188-2.62125-.7425-.16875-.27-.675-.9337-1.38375-.9225-.75375.0113-.30375.4275.01125.5963.3825.2137.82125 1.0125.9225 1.2712.18.5063.765 1.4738 3.02625 1.0575 0 .7538.01125 1.4625.01125 1.6763 0 .2362-.16875.5062-.61875.4275-1.79253-.5967-3.35167-1.7426-4.45625-3.2753C3.59293 15.9528 2.99901 14.1113 3 12.222c0-4.97245 4.0275-8.99995 9-8.99995Z"/></svg>
