<svg viewBox="0 0 24 24" fill="currentColor" xmlns="http://www.w3.org/2000/svg"><path d="M6.9997 16.9979H5V18.9976H6.9997V16.9979Z"/><path d="M20.9978 11.0291V6.99939H18.9981V5.02669H16.9984V7.02236H15.0009V4.9997H16.9984V3H6.99994V4.9997H9.00183V7.02236H7.00617V11.0291H5.00024C5.00058 9.6952 5.001 8.36137 5.00024 7.02639H6.99994V5.02669H5.00024V6.99939H3.00054C3.00245 10.3341 2.99865 13.6631 3.00054 16.9979H5.00024C4.99948 15.6741 4.99991 14.3515 5.00024 13.0288H7.00617V17.0168H9.00183V18.9976H6.99994V20.9973H16.9984V18.9976H15.0009V17.0168H13.0012V18.9976H11.0015V17.0168H9.00587V13.0288H15.0009V17.0168H16.9984V18.9976H18.9981V17.0036H20.9978V13.0288H21V11.0291H20.9978ZM15.0009 11.0291H9.00587V7.02639H11.0015V4.9997H13.0012V7.02639H15.0009V11.0291ZM18.9981 16.9979H17.0006V13.0288H18.9981V16.9979ZM18.9981 11.0291H17.0006V7.02639H18.9981V11.0291Z"/></svg>
