<svg viewBox="0 0 24 24" fill="currentColor" xmlns="http://www.w3.org/2000/svg"><path d="M16.9999 3H7.00049V4.99989H16.9999V3Z"/><path d="M6.99915 10.9968V12.9959H5.00044C5.00092 11.0068 5.00137 9.01761 5.00044 7.02681H7.00033V5.02692H5.00044V6.99981H3.00055C3.00244 11.001 2.99865 14.9952 3.00055 18.9964H3.00099V18.9991H5.00088V20.9979H11.0006V10.9968H6.99915ZM9.00066 18.998H7.00033V16.9993H5.00044C5.00038 16.3314 5.00034 15.6635 5.00044 14.9958H6.99996V12.9967H9.00066V18.998Z"/><path d="M20.9996 6.99981H18.9997V5.02692H16.9998V7.02681H18.9997V12.9967H17.0003V14.9966H18.9997V16.9993H16.9998V18.9964H15.0004V12.9967H17.0003V10.9968H13.0005V20.9963H19.0002V18.9991H21L20.9996 6.99981Z"/></svg>
