<svg xmlns="http://www.w3.org/2000/svg" fill="none" viewBox="0 0 24 24"><path fill="currentColor" d="M4.22795 8.17099V6.09845H2V12.342h2.22795V8.17099Zm4.43006-2.07254H10.886V4H4.22803v2.09845h4.42998ZM6.45597 12.342H4.22803v2.0725h2.22794V12.342Zm6.65823-6.24355h-2.228v2.09844h2.228V6.09845Zm0 12.51295h-2.228v2.0725h2.228v-2.0725Zm4.4555-12.51295h2.202V4h-6.6579v2.09845h4.4559Zm.0005 8.34195h-2.2279v2.0726h2.2279v-2.0726Zm2.2276-2.0984h-2.228v2.0725h2.228V12.342Zm-.0258-6.24355V12.342h2.2279V6.09845H19.772ZM15.3417 16.5129h-2.2279v2.0985h2.2279v-2.0985Zm-6.68358-2.0725H6.43018v2.0726h2.22794v-2.0726Zm2.22798 2.0725H8.6582v2.0985h2.2279v-2.0985Z"/></svg>
