<svg xmlns="http://www.w3.org/2000/svg" fill="none" viewBox="0 0 24 24"><path fill="currentColor" d="M11.0556 19.5H3.5v1.8835h7.5556V19.5Zm9.4443.0054h-7.5556v1.8835h7.5556v-1.8835ZM12.9502 4.38888v1.88889h1.8835V4.38888h-1.8835Zm1.8887 1.88892v1.88889h1.8835V6.2778h-1.8835Zm1.8886 1.88885v1.88885h1.8835V8.16665h-1.8835ZM7.2832 6.2778v1.88889h1.88351V6.2778H7.2832ZM5.38867 8.15707V10.046h1.88351V8.15707H5.38867ZM3.50244 10.046v1.8889h1.88351V10.046H3.50244Zm15.11086 0v1.8889h1.8835V10.046h-1.8835ZM11.061 2.50003v1.88889h1.8835V2.50003H11.061ZM9.1665 15.7127v1.8889h1.8889v-1.8889H9.1665Zm0-1.8889v1.8888h5.6667v-1.8888H9.1665Zm3.7778 1.8889v1.8889h1.8889v-1.8889h-1.8889ZM9.17236 4.38888v1.88889h1.88354V4.38888H9.17236Z"/><path fill="#000" d="M5.38889 10.046H3.5v9.6333h1.88889V10.046Zm5.66651 7.5556H9.1665v2.0777h1.8889v-2.0777Zm3.7778 0h-1.8889v2.0777h1.8889v-2.0777Zm5.667-7.5556h-1.8889v9.6333h1.8889V10.046Z"/></svg>
