<svg viewBox="0 0 24 24" fill="none" xmlns="http://www.w3.org/2000/svg"><path d="M12.019 7.61719C14.4096 7.61719 16.3828 9.5904 16.3828 11.981C16.3828 14.4096 14.4096 16.3449 12.019 16.3449C9.5904 16.3449 7.65513 14.4096 7.65513 11.981C7.65513 9.5904 9.5904 7.61719 12.019 7.61719ZM12.019 14.827C13.5748 14.827 14.827 13.5748 14.827 11.981C14.827 10.4252 13.5748 9.17299 12.019 9.17299C10.4252 9.17299 9.17299 10.4252 9.17299 11.981C9.17299 13.5748 10.4632 14.827 12.019 14.827ZM17.5592 7.4654C17.5592 8.0346 17.1038 8.48996 16.5346 8.48996C15.9654 8.48996 15.51 8.0346 15.51 7.4654C15.51 6.89621 15.9654 6.44085 16.5346 6.44085C17.1038 6.44085 17.5592 6.89621 17.5592 7.4654ZM20.4431 8.48996C20.519 9.89397 20.519 14.106 20.4431 15.51C20.3672 16.8761 20.0636 18.0525 19.077 19.077C18.0904 20.0636 16.8761 20.3672 15.51 20.4431C14.106 20.519 9.89397 20.519 8.48996 20.4431C7.12388 20.3672 5.94754 20.0636 4.92299 19.077C3.93638 18.0525 3.63281 16.8761 3.55692 15.51C3.48103 14.106 3.48103 9.89397 3.55692 8.48996C3.63281 7.12388 3.93638 5.9096 4.92299 4.92299C5.94754 3.93638 7.12388 3.63281 8.48996 3.55692C9.89397 3.48103 14.106 3.48103 15.51 3.55692C16.8761 3.63281 18.0904 3.93638 19.077 4.92299C20.0636 5.9096 20.3672 7.12388 20.4431 8.48996ZM18.6217 16.99C19.077 15.8895 18.9632 13.2333 18.9632 11.981C18.9632 10.7667 19.077 8.11049 18.6217 6.9721C18.3181 6.25112 17.7489 5.64397 17.0279 5.37835C15.8895 4.92299 13.2333 5.03683 12.019 5.03683C10.7667 5.03683 8.11049 4.92299 7.01004 5.37835C6.25112 5.68192 5.68192 6.25112 5.37835 6.9721C4.92299 8.11049 5.03683 10.7667 5.03683 11.981C5.03683 13.2333 4.92299 15.8895 5.37835 16.99C5.68192 17.7489 6.25112 18.3181 7.01004 18.6217C8.11049 19.077 10.7667 18.9632 12.019 18.9632C13.2333 18.9632 15.8895 19.077 17.0279 18.6217C17.7489 18.3181 18.356 17.7489 18.6217 16.99Z" fill="currentColor"/></svg>
