<svg xmlns="http://www.w3.org/2000/svg" fill="none" viewBox="0 0 19 19">
    <path fill="currentColor" d="M10 4.7c2.5 0 4.5 2.1 4.5 4.6A4.6 4.6 0 1 1 10 4.7Zm0 7.6a3 3 0 0 0 2.9-3 3 3 0 0 0-3-3 3 3 0 0 0-3 3 3 3 0 0 0 3 3Zm5.8-7.7c0 .6-.5 1-1.1 1a1 1 0 0 1-1-1c0-.6.4-1.1 1-1.1s1 .5 1 1Zm3 1V13c0 1.5-.4 2.7-1.4 3.8-1 1-2.3 1.4-3.8 1.4H6.2c-1.4 0-2.6-.4-3.7-1.4-1-1-1.4-2.3-1.5-3.8V5.7c.1-1.5.4-2.8 1.5-3.8C3.5 1 4.8.5 6.2.5h7.4c1.5 0 2.7.4 3.8 1.4 1 1 1.3 2.3 1.4 3.8Zm-2 9c.6-1.2.5-4 .5-5.3 0-1.2 0-4-.4-5.2a3 3 0 0 0-1.7-1.7C14 1.9 11.2 2 10 2c-1.3 0-4 0-5.2.4A3 3 0 0 0 3 4c-.5 1.2-.4 4-.4 5.2 0 1.4-.1 4.1.4 5.3a3 3 0 0 0 1.7 1.7c1.1.5 4 .4 5.2.4 1.3 0 4.1.1 5.3-.4a3 3 0 0 0 1.7-1.7Z"/>
</svg>
