<svg viewBox="0 0 24 24" fill="none" xmlns="http://www.w3.org/2000/svg"><path d="M7.01786 20.9798H3.28125V8.96645H7.01786V20.9798ZM5.12946 7.35931C3.96429 7.35931 3 6.35484 3 5.14948C3 3.98431 3.96429 3.02002 5.12946 3.02002C6.33482 3.02002 7.29911 3.98431 7.29911 5.14948C7.29911 6.35484 6.33482 7.35931 5.12946 7.35931ZM17.2634 20.9798V15.1539C17.2634 13.7477 17.2232 11.9798 15.2946 11.9798C13.3661 11.9798 13.0848 13.4664 13.0848 15.0334V20.9798H9.34821V8.96645H12.9241V10.6138H12.9643C13.4866 9.68966 14.692 8.6852 16.5 8.6852C20.2768 8.6852 21 11.1763 21 14.3906V20.9798H17.2634Z" fill="currentColor"/></svg>
