<svg xmlns="http://www.w3.org/2000/svg" fill="currentColor" viewBox="0 0 24 29"><path d="M15.2065 15.928h2.1429v-2.1429h-2.1429v2.1429Zm0-10.71588h2.1429v2.14286h-2.1429V5.21212Z"/><path d="M13.064 18.0705h2.1428v-2.1428H13.064v2.1428Zm0-15.00095h2.1428V5.2124H13.064V3.06955ZM8.77881 15.9277v2.1428h2.14289v-2.1428H8.77881Zm0-10.7153V3.06955h2.14289V5.2124H8.77881Z"/><path d="M8.77909 15.928v-2.1429H6.63623v2.1429h2.14286Zm0-10.71588v2.14286H6.63623V5.21212h2.14286Z"/><path d="M6.63651 13.7854v-2.1429H4.49365v2.1429h2.14286Zm0-6.4307v2.14286H4.49365V7.3547h2.14286ZM19.492 13.7854v-2.1429h-2.1429v2.1429h2.1429Zm0-6.4307v2.14286h-2.1429V7.3547h2.1429Zm-8.5706 12.8604h2.1428v-2.1429h-2.1428v2.1429Zm0-19.290086h2.1428V3.06787h-2.1428V.925014Z"/><path d="M4.49344 9.49841H2.35059V24.4984H21.6363V9.49841h-2.1456v2.14289h.0027v10.7143H4.49344V9.49841Z"/></svg>
