<svg xmlns="http://www.w3.org/2000/svg" fill="none" viewBox="0 0 21 22">
    <path fill="currentColor" fill-rule="evenodd"
          d="M15.7.3c2.5.3 4.5 2.2 4.9 4.6v4.5a24.7 24.7 0 0 0 0 2c-.3 3.5-2.4 4.8-4.6 5.2a26.9 26.9 0 0 1-9.7 0c0 .4.1.9.3 1.3.2.5.8 1.7 3.3 1.7a18.3 18.3 0 0 0 4.4-.5v1.7l-1.6.7-.8.2a12 12 0 0 1-6.6-.3c-2-.7-4-2.5-4.5-4.5l-.5-3.4C0 12.3 0 11 0 9.8V8.4c0-1.2 0-2.5.2-3.7A6 6 0 0 1 5.5.3C6 .2 6.9 0 10 0c3.7 0 5.2.2 5.6.3Zm1.4 13.1V7.5c0-1.2-.3-2.1-1-2.8a3.1 3.1 0 0 0-2.5-1.1A3 3 0 0 0 11 5l-.6 1-.6-1a3 3 0 0 0-2.7-1.4c-1 0-1.8.4-2.5 1-.6.8-.9 1.7-.9 3v5.8H6V7.7c0-1.2.5-1.8 1.5-1.8 1.2 0 1.7.7 1.7 2.1v3.2h2.3V8c0-1.4.6-2.1 1.7-2.1 1 0 1.5.6 1.5 1.8v5.7h2.4Z"
          clip-rule="evenodd"/>
</svg>
