<svg xmlns="http://www.w3.org/2000/svg" fill="none" viewBox="0 0 24 24"><path fill="currentColor" fill-rule="evenodd" d="M16.4339 3.23153c1.9981.29534 3.6838 1.81948 3.944 3.75351.1133 1.15033.0572 2.87873.0299 3.71886-.0068.2091-.0118.3632-.0119.4396 0 .1129-.0164 1.1437-.0229 1.2525-.1751 2.7636-1.8984 3.855-3.7092 4.2027-.0195.0058-.0417.0101-.0644.0146-.0058.0011-.0116.0022-.0174.0034-1.148.2241-2.3779.2838-3.5447.3166-.279.0073-.5572.0073-.8362.0073-1.1602.0004-2.31631-.1369-3.44408-.409-.00599-.0015-.01224-.0017-.01828-.0004-.00604.0013-.01166.0041-.01645.008-.00479.0039-.00859.0089-.01108.0145-.00249.0057-.00363.0118-.00329.018.03187.3671.11165.7285.23729 1.075.15627.4009.70206 1.3638 2.73129 1.3638 1.1792.0021 2.3545-.1352 3.5014-.4091.0058-.0013.0118-.0013.0177 0 .0058.0013.0113.0038.016.0075.0047.0037.0085.0084.0112.0138.0026.0053.0041.0112.0042.0172v1.3564c-.0003.0064-.0019.0127-.0049.0183-.003.0057-.0072.0106-.0123.0144-.3586.2599-.8408.4127-1.2631.5465-.019.006-.038.012-.0568.018-.192.0606-.3865.1137-.5834.1595-1.7901.4077-3.65835.3092-5.39557-.2847-1.6226-.5694-3.27876-1.9651-3.68788-3.6422-.21849-.9081-.37244-1.8305-.46068-2.7603-.09273-1.0168-.12371-2.0353-.15473-3.0553-.01169-.3841-.02338-.7685-.03838-1.15308-.03846-.98008-.01637-2.04854.19065-3.01229.43041-1.95692 2.20438-3.32645 4.14692-3.6136.03993-.00591.08403-.01367.13567-.02276C8.42696 3.14115 9.22942 3 11.8386 3h.0221c2.9588 0 4.2361.18162 4.5732.23153ZM17.509 13.9628V9.15801c.0005-.98228-.2496-1.76223-.7504-2.33981-.5187-.57677-1.1971-.87292-2.0382-.87292-.973 0-1.7094.37468-2.2003 1.12326l-.4746.79521-.4738-.79521c-.491-.74858-1.2274-1.12326-2.20192-1.12326-.84199 0-1.52031.29615-2.03746.87292-.50132.57813-.75199 1.35806-.75199 2.33981v4.80479H8.4836V9.29954c0-.98174.41322-1.48242 1.24047-1.48242.91483 0 1.37383.59231 1.37383 1.76223v2.55255h1.8927V9.57935c0-1.16992.4582-1.76223 1.373-1.76223.8322 0 1.2413.50068 1.2413 1.48242v4.66326h1.9041Z" clip-rule="evenodd"/></svg>
