<svg xmlns="http://www.w3.org/2000/svg" viewBox="0 0 453.5 124.5"><defs><style>.cls-1{fill:#fff}</style></defs><g id="Ebene_2" data-name="Ebene 2"><g id="Layer_1" data-name="Layer 1"><path d="m410.7 86 5-5.5a25 25 0 0 0 18 7.5c6.8 0 11.5-3.4 11.5-8.5 0-4.5-2.5-6.9-13.4-9.6-12.7-3.3-19.1-7.6-19.1-16.5 0-9.2 8.4-15.5 19.3-15.5 8 0 14 2.6 19.7 7.1l-4.6 6a23.2 23.2 0 0 0-15.2-6c-6.1 0-10.9 3-10.9 7.9 0 4.5 3 7 14.3 9.9 12.2 2.9 18.2 7.7 18.2 16.3 0 10-8.6 16.1-19.8 16.1a33 33 0 0 1-23-9.2Zm-82.9-19.5c0-15.6 12.1-28.6 29-28.6s29 13 29 28.6-12.2 28.7-29 28.7-29-13-29-28.7Zm49.7 0c0-12-8.5-21.3-20.7-21.3s-20.7 9.2-20.7 21.3 8.6 21.3 20.7 21.3 20.7-9.1 20.7-21.3Zm-74.9-27.7V46h-32.8v16.7H299V70h-29.2v17H303v7.3h-41.1V38.8Zm-111.6 0 32.5 41v-41h8v55.5h-6.7l-33.3-42v42h-8V38.8Z" class="cls-1"/><path fill="#009fe3" d="M88.8 0 68.1 15.1v31.6L88.8 76V0zm0 112.6L9.2 0 0 6.7v117.8l20.7-15.2V51.1l51.8 73.4h22.6l16.4-11.9H88.8z"/><path d="M20.7 51.1v58.2L0 124.5h22.6l20.8-15.2V83.2L20.7 51.1zM88.8 76V0h22.7v112.6H88.8L9.2 0h25.9l53.7 76z" class="cls-1"/></g></g></svg>