<svg xmlns="http://www.w3.org/2000/svg" fill="none" viewBox="0 0 24 24"><path fill="currentColor" fill-rule="evenodd" d="M12.0009 6.31814c-1.9408 0-3.51329 1.6038-3.51329 3.57967 0 1.97589 1.57249 3.57969 3.51329 3.57969s3.5133-1.6038 3.5133-3.57969c0-1.97587-1.5725-3.57967-3.5133-3.57967Zm0 5.53096c-1.0215 0-1.8849-.8717-1.8849-1.95129 0-1.08132.843-1.95128 1.8849-1.95128s1.8849.86996 1.8849 1.95128c0 1.07959-.8634 1.95129-1.8849 1.95129Z" clip-rule="evenodd"/><path fill="currentColor" fill-rule="evenodd" d="M18.7732 12.84c.3422-.958.5041-1.9453.435-2.9372C18.956 6.03212 15.7939 3 12.0008 3 8.20775 3 5.04569 6.03212 4.79345 9.9028c-.06885.988.06916 1.9769.43662 2.9417.34358.916.8917 1.8065 1.62073 2.5822l4.5304 5.2818c.1616.1929.3901.2915.6196.2915.2296 0 .4581-.0986.6196-.2914l4.5317-5.2833c.7261-.7949 1.2752-1.6626 1.6198-2.5814l.0013-.0039Zm-1.1919-2.8095c.0631.7573-.0418 1.5154-.3164 2.2547l-.0015.004c-.2804.7946-.7685 1.4877-1.3376 2.1013l-3.9245 4.5541-4.00163-4.6581c-.58429-.6333-1.01439-1.2991-1.2606-2.0172l-.0023-.0062c-.27446-.7389-.38029-1.499-.33811-2.2608.17052-2.65576 2.33764-5.39603 5.58004-5.39603 3.2436 0 5.4322 2.74179 5.6022 5.41913l.0004.0051Z" clip-rule="evenodd"/></svg>
