<svg xmlns="http://www.w3.org/2000/svg" fill="none" viewBox="0 0 24 24"><path fill="currentColor" d="M17.0002 3H7.00049v1.99993h9.99971V3Zm0 15.9995H7.00049v1.9999h9.99971v-1.9999ZM7.00042 5.02692H5.00049v1.99993h1.99993V5.02692Zm0 11.97258H5.00049v1.9999h1.99993v-1.9999Zm11.99998 0h-1.9999v1.9999h1.9999v-1.9999Zm0-11.97258h-1.9999v1.99993h1.9999V5.02692Zm2 1.97296h-1.9999V17.0052h1.9999V6.99988Z"/><path fill="currentColor" d="M5.00048 6.99988H3.00055c.0019 3.33512-.0019 6.66452 0 9.99972h1.99993c-.0019-3.3352.0019-6.6646 0-9.99972ZM16.9919 11.0301H12.992V7.03149h-1.9999v3.99861H6.99219V13.03h3.99991v3.9999h1.9999V13.03h3.9999v-1.9999Z"/></svg>
