<svg xmlns="http://www.w3.org/2000/svg" fill="none" viewBox="0 0 24 24"><path fill="currentColor" d="M11 5.00007h2V3H7v2.00007h4Zm4.0005 2.00031V5.00031h-2v2.00007h2ZM15 15.0004v2.0001h2v-2.0001h-2Z"/><path fill="currentColor" d="M13.0005 13.0005v2.0001h2v-2.0001h-2ZM15 11.0001v2.0001h2V6.99994h-2v4.00016ZM7.00049 5.00031h-2v2.00007h2V5.00031ZM17 17.0003v2.0001h2v-2.0001h-2Z"/><path fill="currentColor" d="M18.9995 19.0001v2h2v-2h-2ZM9 15.0004H7v2.0001h6v-2.0001H9ZM5.00001 9.00001V6.99994H3v6.00026h2.00001V9.00001Z"/><path fill="currentColor" d="M5.00049 13.0005v2.0001h2v-2.0001h-2Z"/></svg>
