<svg xmlns="http://www.w3.org/2000/svg" fill="none" viewBox="0 0 24 24"><path fill="currentColor" d="M6.79458 14.3698c0 1.0454-.84487 1.8902-1.89021 1.8902s-1.89021-.8448-1.89021-1.8902c0-1.0453.84487-1.8902 1.89021-1.8902h1.89021v1.8902Zm.9451 0c0-1.0453.84486-1.8902 1.89021-1.8902 1.04531 0 1.89021.8449 1.89021 1.8902v4.7255c0 1.0454-.8449 1.8902-1.89021 1.8902-1.04535 0-1.89021-.8448-1.89021-1.8902v-4.7255Zm1.89037-7.58939c-1.04535 0-1.89021-.84486-1.89021-1.89021C7.73984 3.84486 8.5847 3 9.63005 3s1.89025.84486 1.89025 1.8902v1.89021H9.63005Zm0 .95942c1.04535 0 1.89025.84487 1.89025 1.89021 0 1.04536-.8449 1.89016-1.89025 1.89016H4.89021C3.84487 11.5202 3 10.6754 3 9.63004c0-1.04534.84487-1.89021 1.89021-1.89021h4.73984Zm7.57545 1.89021c0-1.04534.8449-1.89021 1.8902-1.89021 1.0453 0 1.8902.84487 1.8902 1.89021 0 1.04536-.8449 1.89016-1.8902 1.89016h-1.8902V9.63004Zm-.9451 0c0 1.04536-.8449 1.89016-1.8902 1.89016-1.0454 0-1.8902-.8448-1.8902-1.89016V4.8902C12.48 3.84486 13.3248 3 14.3702 3c1.0453 0 1.8902.84486 1.8902 1.8902v4.73984Zm-1.8902 7.57506c1.0453 0 1.8902.8449 1.8902 1.8902 0 1.0454-.8449 1.8902-1.8902 1.8902-1.0454 0-1.8902-.8448-1.8902-1.8902v-1.8902h1.8902Zm0-.9451c-1.0454 0-1.8902-.8448-1.8902-1.8902 0-1.0453.8448-1.8902 1.8902-1.8902H19.11c1.0454 0 1.8902.8449 1.8902 1.8902 0 1.0454-.8448 1.8902-1.8902 1.8902h-4.7398Z"/></svg>
