<svg xmlns="http://www.w3.org/2000/svg" fill="none" viewBox="0 0 24 24"><path fill="currentColor" d="M17 3H7v2h10V3Zm.02 16.0026H7.02002v2H17.02v-2Zm-9.99998-2h-2v2h2v-2Zm0-12.0026h-2v2h2V5Zm7.99858 10.0295H9.01855v2h6.00005v-2Zm4.0019 1.9731h-2v2h2v-2Zm0-12.0026h-2v2h2V5ZM21 7h-2v10h2V7ZM4.99945 7h-1.9989c.0019 3.3352-.0019 6.6648 0 10h1.9989c-.0019-3.3352.0019-6.6648 0-10Zm6.01915.02954H9.01855v3.99876h2.00005V7.02954Zm3.9995.00128h-2v3.99878h2V7.03082ZM9.01807 13.0295h-2v2h2v-2Zm8.00003 0h-2v2h2v-2Z"/></svg>
