<svg xmlns="http://www.w3.org/2000/svg" fill="none" viewBox="0 0 24 24"><path fill="currentColor" fill-rule="evenodd" d="m3.93066 18.6247.02504-.1985c.50687-4.0199 3.92795-7.0937 8.0478-7.0937 4.1355 0 7.6024 3.1425 8.0503 7.117C20.209 19.8268 19.148 21 17.7838 21H6.22322c-1.3282 0-2.34922-1.1214-2.28617-2.3753h-.00639Zm14.57894-.0024-.0002-.0013c-.2033-1.6138-1.0012-3.0623-2.1793-4.1005-3.9362-3.4681-10.17778-1.0932-10.83264 4.1002-.05437.441.27998.8207.72576.8207H17.7838c.4524 0 .7829-.3916.7258-.8191ZM13.6371 5.23521c-1.4512-1.45125-3.94399-.41797-3.94399 1.63363 0 2.05177 2.49279 3.08488 3.94399 1.63362.9024-.90217.9024-2.36507 0-3.26725ZM12.0035 3c3.436 0 5.1677 4.17302 2.7358 6.60466-2.4318 2.43164-6.60461.70014-6.60462-2.73581M12.0035 3C9.86679 3 8.13448 4.73209 8.13468 6.86885Z" clip-rule="evenodd"/></svg>
