<svg xmlns="http://www.w3.org/2000/svg" fill="none" viewBox="0 0 24 24"><path fill="currentColor" d="M21.5612 7.21033C22 8.74598 22 12.0367 22 12.0367s0 3.2541-.4388 4.8263c-.2193.8775-.914 1.5356-1.755 1.755-1.5722.4022-7.7879.4022-7.7879.4022s-6.2523 0-7.82452-.4022c-.84095-.2194-1.53564-.8775-1.75502-1.755C2 15.2908 2 12.0367 2 12.0367s0-3.29072.43876-4.82637c.21938-.87752.91407-1.57221 1.75502-1.79159 1.57222-.43876 7.82452-.43876 7.82452-.43876s6.2157 0 7.7879.43876c.841.21938 1.5357.91407 1.755 1.79159ZM9.97075 14.9983l5.19195-2.9616-5.19195-2.96166v5.92326Z"/></svg>
