<svg xmlns="http://www.w3.org/2000/svg" width="58" height="49" viewBox="0 0 58 49" fill="none">
    <path d="M6.46115 12.0959V6.08551H0V12.0959V18.1814V24.1918H6.46115V18.1814V12.0959Z" fill="white"/>
    <path d="M19.3085 6.0855H25.7697V0H19.3085H12.8474H6.46136V6.0855H12.8474H19.3085Z" fill="white"/>
    <path d="M12.9225 24.1917H6.46136V30.202H12.9225V24.1917Z" fill="white"/>
    <path d="M32.2312 6.08551H25.77V12.171H32.2312V6.08551Z" fill="white"/>
    <path d="M32.2312 42.373H25.77V48.3834H32.2312V42.373Z" fill="white"/>
    <path d="M45.1525 6.0855H51.5385V0H45.1525H38.6914H32.2302V6.0855H38.6914H45.1525Z" fill="white"/>
    <path d="M45.154 30.2772H38.6928V36.2876H45.154V30.2772Z" fill="white"/>
    <path d="M51.6141 24.1917H45.153V30.202H51.6141V24.1917Z" fill="white"/>
    <path d="M51.5388 6.08551V12.0959V18.1814V24.1918H58V18.1814V12.0959V6.08551H51.5388Z" fill="white"/>
    <path d="M38.6914 36.2876H32.2302V42.3731H38.6914V36.2876Z" fill="white"/>
    <path d="M19.3084 30.2772H12.8473V36.2876H19.3084V30.2772Z" fill="white"/>
    <path d="M25.7698 36.2876H19.3087V42.3731H25.7698V36.2876Z" fill="white"/>
</svg>
