<svg xmlns="http://www.w3.org/2000/svg" xml:space="preserve" fill-rule="evenodd" stroke-linejoin="round" stroke-miterlimit="1.41421" clip-rule="evenodd" viewBox="0 0 241 72">
  <path fill="#c41225" d="M.115.098h240v71.4h-240z"/>
  <g fill="#fff">
    <path fill-rule="nonzero" d="M32.447 30.904v3.329h9.722v4.928h-9.722v8.324h-6.292V25.31h17.812v5.594h-11.52Z"/>
    <path d="M46.234 23.712h6.093v23.772h-6.093z"/>
    <path fill-rule="nonzero" d="M64.481 34.1c-2.23 0-3.396 1.765-3.396 4.395s1.166 4.361 3.396 4.361c2.264 0 3.396-1.731 3.396-4.361S66.745 34.1 64.481 34.1m0 13.784c-5.993 0-9.855-3.662-9.855-9.356 0-5.727 3.862-9.423 9.855-9.423s9.855 3.696 9.855 9.423c0 5.694-3.862 9.356-9.855 9.356m32.599-.4h-6.026L88.39 37.229l-2.73 10.255h-6.027l-4.961-18.012h6.693l1.898 10.254 2.73-10.254h4.861l2.697 10.254 1.931-10.254h6.659L97.08 47.484Zm18.149 0V36.796c0-1.231-.433-2.364-2.297-2.364-1.399 0-2.631.833-2.631 2.698v10.354h-6.093V29.472h6.093v1.664c1.365-1.298 3.23-2.031 5.061-2.031 4.162 0 5.96 2.963 5.96 6.293v12.086h-6.093Zm18.947-8.224c-.533.599-1.432.666-2.497.832-.966.167-2.065.466-2.065 1.832 0 1.165.8 1.664 1.998 1.664 1.565 0 2.564-.866 2.564-2.597V39.26Zm5.127 8.49c-1.698 0-3.263-.633-3.928-2.031-1.166 1.565-3.43 2.164-5.461 2.164-3.662 0-6.292-1.964-6.292-5.66 0-4.428 3.795-5.061 6.692-5.36 2.564-.267 3.862-.4 3.862-1.532 0-1.132-1.365-1.332-2.397-1.332-1.731 0-4.029.566-5.727 1.598l-1.831-4.561c2.597-1.365 5.26-1.931 8.057-1.931 4.761 0 7.991 1.665 7.991 6.426v7.325c0 .599.3.732.732.732.333 0 .633-.066.833-.233l.599 3.696c-.766.499-2.164.699-3.13.699m17.916-1.631c-1.332 1.032-3.097 1.765-5.46 1.765-2.398 0-4.229-.733-5.328-2.264-.832-1.166-1.132-2.498-1.132-4.362V34h-2.73v-4.528h2.73V25.31h6.093v4.162h4.828V34h-4.828v7.291c0 1.066.7 1.332 1.465 1.332.866 0 1.565-.333 2.164-.832l2.198 4.328Zm2.532-16.647h6.093v18.012h-6.093V29.472Zm0-5.76h6.093v3.896h-6.093v-3.896Zm21.177 23.772h-6.193l-6.892-18.012h6.793l3.262 10.953 3.197-10.953h6.725l-6.892 18.012Zm16.35-14.017c-1.831 0-3.129.932-3.296 2.863h6.559c-.133-1.898-1.431-2.863-3.263-2.863m9.156 6.526h-12.452c.133 1.931 1.665 2.896 3.862 2.896 2.031 0 3.629-.832 4.695-1.997l3.962 3.462c-2.031 1.998-4.861 3.53-9.023 3.53-6.692 0-10.055-3.996-10.055-9.29 0-5.46 3.563-9.489 9.722-9.489 5.926 0 9.356 3.696 9.356 9.29 0 .566-.034 1.165-.067 1.598"/>
  </g>
</svg>
