<svg xmlns="http://www.w3.org/2000/svg" width="198" height="46" viewBox="0 0 198 46" fill="currentColor">
    <path fill-rule="evenodd" clip-rule="evenodd" d="M81.6272 21.055V45.1214H86.7843V31.8132C87.853 32.5983 94.5686 44.6773 95.8092 45.1386H99.8919C100.777 44.9782 101.198 44.2504 101.184 42.9898V20.353H95.8207C95.8207 23.1952 95.5628 30.9537 96.0356 33.3174C95.4625 33.1082 95.6516 33.3174 94.7577 31.8046L91.2137 26.3066C87.8673 21.012 88.3085 20.4103 82.2833 20.4103C81.7876 20.4103 81.6387 20.5593 81.6387 21.055H81.6272Z" fill="currentColor"/>
    <path fill-rule="evenodd" clip-rule="evenodd" d="M177.16 45.0525H182.277L182.102 31.73C183.334 32.5551 187.792 41.1618 191.342 45.0525H195.158C196.138 44.9236 196.496 44.4795 196.516 43.1329C196.557 40.2421 196.055 23.3956 196.473 22.4129C196.521 22.1735 196.64 21.9542 196.814 21.7834C196.988 21.6127 197.21 21.4985 197.45 21.4559L197.505 20.3386H191.354V33.2313C190.761 32.7958 184.509 22.7538 184.357 22.6077C183.498 21.2697 182.294 20.4388 180.61 20.3357H177.172V45.0496L177.16 45.0525Z" fill="currentColor"/>
    <path fill-rule="evenodd" clip-rule="evenodd" d="M129.565 21.0535V43.845C129.565 44.6358 130.376 44.991 131.485 45.1343H136.441V34.8201C137.338 35.0579 136.805 34.9318 137.817 36.4532L141.598 42.3409C143.031 44.3722 143.89 44.9796 145.584 45.1343H150.277C150.658 45.1343 151.059 45.1343 151.486 45.1343C151.305 44.3665 142.699 31.2445 142.246 30.5225C142.57 30.3048 144.094 28.5514 144.395 28.1589C145.114 27.2163 145.925 26.6633 146.667 25.7035C147.145 25.0875 147.308 24.9844 147.767 24.4429L150.841 20.4318C143.575 20.4318 144.973 19.4863 139.381 26.1619C138.499 27.2143 137.512 28.1743 136.436 29.027V20.4318H130.21C129.714 20.4318 129.565 20.5808 129.565 21.0764V21.0535Z" fill="currentColor"/>
    <path fill-rule="evenodd" clip-rule="evenodd" d="M45.9634 42.9873C45.8832 44.5688 46.6596 45.0873 48.3271 45.1361H60.7929C61.6266 45.1361 62.1166 44.606 62.2971 43.6319V40.6236H54.1231C53.3867 40.6694 52.9255 40.4144 52.8338 39.7641V34.607H60.3574V29.8653H52.8395V25.138H62.2942C62.2942 22.611 62.8357 20.8805 61.0049 20.4106H45.9634V42.9873Z" fill="currentColor"/>
    <path fill-rule="evenodd" clip-rule="evenodd" d="M68.3137 44.0502C68.3137 44.7435 69.093 45.1246 69.8179 45.1246H74.975V20.4106H68.3137V44.0502Z" fill="currentColor"/>
    <path fill-rule="evenodd" clip-rule="evenodd" d="M107.844 42.9873C107.764 44.5688 108.541 45.0873 110.208 45.1361H122.674C123.508 45.1361 123.998 44.606 124.178 43.6319V40.6236H116.004C115.268 40.6694 114.807 40.4144 114.715 39.7641V34.607H122.239V29.8653H114.721V25.138H124.175C124.175 22.611 124.72 20.8805 122.886 20.4106H107.844V42.9873Z" fill="currentColor"/>
    <path fill-rule="evenodd" clip-rule="evenodd" d="M154.839 42.9873C154.759 44.5688 155.536 45.0873 157.203 45.1361H169.669C170.503 45.1361 170.993 44.606 171.173 43.6319V40.6236H162.999C162.263 40.6694 161.801 40.4144 161.71 39.7641V34.607H169.233V29.8653H161.715V25.138H171.17C171.17 22.611 171.712 20.8805 169.881 20.4106H154.839V42.9873Z" fill="currentColor"/>
    <path fill-rule="evenodd" clip-rule="evenodd" d="M20.0301 22.7024L19.9356 44.7633H26.6656V34.0824H32.4903L32.4673 44.769H39.1315V20.353H32.4673V29.1659C32.4867 29.2546 32.4835 29.3467 32.458 29.4339C32.4324 29.521 32.3854 29.6003 32.3212 29.6645C32.257 29.7286 32.1777 29.7757 32.0906 29.8012C32.0035 29.8267 31.9114 29.83 31.8227 29.8106H27.3102C26.8776 29.8106 26.6685 29.5986 26.6656 29.1659V20.353H18.93C18.824 21.9947 20.076 21.2727 20.0416 22.7167L20.0301 22.7024Z" fill="currentColor"/>
    <path fill-rule="evenodd" clip-rule="evenodd" d="M9.62035 15.8315L14.342 19.3469L12.4883 25.7704C10.6546 27.0711 8.78375 28.3747 6.99309 29.6754C6.30548 29.8961 6.31121 29.323 6.66361 28.3518L9.77506 18.4874L0.43785 11.5339C0.125559 11.2732 0.16567 10.8807 1.03378 10.8721L12.3565 11.0068C13.5025 7.49612 14.6485 3.98643 15.7945 0.477691C16.0295 -0.184136 16.465 -0.0953196 16.6541 0.411795L20.0921 11.1386H31.7156C32.0422 11.1386 32.111 11.3849 31.8675 11.5769L26.1947 15.6396H19.7712L18.0064 10.196C17.886 9.88366 17.6855 9.88939 17.5823 10.196L15.7315 15.5737L9.67478 15.6052C9.38828 15.6052 9.38828 15.7054 9.61748 15.8315H9.62035Z" fill="currentColor"/>
</svg>
