<svg version="1.1" xmlns="http://www.w3.org/2000/svg" x="0" y="0" viewBox="0 0 887.24 283.46"><path fill="#495a67" d="M137.78,283.46v-40.44s.71-29.6,.71-29.6l-.72-.37c-13.16,10.23-29.97,15.72-51.16,15.72C35.08,228.78,0,195.16,0,115.49S29.23,0,88.07,0c26.68,0,47.87,8.41,63.22,24.12l6.58-20.1,36.54,.37V283.12l-56.63,.34Zm0-215.86c-5.85-9.49-19.74-16.81-37.28-16.81-31.44,0-41.67,12.79-41.67,64.69s12.06,65.78,42.39,65.78c20.47,0,33.62-9.5,36.55-19V67.61Z"></path><path fill="var(--color-logo,#495a67)" d="M428.78,147.28c0,53.72-30.33,82.23-93.19,82.23s-93.19-29.6-93.19-82.23V4.02h56.65V146.18c0,21.93,11.69,33.26,36.54,33.26s36.54-10.61,36.54-33.26V4.02h56.65V147.28Z"></path><path fill="var(--color-logo,#495a67)" d="M466.16,111.84c0-70.54,31.06-111.84,97.58-111.84,56.64,0,91.36,32.89,91.36,103.06,0,8.41-.36,19-1.46,26.68h-128.99c2.92,36.91,20.83,50.8,58.83,50.8,20.83,0,40.2-3.65,59.21-10.97l6.21,45.68c-18.64,8.41-44.22,14.25-72.36,14.25-76.38,0-110.36-40.2-110.36-117.67Zm137.04-19.74c-.73-32.53-15.34-44.95-39.1-44.95-27.41,0-38.01,12.79-40.57,44.95h79.67Z"></path><path fill="var(--color-logo,#495a67)" d="M786.01,230.6c-70.17,0-101.59-33.62-101.59-115.12S715.85,0,786.01,0s101.23,34.36,101.23,115.49-30.69,115.12-101.23,115.12Zm0-46.42c31.06,0,42.39-14.62,42.39-68.7s-11.33-68.71-42.39-68.71-42.75,14.62-42.75,68.71,11.69,68.7,42.75,68.7Z"></path></svg>
