<svg xmlns="http://www.w3.org/2000/svg" xml:space="preserve" viewBox="0 0 420 120">
  <path d="M54.7 73.1c-3.1-4-5.8-7.4-11.4-7.3-4.3.1-10 2.4-17.6 6.9l3.7 9.8c4.9-3.1 8.7-4.6 12-4.7 4.6-.1 7.7 2.5 11.7 5.9 6.6 5.6 15.6 13.3 38.4 12.7.7 0 1.4-.1 2.2-.1l3.1-17.1c-8.3 3-15.3 4.5-21.1 4.7-12.2.3-16.9-5.6-21-10.8z"/>
  <path d="M75.9 70.9c-5.1.1-8.1-2.6-11.7-5.8-4.6-4.2-9.8-8.9-21.1-8.6-6 .2-13.2 1.8-21.6 4.8l3.2 8.7c7.9-4.4 14.1-6.7 18.8-6.8 6.8-.2 9.9 3.8 13.2 8 3.8 4.9 7.8 10 18 9.7 6-.2 13.5-2.2 22.8-6.1l3.2-17.2c-11.2 9-19 13.1-24.8 13.3z"/>
  <path d="M76.8 52.1c-3.8.1-7.7-.7-12.2-1.7-6.3-1.3-14.1-3-24.9-2.7-6.9.2-14.2 1.1-22.2 2.8l3 8.1c8.4-2.8 15.7-4.3 22-4.4 12.4-.2 18.5 4.6 23.4 8.5 3.4 2.7 6.4 5.1 10.6 5 5.6-.2 13.5-4.8 25.1-15l3.5-18.8c-13.5 14.7-21 18-28.3 18.2zM53.5 87.5c-4.3-3.2-7.7-5.8-12.4-5.6-3 .1-6.4 1.3-10.5 3.7l.1.2c1.5 3.9 5.9 8.3 9.9 9.6l42.9 14.3c4 1.3 7.9-1 8.7-5.1l.8-4.1c-22.5-.3-32.3-7.6-39.5-13z"/>
  <path d="M102.7 10.4 21.4 39c-3.8 1.3-5.8 5.3-4.7 9.1 8.6-1.8 16.5-2.8 24.2-3 8.9-.2 15.7.6 21.7 1.3 4.4.5 8.3 1 12 .9 9-.2 17.3-3.6 31.8-19.4l2.3-12.6c.6-4-2.1-6.3-6-4.9zm26.6 43.8c.8-.5 1.7-.7 2.7-.7 1.7 0 3.1.3 4.2 1 1.2.7 2.1 1.4 2.8 2.2l5-4c-1.1-1.5-2.6-2.8-4.5-3.8-1.9-1.1-4.2-1.6-6.9-1.6-2.2 0-4.2.4-5.8 1.3-1.7.8-2.9 2-3.8 3.4-.9 1.4-1.3 3-1.3 4.7 0 2.7.8 4.7 2.4 6.1 1.6 1.4 3.9 2.4 7 3.2 1.7.4 2.9.8 3.8 1.2.9.4 1.5.8 1.8 1.3.3.5.5 1 .5 1.5 0 .9-.3 1.6-1 2.2-.7.6-1.6.9-2.7.9-1.6 0-3-.3-4.1-1-1.1-.7-2.3-1.7-3.5-3.2l-4.9 3.7c1.5 2.4 3.3 4 5.3 5 2.1 1 4.2 1.5 6.4 1.5 2 0 3.9-.4 5.6-1.2 1.7-.8 3.1-1.9 4.1-3.4 1-1.5 1.5-3.2 1.5-5.2 0-2.4-.8-4.3-2.4-5.7-1.6-1.4-4.2-2.6-7.9-3.5-2.2-.5-3.7-1-4.5-1.6-.8-.6-1.2-1.3-1.2-2.2.3-.9.7-1.6 1.4-2.1zm39.5-5.5c-1.8-1-4-1.5-6.7-1.5-1.9 0-3.8.2-5.7.7-1.9.5-3.8 1.1-5.5 2l2.2 5.3c1.5-.7 2.9-1.2 4.3-1.5 1.4-.3 2.7-.4 3.8-.4 2 0 3.5.5 4.3 1.5.8 1 1.3 2.1 1.3 3.3v2.3l-.1-.1c-1.8-1.3-4.2-2-7.1-2-2.2 0-4.2.4-5.9 1.3-1.7.9-3 2.1-3.9 3.6-.9 1.5-1.4 3.3-1.4 5.4 0 2.1.5 3.9 1.4 5.5.9 1.5 2.2 2.7 3.9 3.6 1.7.8 3.7 1.3 6 1.3 2.7 0 5-.6 6.9-1.9.5-.3.9-.7 1.3-1.1l.6 2.2h5.5V58.4c0-2.1-.4-4.1-1.3-5.7-.9-1.7-2.2-3-3.9-4zM165.3 72c-1 .8-2.3 1.2-4 1.2-1.7 0-3-.4-4-1.2-1-.8-1.5-1.9-1.5-3.2 0-1.4.5-2.6 1.5-3.3 1-.8 2.3-1.1 4-1.1 1.7 0 3 .4 4 1.1 1 .8 1.5 1.9 1.5 3.3s-.5 2.4-1.5 3.2zM207 51.2c-.6-1.2-1.6-2.2-2.8-2.9-1.2-.7-2.9-1.1-5.1-1.1-1.7 0-3.3.3-4.8.8s-3 1.2-4.4 2.2c-.7.5-1.4 1.1-2.1 1.7l-1.1-3.9h-5.4v30.3h7.2v-20c.4-.5.9-1 1.4-1.4 1-.8 2.1-1.4 3.3-1.9 1.2-.5 2.4-.7 3.6-.7 1.2 0 2.3.3 3.1 1 .8.7 1.3 2 1.3 4.1v18.8h7.2V60c0-1.6-.1-3.2-.3-4.7-.1-1.5-.5-2.9-1.1-4.1zm29.8-.8c-.5-.4-1-.9-1.6-1.2-2-1.3-4.4-1.9-7-1.9-2.8 0-5.2.7-7.3 2-2.1 1.3-3.8 3.2-4.9 5.5-1.2 2.4-1.8 5.1-1.8 8.2 0 3.1.6 5.9 1.8 8.3 1.2 2.4 2.8 4.2 4.9 5.6 2.1 1.3 4.5 2 7.3 2 2.7 0 5-.7 7.1-2 .9-.6 1.7-1.3 2.4-2.1l.9 3.4h5.5V36h-7.2v14.4zM235 69.9c-1.4 1.7-3.3 2.6-5.6 2.6s-4.2-.9-5.7-2.6c-1.5-1.7-2.2-4-2.2-6.8s.7-5 2.2-6.7c1.5-1.7 3.4-2.6 5.7-2.6 2.3 0 4.2.9 5.6 2.6 1.4 1.7 2.1 4 2.1 6.8 0 2.7-.7 5-2.1 6.7zm23-15.7c.8-.5 1.7-.7 2.7-.7 1.7 0 3.1.3 4.2 1 1.2.7 2.1 1.4 2.8 2.2l5-4c-1.1-1.5-2.6-2.8-4.5-3.8-1.9-1.1-4.2-1.6-6.9-1.6-2.2 0-4.2.4-5.8 1.3-1.7.8-2.9 2-3.8 3.4-.9 1.4-1.3 3-1.3 4.7 0 2.7.8 4.7 2.4 6.1s3.9 2.4 7 3.2c1.7.4 2.9.8 3.8 1.2s1.5.8 1.8 1.3c.3.5.5 1 .5 1.5 0 .9-.3 1.6-1 2.2-.7.6-1.6.9-2.7.9-1.6 0-3-.3-4.1-1-1.1-.7-2.3-1.7-3.5-3.2l-4.9 3.7c1.5 2.4 3.3 4 5.3 5 2.1 1 4.2 1.5 6.4 1.5 2 0 3.9-.4 5.6-1.2 1.7-.8 3.1-1.9 4.1-3.4 1-1.5 1.5-3.2 1.5-5.2 0-2.4-.8-4.3-2.4-5.7-1.6-1.4-4.2-2.6-7.9-3.5-2.2-.5-3.7-1-4.5-1.6s-1.2-1.3-1.2-2.2c.3-.9.7-1.6 1.4-2.1zM288.9 41h-5.8l-1.4 7H277v6.6h4.7v14.3c0 3.4.8 5.9 2.5 7.5 1.7 1.6 4 2.4 6.9 2.4 1 0 1.8-.1 2.4-.2.7-.1 1.3-.3 2-.5v-6.7c-.4.1-.9.2-1.4.3-.5.1-1.1.1-1.8.1-1 0-1.8-.3-2.4-.9-.6-.6-.9-1.5-.9-2.7V54.5h6.6V48H289v-7zm34.4 8.3c-2.4-1.3-5.1-2-8.2-2-3.1 0-5.8.7-8.2 2-2.4 1.3-4.2 3.2-5.5 5.5-1.3 2.4-2 5.2-2 8.3 0 3.1.7 5.8 2 8.2s3.1 4.2 5.5 5.5c2.4 1.3 5.1 2 8.2 2 3.1 0 5.8-.7 8.2-2 2.4-1.3 4.2-3.2 5.5-5.5s2-5.1 2-8.2c0-3.2-.7-6-2-8.3-1.3-2.4-3.1-4.2-5.5-5.5zm-2.1 20.2c-1.5 1.6-3.5 2.4-6 2.4s-4.5-.8-6-2.4c-1.5-1.6-2.3-3.8-2.3-6.4 0-2.7.8-4.8 2.3-6.4 1.5-1.6 3.5-2.4 6-2.4s4.5.8 6 2.4 2.3 3.8 2.3 6.4c0 2.6-.8 4.8-2.3 6.4zm29.4-22.2c-1.3 0-2.5.3-3.8.9-1.2.6-2.3 1.4-3.2 2.2l-.8.8-.7-3.3h-5.4v30.3h7.2V57.1c.5-.6 1-1.1 1.6-1.5 1.4-.8 3.4-1.3 6.1-1.3h2v-6.5c-.3-.2-.7-.3-1.3-.4-.5-.1-1.1-.1-1.7-.1zm52.8 8c-.2-1.5-.6-2.9-1.2-4.1-.6-1.2-1.5-2.2-2.8-2.9-1.2-.7-2.9-1.1-5-1.1-1.6 0-3.1.3-4.6.8-1.5.5-2.8 1.2-4.1 2.2-.8.6-1.5 1.2-2.2 1.9-.1-.3-.3-.6-.4-.9-.6-1.2-1.5-2.2-2.8-2.9-1.2-.7-2.9-1.1-5-1.1-1.6 0-3.1.3-4.6.8-1.5.5-2.8 1.2-4.1 2.2-.7.5-1.3 1-1.9 1.6l-1-3.9h-5.4v30.3h7.2v-20c.7-.9 1.6-1.7 2.7-2.4 1.6-1 3.2-1.5 4.8-1.5 1.2 0 2.2.3 3.1 1 .8.7 1.3 2 1.3 4.1v18.8h7.2V58.3c.7-.9 1.6-1.8 2.7-2.5 1.6-1 3.2-1.5 4.9-1.5 1.2 0 2.2.3 3 1 .8.7 1.3 2 1.3 4.1v18.8h7.2V60c-.1-1.6-.1-3.2-.3-4.7z"/>
</svg>
