<svg xmlns="http://www.w3.org/2000/svg" xml:space="preserve" viewBox="0 0 476.2 96.8">
  <path fill="#D7FE3C" d="m160.4 31.3-2.9 7.5c-5.4-1.7-11.7-2.6-19-2.6-3.7 0-6.4.3-8.2.8-1.8.6-2.7 1.6-2.7 3.1 0 1.3.8 2.2 2.5 2.6 1.7.4 5.1.9 10.3 1.4h.1c2.2.2 4.1.4 5.6.5 1.5.2 3.1.4 4.9.7 1.8.3 3.2.6 4.4 1 1.1.4 2.3.9 3.4 1.4 1.2.6 2.1 1.3 2.7 2 .6.8 1.2 1.7 1.6 2.8.4 1.1.6 2.3.6 3.6 0 4.3-2 7.6-6 9.8-4 2.2-10 3.3-17.8 3.3-11 0-19.8-2.1-26.4-6.4l4.5-7.2c6.1 3.6 13.9 5.4 23.3 5.4 7.6 0 11.4-1.4 11.4-4.3 0-1.4-.9-2.3-2.7-2.8-1.8-.5-5.1-.9-9.9-1.3-2.1-.2-3.8-.3-5.1-.5-1.3-.1-2.9-.3-4.7-.6s-3.3-.6-4.5-.9c-1.2-.4-2.4-.8-3.7-1.5-1.3-.6-2.3-1.3-3-2.1-.7-.8-1.3-1.7-1.8-2.9s-.7-2.4-.7-3.9c0-8.1 7.6-12.2 22.7-12.2 7.5-.1 14.5 1 21.1 3.3zm8-2.2h11.1v39.1h-11.1V29.1zm51.3 8.4h-15.6v19.1c0 1.5.4 2.5 1.3 3.1.9.6 2.2.9 3.9.9 3.8 0 7.7-1.2 11.4-3.6v9.2c-4.2 1.8-8.6 2.7-13.2 2.7-2.6 0-5-.4-7-1.1-2.1-.7-3.8-2-5.1-3.7-1.3-1.7-2-3.9-2-6.4V37.5h-8.7v-8.4h8.7v-9.4l9.8-1.7.4 11.1h16.1v8.4zm29.4-9.5c8.1 0 14.3 1.8 18.4 5.3 4.1 3.5 6.2 9.4 6.2 17.6v1.5h-39c.4 2.9 1.7 4.9 4 6.2s6 1.9 11.1 1.9c3.8 0 7.5-.3 10.9-1 3.5-.6 6.4-1.5 8.9-2.5l2.8 7.5c-1.6.9-3.6 1.6-6 2.3-2.4.7-5.1 1.3-8.3 1.7-3.1.4-6.3.7-9.5.7-8.1 0-14.4-1.6-18.7-4.8-4.3-3.2-6.5-8.5-6.5-15.7 0-7.3 2.2-12.6 6.5-15.8 4.5-3.3 10.9-4.9 19.2-4.9zm-.4 8.4c-2.3 0-4.3.1-6 .4-1.7.3-3.1.8-4.3 1.4-1.2.6-2.1 1.5-2.8 2.5-.7 1-1.1 2.3-1.2 3.8h28.3c-.4-3-1.7-5.1-3.9-6.3-2.2-1.1-5.5-1.8-10.1-1.8z" class="st0"/>
  <circle cx="173.9" cy="21.1" r="5.5" class="st0"/>
  <path d="M286.7 74.1c5 1 9.9 1.5 14.6 1.5 12.7 0 19-3.5 19-10.4v-4.7c-.7.8-1.6 1.5-2.6 2.2s-2 1.3-3.2 1.7c-1.1.5-2.4.9-3.7 1.2-1.3.3-2.6.5-4 .7-1.4.2-2.8.2-4.3.2-2.5 0-4.8-.2-6.9-.5-2.1-.4-4.2-1-6.1-1.8-2-.9-3.6-2-5-3.4s-2.5-3.1-3.3-5.3c-.8-2.2-1.2-4.6-1.2-7.3 0-2.9.4-5.4 1.2-7.7.8-2.3 1.9-4.1 3.4-5.6 1.4-1.5 3.1-2.7 5-3.7s4-1.7 6.1-2.1c2.1-.4 4.4-.6 6.8-.6 8.2 0 14.3 2.4 18.2 7.1l.7-6.5h4.5v36.4c0 2.7-.6 5.1-1.8 7-1.2 1.9-3 3.5-5.2 4.6-2.2 1.1-4.7 1.9-7.5 2.4s-5.9.7-9.3.7c-6.1 0-11.4-.6-16-1.9l.6-4.2zm-.8-26c0 4.9 1.5 8.5 4.6 10.6 3.1 2.2 7.5 3.3 13.3 3.3 6.8 0 12.2-2.2 16.2-6.5v-15c-2.9-4.9-8.5-7.4-16.8-7.4-11.6 0-17.3 5-17.3 15zm70-19.8c15.8 0 23.6 6.8 23.6 20.3v1.6h-42c.2 4.9 1.8 8.4 4.9 10.5 3.1 2.1 7.7 3.1 13.7 3.1 4.1 0 7.9-.4 11.4-1.3 3.6-.9 6.5-2 8.7-3.5l1.8 4.1c-1.5 1.1-3.4 2.1-5.8 2.9-2.3.8-4.9 1.5-7.8 1.9-2.9.5-5.9.7-8.9.7-3.7 0-6.9-.4-9.8-1.1-2.9-.7-5.4-1.8-7.6-3.4-2.2-1.5-3.9-3.6-5-6.2-1.2-2.6-1.7-5.8-1.7-9.5 0-3.8.6-7 1.7-9.6 1.2-2.7 2.9-4.8 5.1-6.3 2.2-1.5 4.8-2.6 7.6-3.3 3-.5 6.3-.9 10.1-.9zm-.2 4.8c-5.8 0-10.2 1-13.3 3-3.1 2-4.7 5.3-4.9 9.8h36.1c-.1-2-.5-3.7-1.1-5.2-.6-1.5-1.5-2.7-2.5-3.7s-2.3-1.7-3.8-2.3c-1.5-.6-3.1-1-4.8-1.3-1.8-.2-3.7-.3-5.7-.3zM388 18.2h.2c1.6 0 2.9 1.3 2.9 2.9 0 1.6-1.3 2.9-2.9 2.9h-.2c-1.6 0-2.9-1.3-2.9-2.9 0-1.6 1.3-2.9 2.9-2.9zm-2.9 10.9h6v39.1h-6V29.1zm0 0h6v39.1h-6V29.1zm55.4 2.5-1.7 4.3c-5.5-2-11.8-3-18.7-3-9.7 0-14.6 2.1-14.6 6.2 0 2.1 1.4 3.5 4.2 4.4 1.7.5 5.6 1.1 11.8 1.8 2.3.3 4.1.5 5.6.7 1.4.2 3 .4 4.8.7 1.7.3 3.1.6 4.2 1 1 .4 2.1.8 3.2 1.3s1.9 1.2 2.5 1.8c.6.7 1.1 1.5 1.4 2.5.4.9.5 2 .5 3.2 0 2.8-1 5.2-3 7-2 1.9-4.6 3.2-7.8 4-3.2.8-7 1.2-11.4 1.2-9.4 0-17.5-1.9-24.5-5.8l2.5-4.1c6.7 3.5 14.2 5.2 22.6 5.2 10.4 0 15.6-2.4 15.6-7.3 0-.8-.1-1.4-.4-2-.3-.6-.8-1.1-1.5-1.5-.7-.4-1.4-.8-2.2-1.1-.7-.3-1.8-.6-3.3-.8-1.5-.3-2.8-.5-4-.6-1.2-.2-2.9-.3-5.1-.6-1.7-.2-3-.3-3.9-.4-.9-.1-2.1-.3-3.6-.5s-2.7-.4-3.5-.6c-.8-.2-1.8-.4-3-.7-1.2-.3-2.1-.6-2.7-1-.6-.3-1.3-.8-2.1-1.3s-1.3-1.1-1.7-1.7c-.4-.6-.7-1.3-.9-2.1-.3-.8-.4-1.7-.4-2.6 0-2 .5-3.7 1.6-5.2s2.6-2.6 4.6-3.4c2-.8 4.2-1.4 6.6-1.8 2.4-.4 5.1-.6 8.1-.6 7.3.1 14 1.2 20.2 3.4zm34.7 2.2h-14.5v26c0 1.5.4 2.6 1.2 3.2.8.6 2.1.9 3.9.9 3.5 0 7-.9 10.5-2.8v5c-3.8 1.6-7.5 2.4-11.3 2.4-3 0-5.5-.7-7.4-2-1.9-1.3-2.8-3.3-2.8-6.1V33.8h-8.7v-4.7h8.7V21l5.4-.9.3 9.1h14.8v4.6z" class="st0"/>
  <g fill="#0B0B13">
    <circle cx="48.4" cy="48.4" r="48.4" fill="#d7fe3c"/>
    <path d="M68.3 45.6c-1-1.3-2.4-1.9-3.8-1.9h-5.8c-3.1 0-5.6-2.5-5.6-5.6v-5.9c0-1.4-.7-2.8-2-3.7-1.6-1.2-3.9-1.1-5.5 0-1.3 1-1.9 2.4-1.9 3.8v5.8c0 3.1-2.5 5.6-5.6 5.6h-5.8c-1.4 0-2.9.6-3.8 1.9-1.2 1.6-1.2 3.9 0 5.5.9 1.3 2.3 1.9 3.7 2h5.9c3.1 0 5.6 2.5 5.6 5.6v5.8c0 1.4.6 2.9 1.9 3.8 1.6 1.2 3.9 1.2 5.5 0 1.3-.9 1.9-2.3 2-3.7v-5.9c0-3.1 2.5-5.6 5.6-5.6h5.9c1.4 0 2.8-.7 3.7-2 1.2-1.6 1.2-3.9 0-5.5z"/>
    <circle cx="32.3" cy="32.3" r="3.1"/>
    <circle cx="19.6" cy="48.4" r="3.1"/>
    <circle cx="9.4" cy="48.4" r="2.1"/>
    <circle cx="87.4" cy="48.4" r="2.1"/>
    <circle cx="19.6" cy="77.3" r="2.1"/>
    <circle cx="19.6" cy="19.6" r="2.1"/>
    <circle cx="48.4" cy="87.4" r="2.1"/>
    <circle cx="48.4" cy="9.4" r="2.1"/>
    <circle cx="77.3" cy="77.3" r="2.1"/>
    <circle cx="77.3" cy="19.6" r="2.1"/>
    <circle cx="19.6" cy="64.5" r="3.1"/>
    <circle cx="19.6" cy="32.3" r="3.1"/>
    <circle cx="77.3" cy="64.5" r="3.1"/>
    <circle cx="77.3" cy="32.3" r="3.1"/>
    <circle cx="32.3" cy="77.3" r="3.1"/>
    <circle cx="32.3" cy="19.6" r="3.1"/>
    <circle cx="64.5" cy="77.3" r="3.1"/>
    <circle cx="64.5" cy="19.6" r="3.1"/>
    <circle cx="64.5" cy="32.3" r="3.1"/>
    <circle cx="64.5" cy="64.5" r="3.1"/>
    <circle cx="32.3" cy="64.5" r="3.1"/>
    <circle cx="77.3" cy="48.4" r="3.1"/>
    <circle cx="48.4" cy="77.3" r="3.1"/>
    <circle cx="48.4" cy="19.6" r="3.1"/>
  </g>
</svg>
