<svg xmlns="http://www.w3.org/2000/svg" width="112" height="39" viewBox="0 0 112 39" fill="currentColor">
    <path d="M-102.86 21.5551C-106.764 20.1246 -108.101 17.7911 -107.972 13.9568C-107.761 8.01191 -104.97 6.78072 -98.2866 6.78072C-95.2002 6.75625 -92.1231 7.12266 -89.1288 7.87121L-90.2896 11.7055C-92.4706 11.6352 -95.66 11.4593 -98.4155 11.4593C-101.195 11.4593 -102.179 11.7524 -102.262 13.9686C-102.32 15.7743 -101.593 16.2668 -99.6585 16.9L-94.7923 18.5885C-90.7118 20.0542 -89.4336 22.4228 -89.5744 26.2219C-89.7854 32.12 -92.3885 33.7029 -99.4591 33.7029C-102.684 33.6556 -105.896 33.2943 -109.051 32.6242L-107.843 28.5905C-103.035 28.7078 -100.937 28.7781 -99.2715 28.7781C-96.258 28.7781 -95.4255 28.3677 -95.3434 26.2571C-95.2848 24.4162 -95.9766 23.9589 -97.6885 23.396L-102.86 21.5551ZM-75.9374 33.6912C-84.1336 33.6912 -87.0299 30.6425 -87.0299 20.2301C-87.0299 9.81767 -84.1336 6.76899 -75.9374 6.76899C-67.7411 6.76899 -64.8097 9.81767 -64.8097 20.2301C-64.8097 30.6425 -67.7411 33.6912 -75.9374 33.6912ZM-75.9374 29.0713C-72.021 29.0713 -70.8601 27.1131 -70.8601 20.2301C-70.8601 13.3471 -72.021 11.3889 -75.9374 11.3889C-79.8538 11.3889 -81.0146 13.3471 -81.0146 20.2301C-81.0146 27.1131 -79.842 29.0713 -75.9374 29.0713ZM-39.4236 26.3978L-41.2997 33.1987H-47.1625L-39.6815 8.75063C-39.5718 8.30978 -39.3139 7.92005 -38.9509 7.64678C-38.588 7.37352 -38.1422 7.23334 -37.6881 7.24974H-32.2709C-31.8157 7.22817 -31.3673 7.36638 -31.0033 7.64046C-30.6393 7.91454 -30.3826 8.30725 -30.2775 8.75063L-22.7965 33.1987H-28.6242L-30.5003 26.3978H-39.4236ZM-33.9242 14.0272C-34.1118 13.2416 -34.3346 12.3739 -34.4519 11.5883H-35.472C-35.6596 12.3739 -35.8472 13.2416 -36.0348 14.0272L-38.2158 21.9655H-31.7432L-33.9242 14.0272ZM-6.34535 33.2104L-8.30356 25.2721C-8.38365 24.6148 -8.72119 24.016 -9.24214 23.6071C-9.76311 23.1983 -10.425 23.0127 -11.0825 23.0912L-15.1044 23.056V33.2104H-20.7445V7.26147C-17.4583 6.96714 -14.1584 6.85362 -10.8598 6.92142C-4.09402 6.92142 -1.26813 8.65683 -1.26813 14.59C-1.26813 18.2367 -2.54623 20.5701 -6.2281 21.0157V21.2033C-5.29271 21.4122 -4.4416 21.8972 -3.78511 22.5955C-3.12863 23.2938 -2.69704 24.1732 -2.54623 25.1197L-0.283173 33.1987H-6.34535V33.2104ZM-10.977 18.6588C-7.9635 18.6588 -7.06062 17.8263 -7.06062 14.977C-7.06062 12.0807 -7.9635 11.3303 -10.977 11.3303L-15.1044 11.3537V18.6471H-10.977V18.6588ZM36.0548 7.26147H30.2271L27.6709 25.3542C27.5184 26.4799 27.4129 27.8401 27.3309 29.0361H26.5452C26.428 27.8752 26.2052 26.5151 26.0176 25.319L23.2386 9.03205C23.1895 8.54048 22.9571 8.08541 22.5878 7.75734C22.2184 7.42928 21.7391 7.25225 21.2452 7.26147H16.2852C15.7859 7.24545 15.299 7.41919 14.9227 7.74771C14.5463 8.07623 14.3083 8.53514 14.2567 9.03205L11.4777 25.2721C11.2901 26.433 11.0673 27.7932 10.9149 29.0361H10.1644C10.0941 27.6407 9.97681 26.3978 9.82437 25.2721L7.30336 7.26147H1.44051L5.54451 31.6275C5.65141 32.0898 5.91577 32.5005 6.29228 32.7893C6.66879 33.0781 7.134 33.227 7.60822 33.2104H13.0959C13.5789 33.2429 14.0569 33.0956 14.4379 32.7969C14.8188 32.4982 15.0759 32.0691 15.1596 31.5923L17.9386 14.6721C18.1262 13.5816 18.2434 12.456 18.3841 11.3655H19.0994C19.2167 12.456 19.3574 13.5464 19.5567 14.6369L22.3709 31.5923C22.4547 32.0624 22.7068 32.486 23.0801 32.7838C23.4534 33.0816 23.9224 33.2332 24.3994 33.2104H29.887C30.3636 33.2374 30.8339 33.0924 31.2126 32.8019C31.5914 32.5114 31.8533 32.0947 31.9508 31.6275L36.0548 7.26147ZM42.7501 26.3978L40.874 33.1987H35.0112L42.4922 8.75063C42.6019 8.30978 42.8598 7.92005 43.2228 7.64678C43.5857 7.37352 44.0315 7.23334 44.4855 7.24974H49.9028C50.358 7.22817 50.8064 7.36638 51.1704 7.64046C51.5344 7.91454 51.7911 8.30725 51.8962 8.75063L59.3772 33.1987H53.5495L51.6734 26.3978H42.7501ZM48.2378 14.0272C48.0502 13.2416 47.8274 12.3739 47.7101 11.5883H46.69C46.5024 12.3739 46.3148 13.2416 46.1271 14.0272L43.9462 21.9655H50.4187L48.2378 14.0272ZM-48.1592 28.5436H-54.2566C-55.7223 28.5436 -56.2851 27.9808 -56.2851 26.6206V7.26147H-61.9955V27.6642C-61.9955 30.8653 -60.2249 33.187 -56.0506 33.187H-49.6249L-48.1592 28.5436ZM111.592 8.12917C111.594 9.11579 111.303 10.0809 110.757 10.9022C110.21 11.7235 109.432 12.3641 108.521 12.7427C107.61 13.1214 106.607 13.221 105.639 13.0291C104.671 12.8372 103.782 12.3623 103.084 11.6647C102.387 10.967 101.912 10.078 101.72 9.11023C101.528 8.14245 101.628 7.13948 102.006 6.2284C102.385 5.31732 103.026 4.53914 103.847 3.99244C104.668 3.44575 105.633 3.15516 106.62 3.15747C107.273 3.15655 107.92 3.28451 108.524 3.53404C109.127 3.78356 109.676 4.14974 110.138 4.61158C110.599 5.07343 110.966 5.62188 111.215 6.22549C111.465 6.8291 111.593 7.47602 111.592 8.12917ZM110.712 8.12917C110.705 7.31619 110.458 6.52349 110.001 5.85106C109.544 5.17862 108.898 4.65659 108.145 4.35082C107.391 4.04505 106.564 3.96924 105.768 4.13295C104.972 4.29666 104.242 4.69255 103.67 5.27069C103.098 5.84883 102.711 6.58331 102.556 7.38148C102.401 8.17964 102.487 9.00572 102.801 9.75552C103.115 10.5053 103.645 11.1452 104.322 11.5945C105 12.0438 105.795 12.2824 106.608 12.2801C107.702 12.2723 108.749 11.831 109.518 11.0529C110.288 10.2748 110.717 9.22338 110.712 8.12917ZM107.828 8.25815C108.05 8.28198 108.258 8.37896 108.42 8.53388C108.581 8.68881 108.686 8.8929 108.719 9.11413L109.305 10.8144H108.051L107.535 9.14931C107.484 8.98561 107.378 8.84468 107.234 8.75057C107.091 8.65647 106.919 8.61505 106.749 8.63338H105.565V10.8026H104.38V5.35018C105.18 5.28534 105.982 5.26186 106.784 5.27983C108.414 5.27983 109.094 5.64332 109.094 6.87452C109.094 7.63669 108.778 8.10572 107.839 8.22298V8.25815H107.828ZM106.749 7.81258C107.628 7.78913 107.886 7.61324 107.875 6.98005C107.898 6.31169 107.628 6.17098 106.749 6.17098H105.565V7.81258H106.749ZM75.9104 7.26147H56.3285V11.9283H64.0792V33.2104H69.8365V11.9283H74.3626L75.9104 7.26147ZM78.3493 7.26147L76.8016 11.9283H82.2423V33.2104H87.9996V11.9283H95.7503V7.26147H78.3493ZM-138.107 10.1929C-134.839 10.2159 -131.678 11.3594 -129.152 13.4326C-126.625 15.5058 -124.887 18.3831 -124.227 21.5838C-123.567 24.7844 -124.025 28.1147 -125.524 31.0184C-127.024 33.922 -129.475 36.223 -132.467 37.5372C-128.624 36.3456 -125.262 33.956 -122.874 30.7176C-120.486 27.4793 -119.196 23.562 -119.193 19.5383C-119.193 9.60661 -127.636 0.695077 -137.11 0.753706C-147.359 0.812334 -149.387 11.0489 -148.59 14.8597C-147.267 13.3913 -145.65 12.2172 -143.844 11.4133C-142.038 10.6093 -140.084 10.1936 -138.107 10.1929ZM-138.001 28.9306C-141.269 28.9076 -144.431 27.764 -146.957 25.6908C-149.483 23.6176 -151.222 20.7404 -151.882 17.5397C-152.542 14.339 -152.084 11.0087 -150.584 8.10511C-149.084 5.2015 -146.634 2.90042 -143.642 1.58623C-147.485 2.77536 -150.847 5.16469 -153.234 8.40387C-155.62 11.6431 -156.906 15.5617 -156.903 19.5852C-156.903 29.5168 -148.461 38.4284 -138.986 38.3698C-128.738 38.3111 -126.71 28.0746 -127.519 24.2637C-128.841 25.733 -130.458 26.9078 -132.264 27.7118C-134.07 28.5158 -136.025 28.931 -138.001 28.9306Z" fill="currentColor"/>
</svg>
