<svg xmlns="http://www.w3.org/2000/svg" width="150" height="47" viewBox="0 0 150 47" fill="currentColor">
    <path d="M88.0648 18.659C86.9022 18.2258 85.6774 17.9831 84.4375 17.9402C83.0618 17.9402 81.9812 18.302 81.9812 19.5587C81.9812 22.5243 89.6261 20.6964 89.6261 26.8132C89.6261 30.9498 86.2702 32.5255 82.4858 32.5255C80.7702 32.5236 79.064 32.2719 77.421 31.7781L77.7209 28.1508C79.2038 28.6368 80.746 28.9186 82.3049 28.9886C83.7758 28.9886 84.9754 28.5412 84.9754 27.2512C84.9754 24.0761 77.3305 26.1135 77.3305 20.0299C77.3305 16.2218 80.5389 14.6652 84.0757 14.6652C85.7039 14.6471 87.3238 14.8996 88.8693 15.4125L88.0648 18.659ZM74.0983 18.659C72.9364 18.2295 71.7137 17.9868 70.4758 17.9402C69.0954 17.9402 67.9862 18.302 67.9862 19.5587C67.9862 22.5243 75.6597 20.6964 75.6597 26.8132C75.6597 30.9498 72.2704 32.5255 68.5194 32.5255C66.7858 32.5218 65.0615 32.2734 63.3974 31.7876L63.7306 28.1604C65.2236 28.6454 66.7751 28.9272 68.3432 28.9982C69.7713 28.9982 70.9804 28.5507 70.9804 27.2607C70.9804 24.0856 63.307 26.123 63.307 20.0395C63.307 16.2313 66.5439 14.6747 70.0522 14.6747C71.7004 14.6603 73.34 14.9127 74.9076 15.4221L74.0983 18.659ZM144.716 14.6128C148.048 14.6128 149.99 16.4122 149.99 20.3251V32.1304H145.554V21.239C145.554 19.4682 145.044 18.302 143.174 18.302C141.303 18.302 139.608 19.949 139.608 22.9146V32.1447H135.262V21.239C135.262 19.5872 134.724 18.302 132.835 18.302C130.854 18.302 129.326 20.1299 129.326 23.0955V32.1399H124.852V14.9841C127.789 14.6223 128.898 15.8219 129.017 17.7403C129.534 16.7756 130.308 15.9729 131.253 15.4209C132.198 14.8689 133.278 14.5892 134.372 14.6128C137.461 14.6128 138.69 16.3217 139.132 17.945C139.884 16.2361 141.803 14.6128 144.711 14.6128H144.716ZM54.3482 14.9841C53.3962 20.0775 50.9304 28.108 49.3738 32.1542H44.6945L41.4005 20.7297H41.3386L38.0445 32.1542H33.3986C31.8991 28.1699 29.2001 19.8681 28.4194 14.9841H32.8273L35.7358 26.7942H35.793L39.2727 14.9841H43.6759L47.0651 26.7037H47.127L50.0641 14.9841H54.3482ZM25.787 18.6685C24.6245 18.2353 23.3996 17.9926 22.1597 17.9497C20.784 17.9497 19.732 18.3115 19.732 19.5682C19.732 22.5338 27.3483 20.7059 27.3483 26.8228C27.3483 30.9594 24.0162 32.535 20.208 32.535C18.4924 32.5331 16.7862 32.2814 15.1432 31.7876L15.4145 28.1604C16.9076 28.6449 18.459 28.9267 20.0272 28.9982C21.4981 28.9982 22.6976 28.5507 22.6976 27.2607C22.6976 24.0856 15.0527 26.123 15.0527 20.0395C15.0527 16.2313 18.2611 14.6747 21.7979 14.6747C23.426 14.6592 25.0454 14.9117 26.5915 15.4221L25.787 18.6685ZM113.903 32.5064C109.014 32.5064 105.601 29.8407 105.601 23.8429C105.601 18.4781 109.195 14.6128 114.413 14.6128C119.268 14.6128 122.414 17.3404 122.414 23.1812C122.414 28.784 118.997 32.5017 113.903 32.5017V32.5064ZM114.079 18.3924C112.104 18.3924 110.214 19.8586 110.214 23.6287C110.214 26.8989 111.442 28.7268 114.022 28.7268C116.212 28.7268 117.887 26.956 117.887 23.4906C117.887 20.1585 116.688 18.3972 114.079 18.3972V18.3924ZM56.357 32.1447H60.7602V14.9841C58.6943 14.7699 56.357 15.3411 56.357 18.5781V32.1447ZM58.7848 12.8135C59.1491 12.821 59.5113 12.7563 59.8504 12.623C60.1896 12.4896 60.4989 12.2904 60.7606 12.0367C61.0222 11.783 61.2309 11.48 61.3747 11.1452C61.5184 10.8103 61.5943 10.4503 61.598 10.0859C61.5566 9.37918 61.2467 8.71504 60.7317 8.22935C60.2166 7.74367 59.5355 7.47314 58.8276 7.47314C58.1197 7.47314 57.4386 7.74367 56.9235 8.22935C56.4085 8.71504 56.0986 9.37918 56.0572 10.0859C56.0646 10.807 56.3543 11.4964 56.8643 12.0064C57.3742 12.5163 58.0637 12.806 58.7848 12.8135ZM99.9034 32.4493C94.81 32.4493 91.4826 29.8978 91.4826 23.8143C91.4826 18.659 94.3387 14.6747 100.594 14.6747C102.024 14.6758 103.443 14.9188 104.792 15.3935L103.84 18.9875C102.845 18.5993 101.79 18.3867 100.722 18.3591C97.5186 18.3591 96.2 20.4584 96.2 23.5953C96.2 26.6514 97.3948 28.6888 100.546 28.6888C101.743 28.6792 102.926 28.4249 104.021 27.9414L104.53 31.4782C103.65 32.0257 101.822 32.4493 99.9034 32.4493Z" fill="currentColor"/>
    <path d="M12.913 39.2318C13.062 39.659 13.2293 40.0929 13.4212 40.5188C9.28201 38.1829 7.38895 35.0797 7.38895 32.6098C7.38895 31.2099 7.89912 30.0808 8.42765 29.2121C10.2398 31.1351 11.4043 33.1486 11.7981 35.0505C12.1253 36.632 12.511 38.0781 12.913 39.2318ZM20.9022 13.4269C23.4293 15.1329 26.529 17.2273 28.9799 19.3203C29.0969 18.5653 29.203 17.5878 29.203 16.4484C29.203 10.3088 25.3978 6.69679 21.6185 5.41117C20.6458 5.08058 19.5384 4.85475 18.5793 4.85475C18.1895 4.85475 17.7814 4.88604 17.3916 4.95542V10.9924C18.3147 11.6794 19.5289 12.4991 20.9022 13.4269ZM16.1767 0.644174C16.0237 0.60404 15.7917 0.587036 15.5101 0.59996C15.0421 0.621727 14.4374 0.72648 13.8456 0.941431C13.3769 1.11149 12.9158 1.35297 12.5375 1.67743C12.1151 2.03727 11.7947 2.49846 11.6723 3.08481C11.6403 3.2365 11.6199 3.42152 11.6186 3.58953C11.5975 5.94446 14.1034 8.33 16.1774 10.0353L16.1767 0.644174ZM30.5968 22.5072C30.0199 21.9065 29.3928 21.3059 28.7193 20.7046C24.8176 17.2253 18.8725 13.7051 16.1761 11.5951C13.847 9.77275 11.6805 7.728 10.9452 5.77236C10.7758 5.89753 10.6159 6.0152 10.4785 6.11588C9.32418 6.96139 8.16509 7.8001 7.04204 8.68439C6.30264 9.26734 5.57888 9.87138 4.88506 10.5094C4.23136 11.1101 3.56407 11.7706 2.96479 12.4875C1.85263 13.8207 0.973782 15.354 0.850662 17.0824C0.830255 17.3722 0.832976 17.6531 0.856103 17.9286C0.877871 18.2333 0.917323 18.5252 0.974462 18.8088C1.19621 19.9121 1.67509 20.8522 2.29817 21.6929C2.99608 22.633 3.87289 23.45 4.77282 24.2343C4.92655 24.3683 5.08096 24.5016 5.23537 24.6363C6.29176 25.5457 7.36582 26.4497 8.37663 27.4225C9.83571 28.8298 11.1587 30.3835 12.092 32.3153C12.9239 34.1417 13.1851 36.1157 13.7463 38.0224C13.8068 38.2264 13.8701 38.4291 13.9374 38.6311C14.0381 38.9304 14.147 39.2311 14.2694 39.5256C14.4571 39.9739 14.6782 40.4099 14.9605 40.8011V33.0547C13.2307 31.7657 13.6708 29.0618 12.7069 27.315C11.3635 24.8907 6.82709 24.1581 7.56173 20.6747C8.06237 18.3 11.3274 18.7054 12.5913 16.979C13.1994 16.1498 13.4205 15.1343 13.8361 14.2098C14.2905 13.1956 15.055 12.5487 16.1774 12.3998C16.1788 12.3984 16.1747 12.3998 16.1747 12.3998L16.1774 46.5278C17.0114 46.4591 17.8861 46.3428 18.782 46.1782C19.8894 45.9735 21.0294 45.6946 22.1729 45.3381C23.1381 45.0375 24.1034 44.6804 25.0461 44.2661C25.8869 43.8988 26.7106 43.4852 27.5017 43.0261C28.5302 42.4268 29.505 41.752 30.3927 40.9942C31.4123 40.1229 32.3184 39.1461 33.0544 38.0618C33.8224 36.9286 34.408 35.6769 34.7549 34.3015C34.944 33.5567 35.0597 32.7751 35.0964 31.9561C35.1386 31.0372 35.0413 30.1501 34.825 29.2897C34.5318 28.134 34.0258 27.0245 33.3489 25.9464C32.6123 24.771 31.6735 23.6302 30.5934 22.5099" fill="currentColor"/>
</svg>
