<svg xmlns="http://www.w3.org/2000/svg" viewBox="330.191 95.776 221.618 189.918"><g fill-rule="evenodd" clip-path="url(&quot;#a&quot;)" transform="translate(330.19 95.776)"><path fill="#a148ff" d="M151.011 8.906c3.183 7.448-.274 16.065-7.722 19.248-7.447 3.183-16.065-.274-19.248-7.721-3.183-7.448.274-16.066 7.722-19.249l.005-.002c7.447-3.18 16.062.278 19.243 7.724"/><path fill="#0eba7b" d="M123.945 66.317 96.7 8.223C93.349 1.158 84.906-1.853 77.841 1.498c-7.022 3.33-10.047 11.699-6.777 18.749l27.245 58.094c3.351 7.065 11.795 10.075 18.859 6.725 7.022-3.331 10.047-11.699 6.777-18.749"/></g><path fill-rule="evenodd" d="m359.64 246.63-10.525 28.957-10.488-28.956h-8.436l13.87 38.075h10.146l13.832-38.075h-8.398Z"/><g fill-rule="evenodd" clip-path="url(&quot;#b&quot;)" transform="translate(330.19 95.776)"><path d="M67.716 145.42c-1.216 0-2.23-.392-3.04-1.178-.811-.785-1.216-1.773-1.216-2.964 0-1.165.405-2.147 1.216-2.945.81-.798 1.811-1.197 3.002-1.197 1.165 0 2.153.399 2.964 1.197.81.798 1.216 1.78 1.216 2.945 0 1.191-.399 2.179-1.197 2.964-.798.786-1.78 1.178-2.945 1.178m-4.028 5.51h7.904v38h-7.904v-38Zm47.843 38.722a21.142 21.142 0 0 1-5.852-1.216c-1.9-.684-3.566-1.615-4.997-2.793-1.431-1.178-2.502-2.565-3.211-4.161l6.726-2.888c.329.684.905 1.355 1.73 2.014.822.659 1.791 1.197 2.906 1.615a9.876 9.876 0 0 0 3.496.627c1.19 0 2.299-.171 3.325-.513 1.026-.342 1.868-.868 2.527-1.577s.988-1.558.988-2.546c0-1.115-.374-1.982-1.121-2.603-.747-.621-1.678-1.096-2.793-1.425-1.115-.329-2.23-.646-3.344-.95-2.483-.557-4.757-1.324-6.821-2.299-2.065-.975-3.705-2.229-4.921-3.762-1.216-1.533-1.824-3.414-1.824-5.643 0-2.432.659-4.541 1.976-6.327 1.317-1.786 3.046-3.16 5.187-4.123 2.14-.963 4.427-1.444 6.859-1.444 3.04 0 5.826.646 8.36 1.938 2.533 1.292 4.471 3.065 5.814 5.32l-6.27 3.724c-.38-.76-.95-1.444-1.71-2.052a9.546 9.546 0 0 0-2.584-1.463 9.718 9.718 0 0 0-3.002-.627c-1.292-.051-2.489.095-3.59.437-1.103.342-1.984.881-2.642 1.615-.659.735-.988 1.672-.988 2.812 0 1.115.392 1.944 1.178 2.489.785.545 1.78.982 2.983 1.311a91.2 91.2 0 0 1 3.705 1.102 39.403 39.403 0 0 1 6.347 2.603c1.975 1.026 3.571 2.286 4.787 3.781 1.216 1.495 1.798 3.319 1.748 5.472 0 2.382-.716 4.471-2.147 6.27-1.431 1.799-3.287 3.167-5.567 4.104-2.279.937-4.699 1.33-7.258 1.178m57.61.266c-3.496 0-6.683-.9-9.558-2.698s-5.168-4.211-6.878-7.239c-1.71-3.027-2.564-6.378-2.564-10.051 0-2.787.494-5.39 1.481-7.809.989-2.419 2.35-4.547 4.085-6.384a19.013 19.013 0 0 1 6.062-4.313c2.305-1.038 4.763-1.558 7.372-1.558 3.496 0 6.682.899 9.557 2.698s5.168 4.218 6.878 7.258 2.565 6.41 2.565 10.108c0 2.762-.494 5.346-1.482 7.752-.989 2.407-2.35 4.529-4.085 6.365a19.044 19.044 0 0 1-6.042 4.313c-2.293 1.038-4.757 1.558-7.391 1.558m0-7.904c2.103 0 3.989-.557 5.662-1.672 1.672-1.115 2.995-2.59 3.971-4.427.974-1.837 1.463-3.832 1.463-5.985 0-2.204-.501-4.23-1.501-6.08-1.001-1.849-2.337-3.325-4.009-4.427-1.672-1.102-3.534-1.653-5.586-1.653-2.078 0-3.959.557-5.644 1.672-1.684 1.115-3.014 2.597-3.989 4.446-.975 1.85-1.464 3.863-1.464 6.042 0 2.255.507 4.294 1.521 6.118 1.013 1.824 2.362 3.275 4.047 4.351a10.059 10.059 0 0 0 5.529 1.615m44.573-50.084h7.904v57h-7.904v-57z"/></g><defs><clipPath id="a"><path d="M0 0h221.618v189.918H0V0z"/></clipPath><clipPath id="b"><path d="M0 0h221.618v189.918H0V0z"/></clipPath></defs></svg>
