<?xml version="1.0" standalone="no"?>
<!DOCTYPE svg PUBLIC "-//W3C//DTD SVG 1.1//EN" "http://www.w3.org/Graphics/SVG/1.1/DTD/svg11.dtd" >
<svg xmlns="http://www.w3.org/2000/svg">
<metadata></metadata>
<defs>
<font id="share-boldregular" horiz-adv-x="962" >
<font-face units-per-em="2048" ascent="1655" descent="-393" />
<missing-glyph horiz-adv-x="573" />
<glyph unicode="&#xfb01;" horiz-adv-x="1112" d="M51 793v231h133v82q0 104 21.5 172t65.5 106.5t109.5 53t154.5 14.5q49 0 101 -3t100 -9t91 -12.5t76 -12.5v-231q-55 10 -139 22.5t-178 12.5q-78 0 -103.5 -17.5t-25.5 -77.5v-100h522v-1024h-272v793h-250v-793h-273v793h-133z" />
<glyph unicode="&#xfb02;" horiz-adv-x="1167" d="M51 793v231h133v82q0 104 21.5 172t65.5 106.5t109.5 53t154.5 14.5q47 0 95 -6t77 -12h272v-1121q0 -49 12.5 -68.5t50.5 -19.5q23 0 44.5 3t29.5 5v-227q-23 -4 -75 -10t-111 -6q-127 0 -175 76.5t-48 236.5v490h-250v-793h-273v793h-133zM457 1024h250v184 q-29 4 -60 7.5t-61 3.5q-78 0 -103.5 -17.5t-25.5 -77.5v-100z" />
<glyph horiz-adv-x="2048" />
<glyph horiz-adv-x="2048" />
<glyph unicode="&#xd;" horiz-adv-x="573" />
<glyph unicode=" "  horiz-adv-x="573" />
<glyph unicode="&#x09;" horiz-adv-x="573" />
<glyph unicode="&#xa0;" horiz-adv-x="573" />
<glyph unicode="!" horiz-adv-x="552" d="M123 0v266h307v-266h-307zM137 467v967h277v-967h-277z" />
<glyph unicode="&#x22;" horiz-adv-x="860" d="M82 1208v226h297v-226l-62 -321h-174zM481 1208v226h297v-226l-61 -321h-174z" />
<glyph unicode="#" horiz-adv-x="1015" d="M31 348l20 236h123l25 286h-123l20 236h123l29 328h260l-29 -328h123l29 328h260l-29 -328h123l-20 -236h-123l-25 -286h123l-20 -236h-123l-31 -348h-260l31 348h-123l-31 -348h-260l31 348h-123zM434 584h123l25 286h-123z" />
<glyph unicode="$" d="M106 987q0 147 60.5 239.5t195.5 133.5v237h256v-213q47 -4 101.5 -11t91.5 -17v-242q-27 6 -59.5 11t-66.5 10.5t-67.5 7.5t-60.5 2q-76 0 -121 -24.5t-45 -110.5q0 -72 32 -114t114 -58q74 -14 133 -43t100 -77t63.5 -119t22.5 -173q0 -96 -16.5 -167t-47 -121 t-74.5 -80.5t-100 -47.5v-235h-256v211q-63 2 -124.5 9t-108.5 19v244q47 -12 115.5 -21.5t128.5 -9.5q111 0 154.5 43t43.5 136q0 168 -163 200q-147 31 -224.5 123t-77.5 258z" />
<glyph unicode="%" horiz-adv-x="1875" d="M133 1024q0 96 13.5 175t48 135.5t98 87t162.5 30.5q98 0 161.5 -30.5t98.5 -87t48 -135.5t13 -175t-13 -177t-48 -140.5t-98.5 -93t-161.5 -33.5t-162 33.5t-98.5 93t-48 140.5t-13.5 177zM356 1016q0 -76 4.5 -125t14.5 -78t29.5 -40t50.5 -11t50 11t29.5 40t14.5 78 t4 125q0 78 -4 128t-15.5 77.5t-30 38t-48.5 10.5q-31 0 -49.5 -9.5t-29.5 -37t-15.5 -77.5t-4.5 -130zM567 0l502 1434h242l-502 -1434h-242zM1100 426q0 96 13 175t48 135.5t98.5 87t161.5 30.5t162 -30.5t98.5 -87t48 -135.5t13.5 -175t-13.5 -177t-48 -140.5t-98 -93 t-162.5 -33.5q-98 0 -161.5 33.5t-98.5 93t-48 140.5t-13 177zM1323 418q0 -76 4 -125t14.5 -78t30 -40t49.5 -11q31 0 50.5 11t29.5 40t14.5 78t4.5 125q0 78 -4.5 128t-15.5 77.5t-29.5 38t-49.5 10.5t-49 -9.5t-29.5 -37t-15.5 -77.5t-4 -130z" />
<glyph unicode="&#x26;" horiz-adv-x="1054" d="M92 438q0 158 34 249t130 130q-74 45 -105.5 112.5t-31.5 143.5q0 115 24.5 187.5t71.5 114.5t116.5 58.5t160.5 16.5q39 0 85 -3t88 -7t73.5 -8.5t39.5 -8.5v-231q-8 2 -36.5 6t-63.5 9t-71 8.5t-58 3.5q-90 0 -122 -28t-32 -106q0 -96 32 -130.5t130 -34.5h467v-232 h-150v-670q-82 -16 -187 -27t-216 -11q-102 0 -175 25.5t-118 80.5t-65.5 142t-20.5 210zM371 418q0 -104 28.5 -155.5t106.5 -51.5q35 0 62.5 4t45.5 10v463h-88q-45 0 -74.5 -11t-48 -42t-25.5 -83t-7 -134z" />
<glyph unicode="'" horiz-adv-x="460" d="M82 1208v226h297v-226l-62 -321h-174z" />
<glyph unicode="(" horiz-adv-x="665" d="M82 717q0 287 60.5 520t199.5 442h231q-63 -109 -105 -217t-66.5 -225t-34 -245t-9.5 -275t9.5 -275.5t34 -245t66.5 -225t105 -217.5h-231q-139 209 -199.5 442.5t-60.5 520.5z" />
<glyph unicode=")" horiz-adv-x="665" d="M92 -246q63 109 105.5 217.5t67 225t33.5 244.5t9 276q0 147 -9 275t-33.5 245t-66.5 225.5t-106 216.5h232q139 -209 199.5 -442t60.5 -520t-60.5 -520.5t-199.5 -442.5h-232z" />
<glyph unicode="*" horiz-adv-x="1075" d="M82 1065l86 250l266 -117q-6 72 -17 154t-16 143h275l-31 -297q66 25 138.5 56.5t131.5 54.5l78 -248l-274 -45q47 -57 102.5 -125t96.5 -117l-218 -151l-163 280q-20 -33 -43 -70.5t-44.5 -75.5t-42 -74t-38.5 -65l-213 160l202 234q-70 16 -142.5 28.5t-133.5 24.5z " />
<glyph unicode="+" horiz-adv-x="1146" d="M141 502v235h308v324h249v-324h308v-235h-308v-324h-249v324h-308z" />
<glyph unicode="," horiz-adv-x="512" d="M20 -307l82 307v266h308v-266l-189 -307h-201z" />
<glyph unicode="-" horiz-adv-x="1013" d="M154 502v235h706v-235h-706z" />
<glyph unicode="." horiz-adv-x="512" d="M102 0v266h308v-266h-308z" />
<glyph unicode="/" horiz-adv-x="665" d="M-41 -225l483 1884h265l-484 -1884h-264z" />
<glyph unicode="0" d="M72 733q0 180 13 315.5t56 224.5t124 134t216 45t216 -45t124 -134t56.5 -224.5t13.5 -315.5q0 -188 -14.5 -329.5t-58.5 -234.5t-125 -140t-212 -47t-212 47t-125 140t-58 234.5t-14 329.5zM344 723q0 -164 4 -264.5t17.5 -155.5t41 -74.5t74.5 -19.5t75 19.5t42 74.5 t17 155.5t3 264.5q0 160 -3 258t-17 152.5t-42 73t-75 18.5t-74.5 -18.5t-41 -73t-17.5 -152.5t-4 -258z" />
<glyph unicode="1" d="M121 1081v250l239 103h293v-1203h197v-231h-709v231h240v953z" />
<glyph unicode="2" d="M104 0v258l287 389q53 68 84 118t46.5 93t18.5 86t3 98q0 94 -36 136.5t-134 42.5q-53 0 -119 -13.5t-113 -23.5v233q8 2 36 7.5t66 11.5t80 11t78 5q123 0 203 -27.5t126 -82t64.5 -134.5t18.5 -184q0 -72 -4 -124t-19.5 -100t-45 -98.5t-78.5 -117.5l-256 -351h409 v-233h-715z" />
<glyph unicode="3" d="M123 16v228q18 -4 48 -10.5t64.5 -11.5t72.5 -9t71 -4q74 0 118 50t44 147q0 121 -36 174t-130 53h-158v223h137q88 0 126 51t38 144q0 88 -32.5 131t-110.5 43q-68 0 -132.5 -12.5t-109.5 -22.5v227q8 2 37 7.5t66.5 11.5t81.5 11t83 5q98 0 171 -19.5t122 -66.5 t73 -126t24 -196q0 -45 -8.5 -91t-27 -85t-47 -68.5t-71.5 -43.5q86 -16 132 -96t46 -234q0 -129 -30.5 -215t-85 -136t-128 -71.5t-159.5 -21.5q-37 0 -84 5t-90 11t-76 11t-39 7z" />
<glyph unicode="4" d="M102 319v259l193 856h264l-197 -883h136l45 385h231v-385h123v-232h-123v-319h-276v319h-396z" />
<glyph unicode="5" d="M123 16v230q29 -6 103.5 -20.5t160.5 -14.5t125 58.5t39 166.5q0 82 -11.5 131t-34 76t-53 35t-71.5 8h-238v748h641v-232h-368v-299h10q111 0 186.5 -22.5t122.5 -74.5t68.5 -137t21.5 -212q0 -139 -29.5 -230.5t-83 -145.5t-126 -76.5t-156.5 -22.5q-39 0 -83 4t-86 9 t-79 11t-59 10z" />
<glyph unicode="6" d="M80 727q0 215 31.5 355.5t94 222t158 114.5t222.5 33q25 0 55.5 -2t61 -6t57 -8t41.5 -9v-229q-41 10 -96.5 19.5t-126.5 9.5q-57 0 -97.5 -16.5t-67 -55.5t-40 -104.5t-17.5 -163.5q41 23 87 38t100 15q102 0 169.5 -29.5t107.5 -91t55.5 -156t15.5 -223.5 q0 -131 -34 -220t-90 -141t-132 -74.5t-160 -22.5q-96 0 -170 32.5t-124 116.5t-75.5 228.5t-25.5 367.5zM352 684q0 -162 8.5 -256t25.5 -143t43 -63.5t60 -14.5q35 0 59.5 11t40 41t22.5 79t7 125q0 135 -28 195.5t-96 60.5q-41 0 -77 -10.5t-65 -24.5z" />
<glyph unicode="7" d="M92 1194v240h707v-281l-322 -1153h-284l335 1194h-436z" />
<glyph unicode="8" d="M55 428q0 70 15.5 121t41 88t58.5 60.5t68 35.5q-35 16 -64 49t-48.5 75t-30.5 89t-11 90q0 121 27.5 201t80 128t125 67.5t164.5 19.5t165 -19.5t125 -67.5t80 -128t28 -201q0 -33 -9.5 -71.5t-28 -75.5t-49 -70t-73.5 -53q49 -12 85 -45t59.5 -79t33.5 -101.5 t10 -112.5q0 -215 -97 -330.5t-329 -115.5q-231 0 -328.5 115.5t-97.5 330.5zM328 408q0 -115 33.5 -159t119.5 -44t120 44t34 159q0 61 -6 105t-28.5 72.5t-67 43t-121.5 14.5q-25 -16 -41.5 -33.5t-25.5 -43t-13 -63.5t-4 -95zM352 1055q0 -49 5 -86t24.5 -62.5t57.5 -39 t102 -13.5q43 27 56 76t13 125q0 100 -24.5 139t-100.5 39q-66 0 -99.5 -39t-33.5 -139z" />
<glyph unicode="9" d="M57 993q0 135 34 223.5t90.5 140.5t132 73.5t159.5 21.5q96 0 170 -28.5t124 -107.5t75.5 -219.5t25.5 -363.5q0 -242 -30.5 -389t-91 -228t-150.5 -107.5t-209 -26.5q-25 0 -56.5 2t-62 6t-58.5 8t-42 8v230q41 -10 98.5 -19.5t128.5 -9.5q51 0 87 12t59.5 49t35 103.5 t15.5 175.5q-41 -25 -87 -39t-99 -14q-102 0 -170 34.5t-108 99t-55.5 156.5t-15.5 209zM330 971q0 -135 28.5 -195.5t96.5 -60.5q41 0 76.5 9t64.5 26q0 172 -9 268t-25.5 142t-42 56.5t-60.5 10.5q-33 0 -56.5 -11.5t-40 -41t-24.5 -78.5t-8 -125z" />
<glyph unicode=":" horiz-adv-x="512" d="M102 0v266h308v-266h-308zM102 758v266h308v-266h-308z" />
<glyph unicode=";" horiz-adv-x="512" d="M20 -307l82 307v266h308v-266l-189 -307h-201zM102 758v266h308v-266h-308z" />
<glyph unicode="&#x3c;" horiz-adv-x="1126" d="M154 514v334l819 346v-268l-613 -238l613 -239v-273z" />
<glyph unicode="=" horiz-adv-x="1126" d="M154 297v235h819v-235h-819zM154 707v235h819v-235h-819z" />
<glyph unicode="&#x3e;" horiz-adv-x="1126" d="M154 176v273l612 239l-612 238v268l819 -346v-334z" />
<glyph unicode="?" horiz-adv-x="778" d="M61 1188v231q20 4 53 10.5t70 11.5t74 8t64 3q98 0 172.5 -14.5t124 -55.5t74 -112.5t24.5 -188.5q0 -49 -5 -87t-17.5 -70.5t-34 -64.5t-52.5 -68l-149 -181v-143h-277v223l164 201q25 31 43.5 54.5t29.5 44t16 41t5 46.5q0 39 -5 65.5t-22.5 44t-49 25t-87.5 7.5 q-41 0 -102 -9.5t-113 -21.5zM168 0v266h307v-266h-307z" />
<glyph unicode="@" horiz-adv-x="1726" d="M154 707q0 217 38.5 360t123.5 229t221.5 121t328.5 35q193 0 327 -25.5t219 -94t123 -191.5t38 -320q0 -117 -11.5 -222t-46 -186t-101 -128t-175.5 -47q-72 0 -136.5 38.5t-90.5 135.5q-12 -18 -29.5 -40t-44.5 -38.5t-64.5 -27.5t-89.5 -11q-57 0 -107 14.5t-87 56.5 t-58.5 118.5t-21.5 201.5q0 141 31.5 225t86 129t129 59.5t161.5 14.5q23 0 58.5 -2t73 -6t73.5 -9t59 -12v-591q0 -31 15 -46.5t38 -15.5q25 0 39 9.5t20 47t8.5 116.5t2.5 216q0 139 -12.5 219t-57.5 121t-132 52.5t-237 11.5q-139 0 -226 -20.5t-135 -77t-65.5 -158 t-17.5 -262.5q0 -160 16.5 -258.5t62.5 -151.5t127 -70.5t210 -17.5q76 0 151.5 5t118.5 9v-225q-27 -4 -61.5 -6t-71.5 -5t-73 -4t-64 -1q-203 0 -335 33.5t-210 116.5t-108.5 223.5t-30.5 351.5zM756 707q0 -117 18.5 -161t73.5 -44q35 0 55.5 13t29.5 32.5t11 44t2 47.5 v264q-12 4 -38.5 7t-57.5 3q-94 0 -94 -206z" />
<glyph unicode="A" horiz-adv-x="1116" d="M31 0l327 1434h414l313 -1434h-288l-66 334h-342l-65 -334h-293zM436 575h250l-127 678z" />
<glyph unicode="B" horiz-adv-x="1120" d="M143 0v1434q68 6 136 10q57 4 121.5 6t115.5 2q125 0 211 -22.5t140.5 -69.5t78 -121t23.5 -176q0 -74 -16.5 -125t-42 -85t-58.5 -52.5t-66 -28.5q41 -4 81 -25.5t71 -61.5t50.5 -100.5t19.5 -144.5q0 -143 -35 -232t-96.5 -139.5t-145.5 -68.5t-182 -18q-66 0 -136.5 2 t-129.5 6q-70 4 -140 10zM424 233q23 0 45 -2q20 -2 47 -3t55 -1q86 0 119 56.5t33 154.5q0 59 -14.5 97t-39 62t-56 33t-66.5 9h-123v-406zM424 868h108q86 0 123 41t37 135q0 78 -34.5 121t-96.5 43q-25 0 -49.5 -1t-44.5 -3q-23 -2 -43 -4v-332z" />
<glyph unicode="C" horiz-adv-x="886" d="M102 739q0 233 31 373.5t92.5 214.5t151.5 97.5t207 23.5q20 0 53 -3t66.5 -7t61.5 -9.5t40 -9.5v-248q-51 12 -122 21.5t-126 9.5q-45 0 -76.5 -15.5t-52 -64.5t-31 -143t-10.5 -254t9.5 -256t28.5 -149.5t52 -71t80 -17.5q63 0 136 10.5t112 20.5v-246q-16 -4 -48 -9 t-68 -10t-71.5 -8t-60.5 -3q-117 0 -203 30.5t-142 113.5t-83 229.5t-27 379.5z" />
<glyph unicode="D" horiz-adv-x="1118" d="M143 0v1434q72 4 140 10q57 4 118.5 7t104.5 3q123 0 218 -26.5t159.5 -104.5t98.5 -217.5t34 -366.5q0 -229 -31 -376.5t-92.5 -232.5t-152.5 -117.5t-210 -32.5q-53 0 -120.5 3t-126.5 7q-68 6 -140 10zM424 236q12 -2 31 -5q16 -2 38.5 -3t55.5 -1q47 0 82 22.5 t57.5 79t32.5 153t10 243.5q0 166 -11 261t-32.5 144.5t-55.5 62.5t-81 13q-29 0 -52.5 -1t-39.5 -3q-20 -2 -35 -4v-962z" />
<glyph unicode="E" horiz-adv-x="978" d="M143 0v1434h734v-222h-453v-362h401v-219h-401v-410h453v-221h-734z" />
<glyph unicode="F" horiz-adv-x="989" d="M174 0v1434h733v-222h-452v-383h401v-221h-401v-608h-281z" />
<glyph unicode="G" horiz-adv-x="1044" d="M102 739q0 227 35 366.5t101.5 216.5t165 103.5t225.5 26.5q51 0 123.5 -10t136.5 -25v-241q-66 12 -140.5 21t-140.5 9q-63 0 -106 -18.5t-68.5 -70.5t-36 -146t-10.5 -246q0 -154 9.5 -251t31 -152.5t57 -75t88.5 -19.5h44.5t41.5 2v324h-131v242h404v-777 q-82 -16 -175 -26t-177 -10q-129 0 -220.5 32.5t-148.5 117.5t-83 231.5t-26 375.5z" />
<glyph unicode="H" horiz-adv-x="1167" d="M143 0v1434h281v-592h319v592h281v-1434h-281v608h-319v-608h-281z" />
<glyph unicode="I" horiz-adv-x="710" d="M72 0v217h143v1000h-143v217h567v-217h-143v-1000h143v-217h-567z" />
<glyph unicode="J" horiz-adv-x="851" d="M61 8v244q43 -8 105.5 -14.5t112.5 -6.5q49 0 79.5 15.5t48 49.5t24.5 89t7 135v672h-291v242h572v-899q0 -160 -18.5 -266.5t-65.5 -171t-125 -91t-199 -26.5q-25 0 -58.5 2t-67 6t-66.5 9t-58 11z" />
<glyph unicode="K" horiz-adv-x="1120" d="M143 0v1434h281v-496l330 496h315l-428 -623l438 -811h-323l-291 563l-41 -63v-500h-281z" />
<glyph unicode="L" horiz-adv-x="860" d="M143 0v1434h281v-1196h416v-238h-697z" />
<glyph unicode="M" horiz-adv-x="1363" d="M143 0v1434h426l121 -551l123 551h408v-1434h-254v1227l-176 -746h-213l-185 746v-1227h-250z" />
<glyph unicode="N" horiz-adv-x="1212" d="M143 0v1434h408l274 -1174v1174h244v-1434h-407l-271 1151v-1151h-248z" />
<glyph unicode="O" horiz-adv-x="1163" d="M102 733q0 180 19.5 315.5t73 225.5t146.5 135t241 45q147 0 240 -45t146.5 -135t73 -225.5t19.5 -315.5q0 -188 -17.5 -329.5t-69.5 -235.5t-146.5 -141t-245.5 -47q-152 0 -246 47t-146.5 141t-70 235.5t-17.5 329.5zM387 723q0 -156 10.5 -256t33 -159.5t59 -83 t92.5 -23.5q55 0 92 23.5t59.5 83t32.5 159.5t10 256q0 158 -10 257t-32.5 155.5t-59.5 77t-92 20.5t-92 -20.5t-59.5 -77t-33 -155.5t-10.5 -257z" />
<glyph unicode="P" horiz-adv-x="1064" d="M143 0v1434q59 4 125 10q55 4 122 7t130 3q139 0 230.5 -31.5t145.5 -92t75.5 -149.5t21.5 -204q0 -135 -28.5 -227.5t-86 -149.5t-142.5 -81.5t-195 -24.5h-117v-494h-281zM424 735h129q72 0 114 62t42 166q0 121 -32 183t-120 62q-66 0 -100 -6q-20 -4 -33 -6v-461z " />
<glyph unicode="Q" horiz-adv-x="1163" d="M102 733q0 180 19.5 315.5t73 225.5t146.5 135t241 45q147 0 240 -45t146.5 -135t73 -225.5t19.5 -315.5q0 -264 -42 -435t-161 -251l203 -47v-254l-553 238q-129 10 -208 62t-123 146.5t-59.5 229.5t-15.5 311zM387 723q0 -156 10.5 -256t33 -159.5t59 -83t92.5 -23.5 q55 0 92 23.5t59.5 83t32.5 159.5t10 256q0 158 -10 257t-32.5 155.5t-59.5 77t-92 20.5t-92 -20.5t-59.5 -77t-33 -155.5t-10.5 -257z" />
<glyph unicode="R" horiz-adv-x="1091" d="M143 0v1434q59 4 125 10q55 4 122 7t130 3q133 0 221 -27.5t141.5 -85t75 -142.5t21.5 -200q0 -170 -51 -267t-144 -144l256 -588h-317l-217 541h-82v-541h-281zM424 782h129q63 0 102 51.5t39 151.5q0 121 -28.5 172t-116.5 51q-49 0 -86 -6q-23 -4 -39 -6v-414z" />
<glyph unicode="S" horiz-adv-x="868" d="M51 1036q0 115 32 193t94.5 127t153.5 70.5t208 21.5q29 0 63.5 -2t69.5 -7t66.5 -10.5t54.5 -11.5v-241q-27 6 -63 11t-74 10t-74.5 7t-63.5 2q-88 0 -135 -34.5t-47 -112.5q0 -49 7 -81t25.5 -51.5t49.5 -31.5t80 -23q74 -14 134 -43.5t104 -81t67.5 -129t23.5 -192.5 q0 -143 -35.5 -230t-98 -134.5t-149.5 -61.5t-190 -14q-33 0 -72.5 2t-79.5 6t-76 10t-63 12v244q25 -6 59 -12t70.5 -10.5t73.5 -7.5t68 -3q96 0 152.5 40t56.5 139q0 55 -11.5 94t-34 63.5t-55 38.5t-73.5 23q-172 35 -245 133t-73 278z" />
<glyph unicode="T" horiz-adv-x="911" d="M20 1186v248h871v-248h-295v-1186h-281v1186h-295z" />
<glyph unicode="U" horiz-adv-x="1136" d="M133 440v994h281v-1033q0 -174 155 -174q80 0 117 44t37 130v1033h281v-994q0 -127 -29 -214t-84 -140t-136 -76.5t-186 -23.5q-104 0 -185 23.5t-136 76.5t-85 140t-30 214z" />
<glyph unicode="V" horiz-adv-x="1110" d="M51 1434h295l215 -1233l223 1233h275l-289 -1434h-432z" />
<glyph unicode="W" horiz-adv-x="1286" d="M92 1434h250l55 -1215l146 610h233l129 -610l58 1215h231l-70 -1434h-395l-86 481l-102 -481h-379z" />
<glyph unicode="X" horiz-adv-x="1075" d="M31 0l368 743l-327 691h311l168 -424l174 424h305l-342 -689l356 -745h-317l-188 475l-203 -475h-305z" />
<glyph unicode="Y" horiz-adv-x="1087" d="M20 1434h304l227 -553l227 553h289l-383 -803v-631h-287v631z" />
<glyph unicode="Z" horiz-adv-x="954" d="M72 0v272l512 918h-465v244h764v-273l-510 -917h489v-244h-790z" />
<glyph unicode="[" horiz-adv-x="675" d="M143 -246v1925h451v-235h-184v-1444h184v-246h-451z" />
<glyph unicode="\" horiz-adv-x="665" d="M-41 1659h264l484 -1884h-265z" />
<glyph unicode="]" horiz-adv-x="675" d="M82 0h184v1444h-184v235h450v-1925h-450v246z" />
<glyph unicode="^" horiz-adv-x="1017" d="M61 860l275 696h356l264 -696h-309l-133 492l-170 -492h-283z" />
<glyph unicode="_" horiz-adv-x="1044" d="M6 -102h1032v-246h-1032v246z" />
<glyph unicode="`" horiz-adv-x="641" d="M51 1464h326l213 -276h-228z" />
<glyph unicode="a" horiz-adv-x="1042" d="M92 309q0 186 111.5 264t322.5 78h92v43q0 59 -29.5 91t-107.5 32q-88 0 -162.5 -13t-152.5 -36v233q29 8 67.5 15.5t80.5 13.5t86 9t81 3q131 0 211 -21.5t124 -66.5t59.5 -114.5t15.5 -163.5v-406q0 -31 16.5 -48t63.5 -17v-205h-119q-41 0 -94 16.5t-82 67.5 q-39 -47 -102.5 -74.5t-167.5 -27.5q-68 0 -125.5 16t-99.5 54t-65.5 100.5t-23.5 156.5zM369 324q0 -47 25.5 -80t88.5 -33q43 0 69 15.5t41 38t20 48t5 45.5v93h-102q-66 0 -106.5 -29t-40.5 -98z" />
<glyph unicode="b" horiz-adv-x="1058" d="M133 10v1424h273v-463q43 33 97 52t120 19q84 0 147.5 -23.5t104 -76.5t61 -142t20.5 -222q0 -168 -25.5 -283t-81.5 -184.5t-149.5 -99t-228.5 -29.5q-111 0 -196 10t-142 18zM406 219q23 -2 43 -3t40 -1q57 0 94.5 13.5t59 51t29.5 104.5t8 173q0 78 -6 127t-21.5 76.5 t-40 38t-61.5 10.5q-68 0 -106.5 -49t-38.5 -105v-436z" />
<glyph unicode="c" horiz-adv-x="833" d="M102 532q0 274 107.5 392t308.5 118q51 0 120 -9t114 -19v-240q-29 6 -52.5 11.5t-48 9.5t-53.5 6t-68 2q-35 0 -62.5 -12.5t-46 -46t-28.5 -94t-10 -158.5q0 -154 36 -212.5t107 -58.5q78 0 129.5 10.5t96.5 18.5v-238q-49 -14 -115 -22t-121 -8q-100 0 -177 20.5 t-129 79.5t-80 166.5t-28 283.5z" />
<glyph unicode="d" horiz-adv-x="1073" d="M102 485q0 158 29 264.5t88.5 172t152.5 93t222 27.5q20 0 38.5 -1t35.5 -1v394h272v-1434h-221l-21 84q-49 -47 -112.5 -74.5t-143.5 -27.5q-86 0 -149.5 23.5t-106.5 80.5t-63.5 154.5t-20.5 244.5zM379 467q0 -78 7 -127t23.5 -76.5t42 -38t62.5 -10.5q35 0 62.5 13.5 t48 36t32 50t11.5 54.5v434q-23 2 -46.5 4t-46.5 2q-53 0 -91 -13.5t-61.5 -51t-33.5 -104.5t-10 -173z" />
<glyph unicode="e" horiz-adv-x="1001" d="M102 512q0 141 28 242.5t82 165t132 93t178 29.5q117 0 191.5 -30.5t117.5 -89t60.5 -144.5t17.5 -194v-172h-530q6 -113 42 -155t128 -42q86 0 162.5 10.5t122.5 20.5v-230q-25 -6 -62 -13t-78 -11t-78.5 -7t-66.5 -3q-111 0 -195 18t-140 75.5t-84 161t-28 275.5z M381 612h266v54q0 76 -30.5 113.5t-98.5 37.5q-63 0 -95 -45t-42 -160z" />
<glyph unicode="f" horiz-adv-x="698" d="M51 793v231h133v82q0 104 19.5 172t58.5 106.5t97.5 53t134.5 14.5q66 0 130 -9t95 -16v-231q-33 8 -76 15.5t-98 7.5q-51 0 -69.5 -26t-18.5 -69v-100h223v-231h-223v-793h-273v793h-133z" />
<glyph unicode="g" horiz-adv-x="1122" d="M92 684q0 119 41 189.5t108.5 108.5t152.5 49t173 11q102 0 178 -24l336 14v-209l-131 8q29 -73 29 -163q0 -184 -114.5 -267.5t-348.5 -83.5q-66 0 -121 7q-12 -25 -12 -60q0 -12 4 -33q66 6 133.5 9.5t108.5 3.5q92 0 163.5 -16.5t122 -54.5t76 -101.5t25.5 -157.5 q0 -102 -39 -162.5t-104.5 -93.5t-150.5 -42t-179 -9q-39 0 -95.5 3t-114 8t-108.5 11t-80 13v221q39 -6 89.5 -13.5t105.5 -11.5t110.5 -7t104.5 -3q104 0 142 22.5t38 69.5q0 39 -23.5 65.5t-101.5 26.5q-29 0 -79 -2t-104 -5t-105.5 -7t-81.5 -8q-31 29 -64 89t-33 142 q0 106 54 178q-53 45 -79 114t-26 171zM365 668q0 -133 151 -133q45 0 81 5t60.5 21.5t37 46t12.5 76.5q0 78 -35 107.5t-125 29.5q-111 0 -146.5 -34.5t-35.5 -118.5z" />
<glyph unicode="h" horiz-adv-x="1073" d="M133 0v1434h273v-461q43 33 96 51t116 18q106 0 171 -24.5t101 -75.5t48 -127t12 -180v-635h-272v641q0 102 -30 134t-85 32q-78 0 -115.5 -45t-41.5 -98v-664h-273z" />
<glyph unicode="i" horiz-adv-x="538" d="M123 1198v236h293v-236h-293zM133 0v1024h273v-1024h-273z" />
<glyph unicode="j" horiz-adv-x="538" d="M-92 -123q27 -4 65.5 -5t63.5 -1q55 0 75.5 19.5t20.5 72.5v1061h273v-1051q0 -98 -18.5 -162.5t-57.5 -102.5t-100.5 -54t-147.5 -16q-49 0 -91 3t-83 7v229zM123 1198v236h293v-236h-293z" />
<glyph unicode="k" horiz-adv-x="1013" d="M133 0v1434h273v-717l245 307h312l-347 -410l367 -614h-313l-221 424l-43 -55v-369h-273z" />
<glyph unicode="l" horiz-adv-x="593" d="M133 303v1131h273v-1121q0 -49 12 -68.5t51 -19.5q23 0 44.5 3t29.5 5v-227q-23 -4 -75 -10t-112 -6q-127 0 -175 76.5t-48 236.5z" />
<glyph unicode="m" horiz-adv-x="1536" d="M133 0v1024h221l17 -76q45 43 102 68.5t125 25.5q98 0 157.5 -26.5t94.5 -77.5q47 47 110.5 75.5t141.5 28.5q102 0 163.5 -25.5t94.5 -76.5t43 -127t10 -178v-635h-272v641q0 102 -22.5 134t-71.5 32q-72 0 -103 -45t-35 -98v-664h-272v641q0 102 -22.5 134t-71.5 32 q-74 0 -105.5 -49t-31.5 -105v-653h-273z" />
<glyph unicode="n" horiz-adv-x="1073" d="M133 0v1024h221l19 -80q47 45 108.5 71.5t136.5 26.5q106 0 171 -24.5t101 -75.5t48 -127t12 -180v-635h-272v641q0 102 -30 134t-85 32q-78 0 -115.5 -45t-41.5 -98v-664h-273z" />
<glyph unicode="o" horiz-adv-x="1085" d="M102 532q0 262 103.5 384t335.5 122q231 0 336.5 -122t105.5 -384q0 -162 -28.5 -267t-84 -167.5t-138.5 -87t-191 -24.5q-109 0 -191 24.5t-137 87t-83 168t-28 266.5zM381 502q0 -86 7 -142.5t25.5 -90t49.5 -48t78 -14.5t78.5 14.5t50 48t27 90t8.5 142.5 q0 90 -8.5 150.5t-28 97t-50 52t-77.5 15.5q-45 0 -76 -15.5t-49.5 -52t-26.5 -97t-8 -150.5z" />
<glyph unicode="p" horiz-adv-x="1062" d="M133 -348v1372h221l21 -84q47 47 108.5 74.5t143.5 27.5q84 0 147.5 -23.5t104.5 -76.5t61.5 -142t20.5 -222q0 -168 -26 -283t-82 -184.5t-148.5 -99t-225.5 -29.5h-36.5t-36.5 2v-332h-273zM406 219q23 -2 45 -3t43 -1q57 0 94 13.5t58.5 51t29.5 104.5t8 173 q0 78 -6 127t-21.5 76.5t-40 38t-61.5 10.5q-68 0 -108.5 -49t-40.5 -105v-436z" />
<glyph unicode="q" horiz-adv-x="1073" d="M102 485q0 158 28 264.5t86 172t149.5 93t220.5 27.5q55 0 99 -2t84 -5t81 -8t90 -13v-1362h-272v409q-47 -37 -103.5 -58t-128.5 -21q-86 0 -148.5 23.5t-104.5 80.5t-61.5 154.5t-19.5 244.5zM379 467q0 -78 6 -127t21.5 -76.5t40 -38t61.5 -10.5q33 0 61.5 13.5t50 34 t34 47t14.5 52.5v441q-27 2 -52.5 4t-48.5 2q-53 0 -90 -13.5t-58.5 -51t-30.5 -104.5t-9 -173z" />
<glyph unicode="r" horiz-adv-x="722" d="M133 0v1024h221l21 -92q41 49 94 79.5t119 30.5q47 0 94 -10v-270q-27 6 -50.5 9t-51.5 3q-51 0 -84 -25.5t-53.5 -67.5t-28.5 -95.5t-8 -108.5v-477h-273z" />
<glyph unicode="s" horiz-adv-x="870" d="M92 723q0 172 104.5 245.5t321.5 73.5q31 0 65.5 -4t67.5 -9t60.5 -11t42.5 -10v-234q-47 14 -103.5 26.5t-140.5 12.5q-76 0 -108.5 -18.5t-32.5 -65.5q0 -37 32.5 -56.5t100.5 -29.5q160 -27 223 -110t63 -224q0 -94 -29.5 -156.5t-83.5 -100.5t-130 -54t-168 -16 q-39 0 -80 3t-79 8t-69.5 10t-52.5 11v234q41 -10 106.5 -23.5t137.5 -13.5t120 16.5t48 69.5q0 47 -25.5 71.5t-103.5 39.5q-158 29 -222.5 106.5t-64.5 208.5z" />
<glyph unicode="t" horiz-adv-x="712" d="M41 788v236h133v246h272v-246h205v-236h-205v-481q0 -49 19.5 -70.5t66.5 -21.5q33 0 70 6t60 12v-227l-35 -7t-55.5 -8t-63.5 -6t-62 -3q-86 0 -139 27.5t-82.5 73.5t-40 106.5t-10.5 127.5v471h-133z" />
<glyph unicode="u" horiz-adv-x="1060" d="M123 381v643h272v-651q0 -51 8.5 -82t22.5 -47.5t35.5 -21.5t48.5 -5q78 0 111.5 49t33.5 105v653h273v-1024h-221l-19 80q-47 -45 -106.5 -71.5t-137.5 -26.5q-96 0 -158.5 24.5t-98 74.5t-50 125t-14.5 175z" />
<glyph unicode="v" horiz-adv-x="1007" d="M41 1022h285l182 -827l184 827h275l-265 -1024h-395z" />
<glyph unicode="w" horiz-adv-x="1314" d="M31 1024h272l96 -782l150 598h242l139 -598l98 782h256l-158 -1024h-358l-111 504l-120 -504h-349z" />
<glyph unicode="x" horiz-adv-x="1034" d="M51 0l305 532l-272 492h313l125 -244l125 244h299l-278 -467l315 -557h-315l-154 309l-162 -309h-301z" />
<glyph unicode="y" horiz-adv-x="1009" d="M41 1024h291l198 -797l175 797h264l-262 -1110q-66 -276 -291 -276q-16 0 -44 1t-55.5 2t-51 3t-34.5 4v231q49 -6 101 -6q84 0 100 90l6 37h-69z" />
<glyph unicode="z" horiz-adv-x="856" d="M61 0v227l424 578h-383v219h693v-246l-422 -559h401v-219h-713z" />
<glyph unicode="{" horiz-adv-x="706" d="M61 573v287q57 0 106.5 39t49.5 133v340q0 86 21.5 147.5t60.5 99.5t90 56.5t113 18.5q20 0 58 -3t54 -8v-221q-10 2 -25.5 4t-31.5 2q-78 0 -78 -75v-402q0 -68 -17.5 -117t-45 -81.5t-62 -51t-69.5 -24.5q35 -6 69.5 -24.5t62 -51.5t45 -82t17.5 -117v-401 q0 -76 78 -76q16 0 31.5 2t25.5 4v-221q-16 -4 -54 -7t-58 -3q-61 0 -112.5 18.5t-90.5 56.5t-60.5 99t-21.5 147v340q0 47 -13.5 80t-36 53.5t-50 29.5t-56.5 9z" />
<glyph unicode="|" horiz-adv-x="634" d="M184 -225v1884h267v-1884h-267z" />
<glyph unicode="}" horiz-adv-x="706" d="M92 -29q10 -2 25.5 -4t32.5 -2q78 0 77 76v401q0 68 17.5 117t45 82t62.5 51.5t70 24.5q-35 6 -70 24.5t-62.5 51t-45 82t-17.5 116.5v402q0 76 -77 75q-16 0 -32 -2t-26 -4v221q16 4 54 7.5t59 3.5q61 0 112.5 -18.5t90 -56.5t60 -99.5t21.5 -147.5v-340 q0 -94 49.5 -133t106.5 -39v-287q-29 0 -56.5 -9t-50 -29.5t-36 -53t-13.5 -80.5v-340q0 -86 -21.5 -147t-60 -99t-90 -56.5t-112.5 -18.5q-20 0 -58 3t-55 7v221z" />
<glyph unicode="~" horiz-adv-x="1044" d="M154 483v242q72 43 120 57.5t93 14.5q41 0 83 -12.5t83.5 -28t82.5 -27.5t80 -12q53 0 102.5 20.5t92.5 48.5v-241q-47 -31 -101.5 -51.5t-111.5 -20.5q-43 0 -83 13.5t-80 28.5t-80 28.5t-83 13.5q-53 0 -104 -22.5t-94 -51.5z" />
<glyph unicode="&#xa1;" horiz-adv-x="552" d="M123 758v266h307v-266h-307zM139 -410v967h277v-967h-277z" />
<glyph unicode="&#xa2;" d="M152 530q0 229 74.5 348t217.5 150v201h256v-199q29 -4 54.5 -9t46.5 -9v-240q-29 6 -52.5 11t-48 9.5t-53.5 6.5t-67 2q-35 0 -63 -12.5t-46 -46t-28.5 -94t-10.5 -159.5q0 -154 36 -212t107 -58q78 0 129.5 10.5t96.5 18.5v-238q-23 -6 -47.5 -11t-53.5 -9v-215h-256 v213q-72 10 -126 40.5t-91 93t-56 162t-19 246.5z" />
<glyph unicode="&#xa3;" d="M104 0v231h134v404h-134v231h134v54q0 160 19 263t63.5 161.5t119 81t185.5 22.5q18 0 45.5 -1t60.5 -4t64.5 -6t56.5 -7v-236q-43 8 -90 13t-72 5q-59 0 -93 -9t-51.5 -38.5t-22.5 -84t-5 -146.5v-68h211v-231h-211v-404h354v-231h-768z" />
<glyph unicode="&#xa4;" horiz-adv-x="1167" d="M27 231l147 148q-23 51 -32 110.5t-9 124.5q0 133 43 234l-149 149l174 174l135 -135q104 63 248 64q139 0 247 -64l136 135l174 -174l-140 -139q53 -106 54 -244q0 -135 -54 -245l140 -138l-174 -174l-133 131q-102 -59 -250 -59q-150 0 -252 59l-131 -131zM383 614 q0 -115 49 -190.5t152 -75.5q51 0 89 20.5t62.5 56.5t36.5 84t12 105q0 115 -49 191t-151 76t-151.5 -76t-49.5 -191z" />
<glyph unicode="&#xa5;" d="M20 1434h293l174 -457l172 457h283l-297 -676h193v-215h-217v-92h217v-215h-217v-236h-287v236h-213v215h213v92h-213v215h188z" />
<glyph unicode="&#xa6;" horiz-adv-x="634" d="M184 -225v737h267v-737h-267zM184 922v737h267v-737h-267z" />
<glyph unicode="&#xa7;" d="M119 707q0 72 35.5 127t85.5 92q-92 84 -93 207q0 172 103.5 245.5t320.5 73.5q31 0 65 -4t65.5 -9t58 -11.5t41.5 -10.5v-233q-47 14 -100.5 26.5t-137.5 12.5q-76 0 -107.5 -18.5t-31.5 -65.5q0 -29 28.5 -49.5t96.5 -36.5q80 -18 134 -43t88 -62t49.5 -90t15.5 -131 q0 -74 -36 -125t-87 -86q47 -43 70.5 -99.5t23.5 -115.5q0 -172 -102.5 -245.5t-321.5 -73.5q-31 0 -64.5 4t-65.5 9t-57.5 11t-41.5 10v234q47 -14 100 -26.5t137 -12.5q76 0 107.5 18.5t31.5 65.5q0 29 -28.5 49.5t-95.5 36.5q-80 18 -134.5 44t-88 63.5t-49 91 t-15.5 127.5zM391 727q0 -59 22.5 -85t78.5 -40q31 16 51 41t20 64q0 59 -22.5 84.5t-77.5 37.5q-33 -14 -52.5 -39.5t-19.5 -62.5z" />
<glyph unicode="&#xa8;" horiz-adv-x="778" d="M51 1147v235h266v-235h-266zM461 1147v235h266v-235h-266z" />
<glyph unicode="&#xa9;" horiz-adv-x="1658" d="M143 717q0 170 36 306t119 231.5t216 146.5t326 51q195 0 323.5 -51t207.5 -147.5t112 -231.5t33 -305t-33 -306.5t-111 -231.5t-208 -146t-324 -51q-195 0 -328 50t-215 144t-118 230.5t-36 310.5zM383 717q0 -135 16.5 -236.5t65.5 -167t139 -98.5t236 -33 q145 0 232 33t132 99.5t58.5 167t13.5 235.5t-13.5 235.5t-58.5 167t-132 99t-232 32.5t-235.5 -31.5t-139.5 -98t-65.5 -167t-16.5 -237.5zM602 729q0 125 14.5 201t46 118t80 56t115.5 14q12 0 32.5 -2t42 -4t41 -5t27.5 -5v-150q-29 6 -57.5 9.5t-50.5 3.5 q-33 0 -54.5 -5.5t-33.5 -28t-16.5 -71.5t-4.5 -139q0 -92 5.5 -142.5t17.5 -75t33.5 -29.5t54.5 -5q27 0 55.5 4t50.5 8v-149q-8 -2 -28.5 -5t-44 -5.5t-46 -4.5t-36.5 -2q-66 0 -112 17.5t-75.5 63.5t-43 127t-13.5 206z" />
<glyph unicode="&#xaa;" horiz-adv-x="882" d="M113 905q0 68 25.5 115t69.5 77.5t102.5 44t121.5 13.5h64v21q0 41 -22.5 69.5t-80.5 28.5q-66 0 -116 -7t-107 -24v174q23 6 53.5 12.5t64.5 10.5t67.5 6t62.5 2q86 0 144.5 -20.5t92 -58.5t48 -92t14.5 -124v-274q0 -49 53 -50v-161h-104q-23 0 -59 16t-50 66 q-53 -92 -215 -93q-43 0 -84 11.5t-72.5 39t-52 75.5t-20.5 122zM127 0v236h616v-236h-616zM334 915q0 -31 19.5 -54t60.5 -23q43 0 60.5 22.5t21.5 57.5v86h-52q-45 0 -77.5 -18.5t-32.5 -70.5z" />
<glyph unicode="&#xab;" horiz-adv-x="952" d="M102 612l179 424h221l-125 -424l125 -424h-221zM451 612l178 424h221l-125 -424l125 -424h-221z" />
<glyph unicode="&#xac;" horiz-adv-x="1177" d="M123 502v235h932v-520h-246v285h-686z" />
<glyph unicode="&#xad;" horiz-adv-x="1013" d="M154 502v235h706v-235h-706z" />
<glyph unicode="&#xae;" horiz-adv-x="1658" d="M143 717q0 170 36 306t119 231.5t216 146.5t326 51q195 0 323.5 -51t207.5 -147.5t112 -231.5t33 -305t-33 -306.5t-111 -231.5t-208 -146t-324 -51q-195 0 -328 50t-215 144t-118 230.5t-36 310.5zM383 717q0 -135 16.5 -236.5t65.5 -167t139 -98.5t236 -33 q145 0 232 33t132 99.5t58.5 167t13.5 235.5t-13.5 235.5t-58.5 167t-132 99t-232 32.5t-235.5 -31.5t-139.5 -98t-65.5 -167t-16.5 -237.5zM614 326v788l74 4q33 2 71 3t72 1q72 0 119 -17.5t76 -49t40 -76.5t11 -100q0 -92 -28.5 -145.5t-77.5 -80.5l153 -327h-190 l-125 301h-25v-301h-170zM784 774h21q55 0 76.5 17t21.5 83q0 61 -14.5 83t-69.5 22q-14 0 -22 -2t-13 -2v-201z" />
<glyph unicode="&#xaf;" horiz-adv-x="706" d="M51 1210v224h604v-224h-604z" />
<glyph unicode="&#xb0;" horiz-adv-x="784" d="M41 1108q0 340 350 340q352 0 352 -340q0 -172 -88 -261t-264 -89t-263 89t-87 261zM272 1110q0 -70 27 -115t92 -45q66 0 92.5 45t26.5 115t-26.5 110t-92.5 40t-92.5 -40t-26.5 -110z" />
<glyph unicode="&#xb1;" horiz-adv-x="1126" d="M141 502v235h308v324h249v-324h308v-235h-308v-180h-249v180h-308zM154 0v236h839v-236h-839z" />
<glyph unicode="&#xb2;" horiz-adv-x="839" d="M117 420v213l209 254q35 39 56 68.5t32.5 58t15.5 59.5t4 68q0 41 -25.5 74.5t-97.5 33.5q-49 0 -90 -7t-78 -15v198q6 0 29 4.5t52.5 8.5t63.5 7t64 3q154 0 236 -86t82 -236q0 -170 -99 -286l-184 -219h295v-201h-565z" />
<glyph unicode="&#xb3;" horiz-adv-x="839" d="M141 428v193q29 -6 75 -15.5t97 -9.5q59 0 94 30.5t35 96.5q0 145 -133 145h-88v187h74q43 0 68.5 9t40 24.5t18.5 36t4 44.5q0 88 -111 88q-43 0 -87 -8t-78 -16v192q6 2 27.5 5.5t51 7.5t63.5 7t64 3q86 0 144.5 -17.5t94.5 -52.5t50 -90t14 -129q0 -59 -33.5 -115.5 t-95.5 -76.5q63 -16 105.5 -81t42.5 -147q0 -98 -23.5 -162.5t-64.5 -102.5t-99.5 -53t-125.5 -15q-29 0 -63 3t-66.5 6t-58 7t-36.5 6z" />
<glyph unicode="&#xb4;" horiz-adv-x="641" d="M51 1188l213 276h326l-311 -276h-228z" />
<glyph unicode="&#xb5;" horiz-adv-x="1071" d="M133 -348v1372h273v-651q0 -51 8 -82t22.5 -47.5t36 -21.5t47.5 -5q78 0 112 49t34 105v653h272v-1024h-221l-19 80q-47 -45 -106.5 -71.5t-136.5 -26.5q-14 0 -26.5 1t-22.5 1v-332h-273z" />
<glyph unicode="&#xb6;" horiz-adv-x="1136" d="M82 1092q0 111 29.5 181t78 110t110.5 54.5t128 14.5q51 0 96 -2t80 -6q41 -4 78 -10v-220q-41 8 -91 13.5t-81 5.5q-100 0 -137 -31t-37 -115q0 -80 32.5 -110.5t98.5 -30.5h215v-946h-258v725h-39q-55 0 -109.5 14.5t-97.5 54.5t-69.5 111.5t-26.5 186.5zM772 0v1434 h252v-1434h-252z" />
<glyph unicode="&#xb7;" horiz-adv-x="512" d="M102 500v266h308v-266h-308z" />
<glyph unicode="&#xb8;" horiz-adv-x="688" d="M133 -260q29 -4 58.5 -7t52.5 -3q47 0 64.5 9t17.5 38q0 27 -35 37t-135 10l45 278h196l-22 -141q92 -10 134 -63.5t42 -128.5q0 -49 -13.5 -90t-44 -71t-81 -46.5t-123.5 -16.5q-35 0 -81 5.5t-75 11.5v178z" />
<glyph unicode="&#xb9;" horiz-adv-x="839" d="M141 1143v213l170 78h252v-809h137v-205h-542v205h170v598z" />
<glyph unicode="&#xba;" horiz-adv-x="888" d="M113 1069q0 197 75.5 290t255.5 93t256 -93t76 -290q0 -121 -20.5 -201t-62.5 -128t-103.5 -67.5t-145.5 -19.5q-82 0 -144 19.5t-104 67.5t-62.5 128t-20.5 201zM119 0v236h643v-236h-643zM338 1049q0 -115 22.5 -167.5t83.5 -52.5t84 52.5t23 167.5q0 135 -22.5 181 t-84.5 46q-31 0 -51 -9.5t-32.5 -35t-17.5 -69.5t-5 -113z" />
<glyph unicode="&#xbb;" horiz-adv-x="952" d="M102 188l125 424l-125 424h222l178 -424l-178 -424h-222zM451 188l124 424l-124 424h221l178 -424l-178 -424h-221z" />
<glyph unicode="&#xbc;" horiz-adv-x="1792" d="M90 1143v213l170 78h252v-809h137v-205h-543v205h170v598zM473 -205l635 1864h244l-635 -1864h-244zM1049 240v213l145 561h223l-147 -582h78l22 232h207v-232l92 -12v-180h-92v-240h-234v240h-294z" />
<glyph unicode="&#xbd;" horiz-adv-x="1792" d="M90 1143v213l170 78h252v-809h137v-205h-543v205h170v598zM483 -205l635 1864h244l-635 -1864h-244zM1176 0v213l208 254q35 39 56.5 68.5t33 58.5t15.5 59.5t4 67.5q0 41 -25.5 74.5t-97.5 33.5q-49 0 -90 -7t-78 -15v199q6 0 28.5 4t52.5 8t63.5 7t64.5 3 q154 0 236 -86t82 -235q0 -170 -99 -287l-184 -219h295v-201h-565z" />
<glyph unicode="&#xbe;" horiz-adv-x="1792" d="M125 428v193q29 -6 75 -15.5t97 -9.5q59 0 94 30.5t35 96.5q0 145 -133 145h-88v187h74q43 0 68.5 9t39.5 24.5t18.5 36t4.5 44.5q0 88 -111 88q-43 0 -87 -8t-79 -16v192q6 2 27.5 5.5t51.5 7.5t63.5 7t64.5 3q86 0 144.5 -17.5t94 -52.5t50 -90t14.5 -129 q0 -59 -34 -115.5t-95 -76.5q63 -16 105.5 -81t42.5 -147q0 -98 -24 -162.5t-65 -102.5t-99 -53t-126 -15q-29 0 -62.5 3t-66.5 6t-58.5 7t-35.5 6zM451 -205l634 1864h244l-635 -1864h-243zM1034 240v213l146 561h223l-148 -582h78l23 232h207v-232h92v-192h-92v-240h-234 v240h-295z" />
<glyph unicode="&#xbf;" horiz-adv-x="778" d="M61 -57q0 51 6.5 89t18.5 70.5t32.5 63.5t51.5 67l149 181v143h277v-223l-164 -201q-25 -31 -43 -53.5t-29.5 -43t-16.5 -42t-5 -47.5q0 -39 5 -65.5t22.5 -44t49 -25t87.5 -7.5q41 0 102.5 9.5t112.5 21.5v-231q-20 -4 -53 -10.5t-70 -11.5t-73 -8t-64 -3 q-98 0 -173 14.5t-124 55.5t-74 112.5t-25 188.5zM303 758v266h307v-266h-307z" />
<glyph unicode="&#xc0;" horiz-adv-x="1116" d="M31 0l327 1434h414l313 -1434h-288l-66 334h-342l-65 -334h-293zM195 1722h329l213 -235h-231zM436 575h250l-127 678z" />
<glyph unicode="&#xc1;" horiz-adv-x="1116" d="M31 0l327 1434h414l313 -1434h-288l-66 334h-342l-65 -334h-293zM336 1487l213 235h330l-312 -235h-231zM436 575h250l-127 678z" />
<glyph unicode="&#xc2;" horiz-adv-x="1116" d="M31 0l327 1434h414l313 -1434h-288l-66 334h-342l-65 -334h-293zM190 1495l226 236h311l227 -236h-301l-82 125l-82 -125h-299zM436 575h250l-127 678z" />
<glyph unicode="&#xc3;" horiz-adv-x="1116" d="M31 0l327 1434h414l313 -1434h-288l-66 334h-342l-65 -334h-293zM238 1481v213q47 39 101 53t95 14q37 0 76 -12t78 -27.5t74.5 -28t66.5 -12.5q53 0 98 19.5t86 54.5v-213q-41 -39 -92 -53t-104 -14q-39 0 -77 12t-76 27.5t-73.5 27.5t-68.5 12q-53 0 -102.5 -22.5 t-81.5 -50.5zM436 575h250l-127 678z" />
<glyph unicode="&#xc4;" horiz-adv-x="1116" d="M31 0l327 1434h414l313 -1434h-288l-66 334h-342l-65 -334h-293zM227 1495v236h267v-236h-267zM436 575h250l-127 678zM637 1495v236h266v-236h-266z" />
<glyph unicode="&#xc5;" horiz-adv-x="1116" d="M31 0l323 1421q-27 53 -26 142q0 119 57 184t180 65t180.5 -65t57.5 -184q0 -84 -29 -142l311 -1421h-288l-66 334h-342l-65 -334h-293zM436 575h250l-127 678zM508 1565q0 -51 10 -76t47 -25q35 0 46.5 25t11.5 76t-10.5 75.5t-47.5 24.5t-47 -24.5t-10 -75.5z" />
<glyph unicode="&#xc6;" horiz-adv-x="1599" d="M31 0l430 1434h995v-222h-547l54 -362h477v-219h-445l62 -410h440v-221h-713l-39 334h-335l-95 -334h-284zM475 575h242l-72 613z" />
<glyph unicode="&#xc7;" horiz-adv-x="886" d="M102 739q0 233 31 373.5t92.5 214.5t151.5 97.5t207 23.5q20 0 53 -3t66.5 -7t61.5 -9.5t40 -9.5v-248q-51 12 -122 21.5t-126 9.5q-45 0 -76.5 -15.5t-52 -64.5t-31 -143t-10.5 -254t9.5 -256t28.5 -149.5t52 -71t80 -17.5q63 0 136 10.5t112 20.5v-246q-27 -8 -82 -15 t-107 -11l-4 -29q92 -10 134 -63.5t42 -128.5q0 -49 -13 -90t-44 -71t-81 -46.5t-124 -16.5q-35 0 -81 5.5t-74 11.5v178q29 -4 58.5 -7t51.5 -3q47 0 64.5 9t17.5 38q0 27 -34.5 37t-135.5 10l27 174q-82 16 -141.5 60t-98.5 130t-58.5 220.5t-19.5 330.5z" />
<glyph unicode="&#xc8;" horiz-adv-x="978" d="M143 0v1434h734v-222h-453v-362h401v-219h-401v-410h453v-221h-734zM199 1722h329l213 -235h-231z" />
<glyph unicode="&#xc9;" horiz-adv-x="978" d="M143 0v1434h734v-222h-453v-362h401v-219h-401v-410h453v-221h-734zM305 1487l213 235h330l-311 -235h-232z" />
<glyph unicode="&#xca;" horiz-adv-x="978" d="M129 1495l225 236h312l227 -236h-301l-82 125l-82 -125h-299zM143 0v1434h734v-222h-453v-362h401v-219h-401v-410h453v-221h-734z" />
<glyph unicode="&#xcb;" horiz-adv-x="978" d="M143 0v1434h734v-222h-453v-362h401v-219h-401v-410h453v-221h-734zM174 1475v235h266v-235h-266zM584 1475v235h266v-235h-266z" />
<glyph unicode="&#xcc;" horiz-adv-x="710" d="M49 1722h330l213 -235h-232zM72 0v217h143v1000h-143v217h567v-217h-143v-1000h143v-217h-567z" />
<glyph unicode="&#xcd;" horiz-adv-x="710" d="M72 0v217h143v1000h-143v217h567v-217h-143v-1000h143v-217h-567zM113 1487l213 235h329l-311 -235h-231z" />
<glyph unicode="&#xce;" horiz-adv-x="710" d="M-27 1495l226 236h311l227 -236h-301l-82 125l-82 -125h-299zM72 0v217h143v1000h-143v217h567v-217h-143v-1000h143v-217h-567z" />
<glyph unicode="&#xcf;" horiz-adv-x="710" d="M18 1475v235h267v-235h-267zM72 0v217h143v1000h-143v217h567v-217h-143v-1000h143v-217h-567zM428 1475v235h266v-235h-266z" />
<glyph unicode="&#xd0;" horiz-adv-x="1148" d="M61 666v235h113v533q72 4 139 10q57 4 119 7t105 3q123 0 218 -26.5t159.5 -104.5t98.5 -217.5t34 -366.5q0 -229 -31 -376.5t-92.5 -232.5t-152.5 -117.5t-210 -32.5q-53 0 -120.5 3t-127.5 7q-68 6 -139 10v666h-113zM455 236l30 -5q16 -2 39 -3t56 -1q47 0 81.5 22.5 t57 79t33 153t10.5 243.5q0 166 -11.5 261t-33 144.5t-55 62.5t-80.5 13q-29 0 -52.5 -1t-40.5 -3q-20 -2 -34 -4v-297h170v-235h-170v-430z" />
<glyph unicode="&#xd1;" horiz-adv-x="1212" d="M143 0v1434h408l274 -1174v1174h244v-1434h-407l-271 1151v-1151h-248zM274 1481v213q47 39 101.5 53t95.5 14q37 0 76 -12t78 -27.5t74.5 -28t66.5 -12.5q53 0 98 19.5t86 54.5v-213q-41 -39 -92 -53t-104 -14q-39 0 -77 12t-76 27.5t-73.5 27.5t-68.5 12 q-53 0 -102.5 -22.5t-82.5 -50.5z" />
<glyph unicode="&#xd2;" horiz-adv-x="1163" d="M102 733q0 180 19.5 315.5t73 225.5t146.5 135t241 45q147 0 240 -45t146.5 -135t73 -225.5t19.5 -315.5q0 -188 -17.5 -329.5t-69.5 -235.5t-146.5 -141t-245.5 -47q-152 0 -246 47t-146.5 141t-70 235.5t-17.5 329.5zM207 1722h330l213 -235h-232zM387 723 q0 -156 10.5 -256t33 -159.5t59 -83t92.5 -23.5q55 0 92 23.5t59.5 83t32.5 159.5t10 256q0 158 -10 257t-32.5 155.5t-59.5 77t-92 20.5t-92 -20.5t-59.5 -77t-33 -155.5t-10.5 -257z" />
<glyph unicode="&#xd3;" horiz-adv-x="1163" d="M102 733q0 180 19.5 315.5t73 225.5t146.5 135t241 45q147 0 240 -45t146.5 -135t73 -225.5t19.5 -315.5q0 -188 -17.5 -329.5t-69.5 -235.5t-146.5 -141t-245.5 -47q-152 0 -246 47t-146.5 141t-70 235.5t-17.5 329.5zM387 723q0 -156 10.5 -256t33 -159.5t59 -83 t92.5 -23.5q55 0 92 23.5t59.5 83t32.5 159.5t10 256q0 158 -10 257t-32.5 155.5t-59.5 77t-92 20.5t-92 -20.5t-59.5 -77t-33 -155.5t-10.5 -257zM401 1487l213 235h330l-311 -235h-232z" />
<glyph unicode="&#xd4;" horiz-adv-x="1163" d="M102 733q0 180 19.5 315.5t73 225.5t146.5 135t241 45q147 0 240 -45t146.5 -135t73 -225.5t19.5 -315.5q0 -188 -17.5 -329.5t-69.5 -235.5t-146.5 -141t-245.5 -47q-152 0 -246 47t-146.5 141t-70 235.5t-17.5 329.5zM201 1495l225 236h311l228 -236h-301l-82 125 l-82 -125h-299zM387 723q0 -156 10.5 -256t33 -159.5t59 -83t92.5 -23.5q55 0 92 23.5t59.5 83t32.5 159.5t10 256q0 158 -10 257t-32.5 155.5t-59.5 77t-92 20.5t-92 -20.5t-59.5 -77t-33 -155.5t-10.5 -257z" />
<glyph unicode="&#xd5;" horiz-adv-x="1163" d="M102 733q0 180 19.5 315.5t73 225.5t146.5 135t241 45q147 0 240 -45t146.5 -135t73 -225.5t19.5 -315.5q0 -188 -17.5 -329.5t-69.5 -235.5t-146.5 -141t-245.5 -47q-152 0 -246 47t-146.5 141t-70 235.5t-17.5 329.5zM242 1481v213q47 39 101 53t95 14q37 0 76 -12 t78 -27.5t74.5 -28t66.5 -12.5q53 0 98.5 19.5t86.5 54.5v-213q-41 -39 -92.5 -53t-104.5 -14q-39 0 -77 12t-76 27.5t-73.5 27.5t-68.5 12q-53 0 -102.5 -22.5t-81.5 -50.5zM387 723q0 -156 10.5 -256t33 -159.5t59 -83t92.5 -23.5q55 0 92 23.5t59.5 83t32.5 159.5t10 256 q0 158 -10 257t-32.5 155.5t-59.5 77t-92 20.5t-92 -20.5t-59.5 -77t-33 -155.5t-10.5 -257z" />
<glyph unicode="&#xd6;" horiz-adv-x="1163" d="M102 733q0 180 19.5 315.5t73 225.5t146.5 135t241 45q147 0 240 -45t146.5 -135t73 -225.5t19.5 -315.5q0 -188 -17.5 -329.5t-69.5 -235.5t-146.5 -141t-245.5 -47q-152 0 -246 47t-146.5 141t-70 235.5t-17.5 329.5zM244 1495v236h266v-236h-266zM387 723 q0 -156 10.5 -256t33 -159.5t59 -83t92.5 -23.5q55 0 92 23.5t59.5 83t32.5 159.5t10 256q0 158 -10 257t-32.5 155.5t-59.5 77t-92 20.5t-92 -20.5t-59.5 -77t-33 -155.5t-10.5 -257zM653 1495v236h267v-236h-267z" />
<glyph unicode="&#xd7;" horiz-adv-x="1167" d="M170 375l240 239l-240 240l174 174l240 -240l239 240l174 -174l-239 -240l239 -239l-174 -174l-239 239l-240 -239z" />
<glyph unicode="&#xd8;" horiz-adv-x="1122" d="M113 733q0 180 19.5 315.5t72.5 225.5t146 135t241 45q33 0 61.5 -3t57.5 -7l57 176h205l-80 -248q104 -82 141 -239.5t37 -399.5q0 -188 -17.5 -329.5t-69.5 -235.5t-146.5 -141t-245.5 -47q-41 0 -76 4t-67 10l-58 -180h-205l84 262q-96 88 -126.5 252t-30.5 405z M397 723q0 -70 2 -127t7 -104l235 735q-25 6 -49 6q-55 0 -92 -20.5t-59.5 -77t-33 -155.5t-10.5 -257zM520 213q16 -8 32.5 -10t39.5 -2q55 0 92 23.5t59.5 83t32.5 159.5t10 256q0 172 -12 278z" />
<glyph unicode="&#xd9;" horiz-adv-x="1136" d="M133 440v994h281v-1033q0 -174 155 -174q80 0 117 44t37 130v1033h281v-994q0 -127 -29 -214t-84 -140t-136 -76.5t-186 -23.5q-104 0 -185 23.5t-136 76.5t-85 140t-30 214zM186 1722h330l213 -235h-231z" />
<glyph unicode="&#xda;" horiz-adv-x="1136" d="M133 440v994h281v-1033q0 -174 155 -174q80 0 117 44t37 130v1033h281v-994q0 -127 -29 -214t-84 -140t-136 -76.5t-186 -23.5q-104 0 -185 23.5t-136 76.5t-85 140t-30 214zM412 1487l213 235h329l-311 -235h-231z" />
<glyph unicode="&#xdb;" horiz-adv-x="1136" d="M133 440v994h281v-1033q0 -174 155 -174q80 0 117 44t37 130v1033h281v-994q0 -127 -29 -214t-84 -140t-136 -76.5t-186 -23.5q-104 0 -185 23.5t-136 76.5t-85 140t-30 214zM184 1495l226 236h311l227 -236h-301l-82 125l-82 -125h-299z" />
<glyph unicode="&#xdc;" horiz-adv-x="1136" d="M133 440v994h281v-1033q0 -174 155 -174q80 0 117 44t37 130v1033h281v-994q0 -127 -29 -214t-84 -140t-136 -76.5t-186 -23.5q-104 0 -185 23.5t-136 76.5t-85 140t-30 214zM227 1495v236h267v-236h-267zM637 1495v236h266v-236h-266z" />
<glyph unicode="&#xdd;" horiz-adv-x="1087" d="M20 1434h304l227 -553l227 553h289l-383 -803v-631h-287v631zM401 1487l213 235h330l-311 -235h-232z" />
<glyph unicode="&#xde;" horiz-adv-x="1085" d="M143 0v1434h281v-222q25 0 48.5 1t47.5 1q139 0 230.5 -31.5t145.5 -92t75.5 -149.5t21.5 -204q0 -135 -28.5 -227t-86 -149.5t-142.5 -82t-195 -24.5h-117v-254h-281zM424 496h129q72 0 114 61.5t42 165.5q0 121 -32 183.5t-120 62.5q-66 0 -100 -6q-20 -4 -33 -7v-460z " />
<glyph unicode="&#xdf;" horiz-adv-x="1099" d="M133 0v1030q0 86 19.5 162t65.5 134t124 92t195 34q176 0 278.5 -82t102.5 -229q0 -76 -8.5 -146.5t-24.5 -148.5q-109 0 -149 -19.5t-40 -70.5q0 -29 18.5 -42.5t51.5 -27.5q51 -20 95 -46t77 -65.5t51.5 -97t18.5 -137.5q0 -111 -30 -180.5t-80 -109.5t-115.5 -54 t-137.5 -14q-18 0 -41.5 1t-50.5 4t-52.5 6t-43.5 7v233q29 -10 70.5 -16t62.5 -6q137 0 137 119q0 61 -31.5 96t-97.5 63q-88 41 -127 100.5t-39 168.5q0 104 59.5 173.5t161.5 84.5q6 14 12.5 40.5t6.5 43.5q0 55 -27 89t-108 34q-74 0 -101.5 -42t-27.5 -137v-1044h-275z " />
<glyph unicode="&#xe0;" horiz-adv-x="1042" d="M92 309q0 186 111.5 264t322.5 78h92v43q0 59 -29.5 91t-107.5 32q-88 0 -162.5 -13t-152.5 -36v233q29 8 67.5 15.5t80.5 13.5t86 9t81 3q131 0 211 -21.5t124 -66.5t59.5 -114.5t15.5 -163.5v-406q0 -31 16.5 -48t63.5 -17v-205h-119q-41 0 -94 16.5t-82 67.5 q-39 -47 -102.5 -74.5t-167.5 -27.5q-68 0 -125.5 16t-99.5 54t-65.5 100.5t-23.5 156.5zM209 1464h326l213 -276h-228zM369 324q0 -47 25.5 -80t88.5 -33q43 0 69 15.5t41 38t20 48t5 45.5v93h-102q-66 0 -106.5 -29t-40.5 -98z" />
<glyph unicode="&#xe1;" horiz-adv-x="1042" d="M92 309q0 186 111.5 264t322.5 78h92v43q0 59 -29.5 91t-107.5 32q-88 0 -162.5 -13t-152.5 -36v233q29 8 67.5 15.5t80.5 13.5t86 9t81 3q131 0 211 -21.5t124 -66.5t59.5 -114.5t15.5 -163.5v-406q0 -31 16.5 -48t63.5 -17v-205h-119q-41 0 -94 16.5t-82 67.5 q-39 -47 -102.5 -74.5t-167.5 -27.5q-68 0 -125.5 16t-99.5 54t-65.5 100.5t-23.5 156.5zM369 324q0 -47 25.5 -80t88.5 -33q43 0 69 15.5t41 38t20 48t5 45.5v93h-102q-66 0 -106.5 -29t-40.5 -98zM371 1188l213 276h325l-311 -276h-227z" />
<glyph unicode="&#xe2;" horiz-adv-x="1042" d="M92 309q0 186 111.5 264t322.5 78h92v43q0 59 -29.5 91t-107.5 32q-88 0 -162.5 -13t-152.5 -36v233q29 8 67.5 15.5t80.5 13.5t86 9t81 3q131 0 211 -21.5t124 -66.5t59.5 -114.5t15.5 -163.5v-406q0 -31 16.5 -48t63.5 -17v-205h-119q-41 0 -94 16.5t-82 67.5 q-39 -47 -102.5 -74.5t-167.5 -27.5q-68 0 -125.5 16t-99.5 54t-65.5 100.5t-23.5 156.5zM121 1188l250 276h303l252 -276h-301l-103 151l-102 -151h-299zM369 324q0 -47 25.5 -80t88.5 -33q43 0 69 15.5t41 38t20 48t5 45.5v93h-102q-66 0 -106.5 -29t-40.5 -98z" />
<glyph unicode="&#xe3;" horiz-adv-x="1042" d="M92 309q0 186 111.5 264t322.5 78h92v43q0 59 -29.5 91t-107.5 32q-88 0 -162.5 -13t-152.5 -36v233q29 8 67.5 15.5t80.5 13.5t86 9t81 3q131 0 211 -21.5t124 -66.5t59.5 -114.5t15.5 -163.5v-406q0 -31 16.5 -48t63.5 -17v-205h-119q-41 0 -94 16.5t-82 67.5 q-39 -47 -102.5 -74.5t-167.5 -27.5q-68 0 -125.5 16t-99.5 54t-65.5 100.5t-23.5 156.5zM193 1194v213q47 39 101 53.5t95 14.5q37 0 76 -12.5t78 -28t74.5 -27.5t66.5 -12q53 0 98 19.5t86 53.5v-213q-41 -39 -92 -53t-104 -14q-39 0 -77 12t-76 27.5t-73.5 28t-68.5 12.5 q-53 0 -102.5 -22.5t-81.5 -51.5zM369 324q0 -47 25.5 -80t88.5 -33q43 0 69 15.5t41 38t20 48t5 45.5v93h-102q-66 0 -106.5 -29t-40.5 -98z" />
<glyph unicode="&#xe4;" horiz-adv-x="1042" d="M92 309q0 186 111.5 264t322.5 78h92v43q0 59 -29.5 91t-107.5 32q-88 0 -162.5 -13t-152.5 -36v233q29 8 67.5 15.5t80.5 13.5t86 9t81 3q131 0 211 -21.5t124 -66.5t59.5 -114.5t15.5 -163.5v-406q0 -31 16.5 -48t63.5 -17v-205h-119q-41 0 -94 16.5t-82 67.5 q-39 -47 -102.5 -74.5t-167.5 -27.5q-68 0 -125.5 16t-99.5 54t-65.5 100.5t-23.5 156.5zM190 1147v235h267v-235h-267zM369 324q0 -47 25.5 -80t88.5 -33q43 0 69 15.5t41 38t20 48t5 45.5v93h-102q-66 0 -106.5 -29t-40.5 -98zM600 1147v235h266v-235h-266z" />
<glyph unicode="&#xe5;" horiz-adv-x="1042" d="M92 309q0 186 111.5 264t322.5 78h92v43q0 59 -29.5 91t-107.5 32q-88 0 -162.5 -13t-152.5 -36v233q29 8 67.5 15.5t80.5 13.5t86 9t81 3q131 0 211 -21.5t124 -66.5t59.5 -114.5t15.5 -163.5v-406q0 -31 16.5 -48t63.5 -17v-205h-119q-41 0 -94 16.5t-82 67.5 q-39 -47 -102.5 -74.5t-167.5 -27.5q-68 0 -125.5 16t-99.5 54t-65.5 100.5t-23.5 156.5zM276 1321q0 119 57.5 184.5t180.5 65.5t180.5 -65.5t57.5 -184.5t-56.5 -184.5t-181.5 -65.5t-181.5 65.5t-56.5 184.5zM369 324q0 -47 25.5 -80t88.5 -33q43 0 69 15.5t41 38t20 48 t5 45.5v93h-102q-66 0 -106.5 -29t-40.5 -98zM457 1323q0 -51 10 -75.5t47 -24.5q35 0 46 24.5t11 75.5t-10 75.5t-47 24.5t-47 -24.5t-10 -75.5z" />
<glyph unicode="&#xe6;" horiz-adv-x="1517" d="M102 303q0 92 29 154.5t84 100.5t136 54.5t186 16.5h92v65q0 59 -30 91t-107 32q-88 0 -163 -13t-153 -36v233q29 8 68 15.5t81 13.5t86 9t81 3q117 0 190.5 -18t116.5 -53q92 72 250 71q117 0 191.5 -30.5t117.5 -89t60.5 -144.5t17.5 -194v-156h-533q2 -61 11.5 -102 t30 -65.5t52 -35t78.5 -10.5q86 0 163 10.5t122 20.5v-230q-25 -6 -61.5 -13t-77.5 -11t-79 -7t-67 -3q-127 0 -213 24.5t-137 102.5q-41 -59 -117 -93t-192 -34q-68 0 -125.5 15t-99 52t-65.5 98.5t-24 155.5zM379 317q0 -47 26 -76.5t89 -29.5q43 0 68.5 15.5t40.5 38 t20.5 48t5.5 45.5v70h-103q-66 0 -106.5 -23.5t-40.5 -87.5zM907 629h267v37q0 76 -31 113.5t-99 37.5q-61 0 -93.5 -41t-43.5 -147z" />
<glyph unicode="&#xe7;" horiz-adv-x="833" d="M102 532q0 274 107.5 392t308.5 118q51 0 120 -9t114 -19v-240q-29 6 -52.5 11.5t-48 9.5t-53.5 6t-68 2q-35 0 -62.5 -12.5t-46 -46t-28.5 -94t-10 -158.5q0 -154 36 -212.5t107 -58.5q78 0 129.5 10.5t96.5 18.5v-238q-37 -10 -83 -17t-94 -11l-4 -23 q92 -10 134.5 -63.5t42.5 -128.5q0 -49 -13.5 -90t-44.5 -71t-81 -46.5t-124 -16.5q-35 0 -81 5.5t-74 11.5v178q29 -4 58.5 -7t51.5 -3q47 0 64.5 9t17.5 38q0 27 -34.5 37t-135.5 10l27 168q-68 12 -119 44t-87 94.5t-53.5 160.5t-17.5 241z" />
<glyph unicode="&#xe8;" horiz-adv-x="1001" d="M102 512q0 141 28 242.5t82 165t132 93t178 29.5q117 0 191.5 -30.5t117.5 -89t60.5 -144.5t17.5 -194v-172h-530q6 -113 42 -155t128 -42q86 0 162.5 10.5t122.5 20.5v-230q-25 -6 -62 -13t-78 -11t-78.5 -7t-66.5 -3q-111 0 -195 18t-140 75.5t-84 161t-28 275.5z M197 1464h325l213 -276h-227zM381 612h266v54q0 76 -30.5 113.5t-98.5 37.5q-63 0 -95 -45t-42 -160z" />
<glyph unicode="&#xe9;" horiz-adv-x="1001" d="M102 512q0 141 28 242.5t82 165t132 93t178 29.5q117 0 191.5 -30.5t117.5 -89t60.5 -144.5t17.5 -194v-172h-530q6 -113 42 -155t128 -42q86 0 162.5 10.5t122.5 20.5v-230q-25 -6 -62 -13t-78 -11t-78.5 -7t-66.5 -3q-111 0 -195 18t-140 75.5t-84 161t-28 275.5z M332 1188l213 276h325l-311 -276h-227zM381 612h266v54q0 76 -30.5 113.5t-98.5 37.5q-63 0 -95 -45t-42 -160z" />
<glyph unicode="&#xea;" horiz-adv-x="1001" d="M102 512q0 141 28 242.5t82 165t132 93t178 29.5q117 0 191.5 -30.5t117.5 -89t60.5 -144.5t17.5 -194v-172h-530q6 -113 42 -155t128 -42q86 0 162.5 10.5t122.5 20.5v-230q-25 -6 -62 -13t-78 -11t-78.5 -7t-66.5 -3q-111 0 -195 18t-140 75.5t-84 161t-28 275.5z M104 1188l250 276h303l252 -276h-301l-102 151l-103 -151h-299zM381 612h266v54q0 76 -30.5 113.5t-98.5 37.5q-63 0 -95 -45t-42 -160z" />
<glyph unicode="&#xeb;" horiz-adv-x="1001" d="M102 512q0 141 28 242.5t82 165t132 93t178 29.5q117 0 191.5 -30.5t117.5 -89t60.5 -144.5t17.5 -194v-172h-530q6 -113 42 -155t128 -42q86 0 162.5 10.5t122.5 20.5v-230q-25 -6 -62 -13t-78 -11t-78.5 -7t-66.5 -3q-111 0 -195 18t-140 75.5t-84 161t-28 275.5z M182 1147v235h267v-235h-267zM381 612h266v54q0 76 -30.5 113.5t-98.5 37.5q-63 0 -95 -45t-42 -160zM592 1147v235h266v-235h-266z" />
<glyph unicode="&#xec;" horiz-adv-x="538" d="M-80 1464h326l213 -276h-228zM133 0v1024h273v-1024h-273z" />
<glyph unicode="&#xed;" horiz-adv-x="538" d="M74 1188l213 276h325l-311 -276h-227zM133 0v1024h273v-1024h-273z" />
<glyph unicode="&#xee;" horiz-adv-x="538" d="M-133 1188l250 276h303l252 -276h-301l-103 151l-102 -151h-299zM133 0v1024h273v-1024h-273z" />
<glyph unicode="&#xef;" horiz-adv-x="538" d="M-68 1147v235h267v-235h-267zM133 0v1024h273v-1024h-273zM342 1147v235h266v-235h-266z" />
<glyph unicode="&#xf0;" horiz-adv-x="1040" d="M102 430q0 121 16.5 219.5t57.5 168t109.5 106.5t171.5 37q53 0 99 -11.5t87 -31.5q-12 84 -35.5 137t-54.5 88l-47 -86h-219l88 162q-41 4 -85 4h-91v229q82 0 155.5 -3t139.5 -13l55 100h219l-86 -158q59 -31 105.5 -81t77 -126.5t47 -183t16.5 -248.5 q0 -221 -24.5 -367.5t-79 -232.5t-138.5 -121.5t-203 -35.5q-57 0 -123.5 18t-124 68.5t-95.5 137.5t-38 224zM375 453q0 -76 8 -124t24.5 -75t42 -37t60.5 -10t61.5 16.5t45 69.5t28.5 151.5t10 264.5q-33 12 -70.5 21t-78.5 9q-68 0 -99.5 -75.5t-31.5 -210.5z" />
<glyph unicode="&#xf1;" horiz-adv-x="1073" d="M133 0v1024h221l19 -80q47 45 108.5 71.5t136.5 26.5q106 0 171 -24.5t101 -75.5t48 -127t12 -180v-635h-272v641q0 102 -30 134t-85 32q-78 0 -115.5 -45t-41.5 -98v-664h-273zM240 1194v213q47 39 101 53.5t95 14.5q37 0 76 -12.5t78 -28t74.5 -27.5t66.5 -12 q53 0 98 19.5t86 53.5v-213q-41 -39 -92 -53t-104 -14q-39 0 -77 12t-76 27.5t-73.5 28t-68.5 12.5q-53 0 -102.5 -22.5t-81.5 -51.5z" />
<glyph unicode="&#xf2;" horiz-adv-x="1085" d="M102 532q0 262 103.5 384t335.5 122q231 0 336.5 -122t105.5 -384q0 -162 -28.5 -267t-84 -167.5t-138.5 -87t-191 -24.5q-109 0 -191 24.5t-137 87t-83 168t-28 266.5zM197 1464h325l213 -276h-227zM381 502q0 -86 7 -142.5t25.5 -90t49.5 -48t78 -14.5t78.5 14.5t50 48 t27 90t8.5 142.5q0 90 -8.5 150.5t-28 97t-50 52t-77.5 15.5q-45 0 -76 -15.5t-49.5 -52t-26.5 -97t-8 -150.5z" />
<glyph unicode="&#xf3;" horiz-adv-x="1085" d="M102 532q0 262 103.5 384t335.5 122q231 0 336.5 -122t105.5 -384q0 -162 -28.5 -267t-84 -167.5t-138.5 -87t-191 -24.5q-109 0 -191 24.5t-137 87t-83 168t-28 266.5zM348 1188l213 276h326l-312 -276h-227zM381 502q0 -86 7 -142.5t25.5 -90t49.5 -48t78 -14.5 t78.5 14.5t50 48t27 90t8.5 142.5q0 90 -8.5 150.5t-28 97t-50 52t-77.5 15.5q-45 0 -76 -15.5t-49.5 -52t-26.5 -97t-8 -150.5z" />
<glyph unicode="&#xf4;" horiz-adv-x="1085" d="M102 532q0 262 103.5 384t335.5 122q231 0 336.5 -122t105.5 -384q0 -162 -28.5 -267t-84 -167.5t-138.5 -87t-191 -24.5q-109 0 -191 24.5t-137 87t-83 168t-28 266.5zM141 1188l250 276h303l252 -276h-301l-102 151l-103 -151h-299zM381 502q0 -86 7 -142.5t25.5 -90 t49.5 -48t78 -14.5t78.5 14.5t50 48t27 90t8.5 142.5q0 90 -8.5 150.5t-28 97t-50 52t-77.5 15.5q-45 0 -76 -15.5t-49.5 -52t-26.5 -97t-8 -150.5z" />
<glyph unicode="&#xf5;" horiz-adv-x="1085" d="M102 532q0 262 103.5 384t335.5 122q231 0 336.5 -122t105.5 -384q0 -162 -28.5 -267t-84 -167.5t-138.5 -87t-191 -24.5q-109 0 -191 24.5t-137 87t-83 168t-28 266.5zM205 1194v213q47 39 101 53.5t95 14.5q37 0 76 -12.5t78 -28t75 -27.5t66 -12q53 0 98.5 19.5 t86.5 53.5v-213q-41 -39 -92.5 -53t-104.5 -14q-39 0 -77 12t-75.5 27.5t-73.5 28t-69 12.5q-53 0 -102 -22.5t-82 -51.5zM381 502q0 -86 7 -142.5t25.5 -90t49.5 -48t78 -14.5t78.5 14.5t50 48t27 90t8.5 142.5q0 90 -8.5 150.5t-28 97t-50 52t-77.5 15.5q-45 0 -76 -15.5 t-49.5 -52t-26.5 -97t-8 -150.5z" />
<glyph unicode="&#xf6;" horiz-adv-x="1085" d="M102 532q0 262 103.5 384t335.5 122q231 0 336.5 -122t105.5 -384q0 -162 -28.5 -267t-84 -167.5t-138.5 -87t-191 -24.5q-109 0 -191 24.5t-137 87t-83 168t-28 266.5zM211 1147v235h266v-235h-266zM381 502q0 -86 7 -142.5t25.5 -90t49.5 -48t78 -14.5t78.5 14.5t50 48 t27 90t8.5 142.5q0 90 -8.5 150.5t-28 97t-50 52t-77.5 15.5q-45 0 -76 -15.5t-49.5 -52t-26.5 -97t-8 -150.5zM621 1147v235h266v-235h-266z" />
<glyph unicode="&#xf7;" horiz-adv-x="1126" d="M143 502v235h840v-235h-840zM410 92v266h307v-266h-307zM410 881v266h307v-266h-307z" />
<glyph unicode="&#xf8;" horiz-adv-x="1085" d="M102 532q0 262 103.5 384t335.5 122q29 0 55.5 -2t50.5 -6l68 176h192l-90 -237q166 -111 166 -437q0 -162 -28.5 -267t-84 -167.5t-138.5 -87t-191 -24.5q-53 0 -101 6l-65 -174h-195l88 231q-84 53 -125 169t-41 314zM381 502q0 -84 6 -144l176 457q-6 2 -22 2 q-45 0 -76 -15.5t-49.5 -52t-26.5 -97t-8 -150.5zM524 207h17q47 0 78.5 14.5t50 48t27 90t8.5 142.5q0 45 -2.5 83t-6.5 68z" />
<glyph unicode="&#xf9;" horiz-adv-x="1060" d="M123 381v643h272v-651q0 -51 8.5 -82t22.5 -47.5t35.5 -21.5t48.5 -5q78 0 111.5 49t33.5 105v653h273v-1024h-221l-19 80q-47 -45 -106.5 -71.5t-137.5 -26.5q-96 0 -158.5 24.5t-98 74.5t-50 125t-14.5 175zM143 1464h326l213 -276h-227z" />
<glyph unicode="&#xfa;" horiz-adv-x="1060" d="M123 381v643h272v-651q0 -51 8.5 -82t22.5 -47.5t35.5 -21.5t48.5 -5q78 0 111.5 49t33.5 105v653h273v-1024h-221l-19 80q-47 -45 -106.5 -71.5t-137.5 -26.5q-96 0 -158.5 24.5t-98 74.5t-50 125t-14.5 175zM307 1188l213 276h326l-311 -276h-228z" />
<glyph unicode="&#xfb;" horiz-adv-x="1060" d="M123 381v643h272v-651q0 -51 8.5 -82t22.5 -47.5t35.5 -21.5t48.5 -5q78 0 111.5 49t33.5 105v653h273v-1024h-221l-19 80q-47 -45 -106.5 -71.5t-137.5 -26.5q-96 0 -158.5 24.5t-98 74.5t-50 125t-14.5 175zM123 1188l250 276h303l252 -276h-301l-103 151l-102 -151 h-299z" />
<glyph unicode="&#xfc;" horiz-adv-x="1060" d="M123 381v643h272v-651q0 -51 8.5 -82t22.5 -47.5t35.5 -21.5t48.5 -5q78 0 111.5 49t33.5 105v653h273v-1024h-221l-19 80q-47 -45 -106.5 -71.5t-137.5 -26.5q-96 0 -158.5 24.5t-98 74.5t-50 125t-14.5 175zM188 1147v235h267v-235h-267zM598 1147v235h266v-235h-266z " />
<glyph unicode="&#xfd;" horiz-adv-x="1009" d="M41 1024h291l198 -797l175 797h264l-262 -1110q-66 -276 -291 -276q-16 0 -44 1t-55.5 2t-51 3t-34.5 4v231q49 -6 101 -6q84 0 100 90l6 37h-69zM354 1188l213 276h326l-311 -276h-228z" />
<glyph unicode="&#xfe;" horiz-adv-x="1062" d="M133 -348v1782h273v-1782h-273zM172 10l131 221q27 -2 84 -9t107 -7q57 0 94 13.5t58.5 51t29.5 104.5t8 173q0 78 -6 127t-21.5 76.5t-40 38t-61.5 10.5q-68 0 -108.5 -49t-40.5 -105l-170 33q18 63 49.5 127t79 114t112 81.5t150.5 31.5q84 0 147.5 -23.5t104.5 -76.5 t61.5 -142t20.5 -222q0 -168 -26 -283t-82 -184.5t-148.5 -99t-225.5 -29.5q-80 0 -165 10t-142 18z" />
<glyph unicode="&#xff;" horiz-adv-x="1009" d="M41 1024h291l198 -797l175 797h264l-262 -1110q-66 -276 -291 -276q-16 0 -44 1t-55.5 2t-51 3t-34.5 4v231q49 -6 101 -6q84 0 100 90l6 37h-69zM162 1147v235h266v-235h-266zM571 1147v235h267v-235h-267z" />
<glyph unicode="&#x152;" horiz-adv-x="1628" d="M102 733q0 180 19.5 315.5t73 225.5t146.5 135t241 45q49 0 92 -5t80 -15h772v-222h-527q29 -72 42.5 -161.5t17.5 -200.5h416v-219h-416q-4 -129 -17.5 -230.5t-44.5 -179.5h529v-221h-772q-37 -10 -80 -15t-92 -5q-152 0 -246 47t-146.5 141t-70 235.5t-17.5 329.5z M387 723q0 -156 10.5 -256t33 -159.5t59 -83t92.5 -23.5q55 0 92 23.5t59.5 83t32.5 159.5t10 256q0 158 -10 257t-32.5 155.5t-59.5 77t-92 20.5t-92 -20.5t-59.5 -77t-33 -155.5t-10.5 -257z" />
<glyph unicode="&#x153;" horiz-adv-x="1595" d="M102 532q0 262 103.5 384t335.5 122q100 0 173.5 -27.5t125.5 -74.5q49 49 117.5 77.5t158.5 28.5q117 0 191.5 -30.5t117.5 -89t60.5 -144.5t17.5 -194v-172h-530q6 -113 42 -155t128 -42q86 0 162.5 10.5t121.5 20.5v-230q-25 -6 -61.5 -13t-77.5 -11t-79 -7t-66 -3 q-106 0 -184 20.5t-132 71.5q-100 -88 -286 -88q-109 0 -191 24.5t-137 87t-83 168t-28 266.5zM381 502q0 -86 7 -142.5t25.5 -90t49.5 -48t78 -14.5t78.5 14.5t50 48t27 90t8.5 142.5q0 90 -8.5 150.5t-28 97t-50 52t-77.5 15.5q-45 0 -76 -15.5t-49.5 -52t-26.5 -97 t-8 -150.5zM975 612h266v54q0 76 -30.5 113.5t-98.5 37.5q-63 0 -95 -45t-42 -160z" />
<glyph unicode="&#x178;" horiz-adv-x="1087" d="M20 1434h304l227 -553l227 553h289l-383 -803v-631h-287v631zM213 1475v235h266v-235h-266zM623 1475v235h266v-235h-266z" />
<glyph unicode="&#x2c6;" horiz-adv-x="886" d="M41 1188l250 276h303l252 -276h-301l-103 151l-102 -151h-299z" />
<glyph unicode="&#x2dc;" horiz-adv-x="778" d="M51 1194v213q47 39 101.5 53.5t95.5 14.5q37 0 75.5 -12.5t77.5 -28t75 -27.5t67 -12q53 0 98 19.5t86 53.5v-213q-41 -39 -92 -53t-105 -14q-39 0 -76.5 12t-75.5 27.5t-74 28t-68 12.5q-53 0 -102.5 -22.5t-82.5 -51.5z" />
<glyph unicode="&#x2000;" horiz-adv-x="906" />
<glyph unicode="&#x2001;" horiz-adv-x="1812" />
<glyph unicode="&#x2002;" horiz-adv-x="906" />
<glyph unicode="&#x2003;" horiz-adv-x="1812" />
<glyph unicode="&#x2004;" horiz-adv-x="604" />
<glyph unicode="&#x2005;" horiz-adv-x="453" />
<glyph unicode="&#x2006;" horiz-adv-x="302" />
<glyph unicode="&#x2007;" horiz-adv-x="302" />
<glyph unicode="&#x2008;" horiz-adv-x="226" />
<glyph unicode="&#x2009;" horiz-adv-x="362" />
<glyph unicode="&#x200a;" horiz-adv-x="100" />
<glyph unicode="&#x2010;" horiz-adv-x="1013" d="M154 502v235h706v-235h-706z" />
<glyph unicode="&#x2011;" horiz-adv-x="1013" d="M154 502v235h706v-235h-706z" />
<glyph unicode="&#x2012;" horiz-adv-x="1013" d="M154 502v235h706v-235h-706z" />
<glyph unicode="&#x2013;" horiz-adv-x="1126" d="M154 502v235h819v-235h-819z" />
<glyph unicode="&#x2014;" horiz-adv-x="1239" d="M113 502v235h1013v-235h-1013z" />
<glyph unicode="&#x2018;" horiz-adv-x="481" d="M82 885v225l143 322h195l-62 -322v-225h-276z" />
<glyph unicode="&#x2019;" horiz-adv-x="481" d="M61 887l62 321v226h276v-226l-143 -321h-195z" />
<glyph unicode="&#x201a;" horiz-adv-x="481" d="M61 -322l62 322v225h276v-225l-143 -322h-195z" />
<glyph unicode="&#x201c;" horiz-adv-x="829" d="M82 885v225l143 322h195l-62 -322v-225h-276zM430 885v225l143 322h195l-61 -322v-225h-277z" />
<glyph unicode="&#x201d;" horiz-adv-x="808" d="M61 887l62 321v226h276v-226l-143 -321h-195zM410 887l61 321v226h277v-226l-144 -321h-194z" />
<glyph unicode="&#x201e;" horiz-adv-x="808" d="M61 -322l62 322v225h276v-225l-143 -322h-195zM410 -322l61 322v225h277v-225l-144 -322h-194z" />
<glyph unicode="&#x2022;" horiz-adv-x="624" d="M102 440v400h420v-400h-420z" />
<glyph unicode="&#x2026;" horiz-adv-x="1536" d="M102 0v266h308v-266h-308zM614 0v266h308v-266h-308zM1126 0v266h308v-266h-308z" />
<glyph unicode="&#x202f;" horiz-adv-x="362" />
<glyph unicode="&#x2039;" horiz-adv-x="604" d="M102 612l179 424h221l-125 -424l125 -424h-221z" />
<glyph unicode="&#x203a;" horiz-adv-x="604" d="M102 188l125 424l-125 424h222l178 -424l-178 -424h-222z" />
<glyph unicode="&#x205f;" horiz-adv-x="453" />
<glyph unicode="&#x20ac;" d="M51 475l41 191h109v137h-150l41 190h119q14 147 47 237.5t87 139.5t130 65.5t174 16.5q20 0 54 -3t68 -7t62.5 -9.5t40.5 -9.5l-49 -237q-47 10 -92 15t-110 5q-31 0 -53.5 -7t-38 -30.5t-25.5 -65.5t-17 -110h304l-39 -190h-273v-137h246l-37 -191h-201q6 -78 19.5 -126 t32 -75.5t44 -37t58.5 -9.5q63 0 128 10.5t103 20.5v-246q-16 -4 -44.5 -10t-61.5 -10t-66.5 -7t-58.5 -3q-98 0 -174 20.5t-128 75.5t-85 151.5t-45 245.5h-160z" />
<glyph unicode="&#x2122;" horiz-adv-x="1658" d="M61 1247v187h977l82 -400l74 400h352v-1037h-213v856l-123 -514h-200l-111 514v-856h-215v850h-184v-850h-221v850h-218z" />
<glyph unicode="&#xe000;" horiz-adv-x="1024" d="M0 0v1024h1024v-1024h-1024z" />
</font>
</defs>
</svg>
